<?xml version="1.0" encoding="UTF-8"?>
<svg id="Layer_1" data-name="Layer 1" xmlns="http://www.w3.org/2000/svg" xmlns:xlink="http://www.w3.org/1999/xlink" viewBox="0 0 322.28 229.07">
  <defs>
    <style>
      .cls-1 {
        fill: #a2dc1c;
      }

      .cls-1, .cls-2, .cls-3, .cls-4, .cls-5, .cls-6, .cls-7, .cls-8, .cls-9, .cls-10, .cls-11, .cls-12, .cls-13, .cls-14, .cls-15, .cls-16 {
        stroke-width: 0px;
      }

      .cls-2 {
        fill: #ceff5a;
      }

      .cls-3 {
        fill: #faf4e5;
      }

      .cls-4, .cls-7, .cls-11, .cls-12 {
        fill-rule: evenodd;
      }

      .cls-6 {
        fill: #af0;
      }

      .cls-7 {
        fill: #d1d5dc;
      }

      .cls-8, .cls-17 {
        fill: none;
      }

      .cls-18 {
        stroke-width: 4.57px;
      }

      .cls-18, .cls-17, .cls-19 {
        stroke: #000;
      }

      .cls-18, .cls-14 {
        fill: #ff9800;
      }

      .cls-9, .cls-11 {
        fill: #fff;
      }

      .cls-10 {
        fill: #d8fe74;
      }

      .cls-17 {
        stroke-width: 1.02px;
      }

      .cls-20 {
        clip-path: url(#clippath);
      }

      .cls-12, .cls-16 {
        fill: #ea6c19;
      }

      .cls-13 {
        fill: #ea6c17;
      }

      .cls-19 {
        fill: url(#linear-gradient);
        stroke-width: 3.37px;
      }

      .cls-21 {
        mask: url(#mask);
      }

      .cls-15 {
        fill: #431c54;
      }
    </style>
    <clipPath id="clippath">
      <rect class="cls-8" width="322.28" height="229.07"/>
    </clipPath>
    <linearGradient id="linear-gradient" x1="257.99" y1="48.04" x2="258.66" y2="48.04" gradientTransform="translate(0 231.86) scale(1 -1)" gradientUnits="userSpaceOnUse">
      <stop offset="0" stop-color="#fff"/>
      <stop offset="1" stop-color="#fff"/>
    </linearGradient>
    <mask id="mask" x="228.14" y="49.13" width="16.5" height="18.6" maskUnits="userSpaceOnUse">
      <g id="path-235-inside-2_21455_83901" data-name="path-235-inside-2 21455 83901">
        <path class="cls-11" d="m232.94,56.08c-.8-.82-1.96-2.12-2.04-2.86-.1-.8.57-2.37,1-3.24.03-.1.17-.03.13.07-.17.94-.33,2.67.33,3.58.44.59.95,1.22,1.38,1.74,1.57-1.08,3.73-1.09,5.31-.02.42-.52.92-1.14,1.34-1.72.67-.9.5-2.64.34-3.58-.03-.1.13-.17.17-.07.4.87,1.07,2.44,1,3.24-.09.73-1.22,2.02-2.02,2.84.15.17.29.35.42.54.06.09.12.19.17.28.54-.17,1.13-.36,1.67-.55,1-.37,1.17-2.51,1.17-3.81,0-.13.17-.13.17-.03.27,1.37.6,3.71.1,4.31-.4.49-1.65.89-2.71,1.16.04.23.05.47.03.72,0,.11-.02.21-.03.31,1.06.26,2.31.67,2.71,1.16.5.6.17,2.94-.1,4.31,0,.1-.17.07-.17-.03,0-1.3-.17-3.44-1.17-3.81-.55-.2-1.16-.4-1.71-.57-.1.13-.21.24-.34.34.61.78,1.77,2.38,1.84,3.22.05.81-.47,2.4-.79,3.27-.03.1-.16.03-.13-.07.13-.94.26-2.7-.26-3.61-.48-.86-1.08-1.79-1.46-2.36h-.03c.1.41.1.91-.1,1.55-.2.53-.44.9-.7,1.2.3.43.6,1.04.37,1.54-.43.94-1.91.84-1.91.84,0,0,.97-.97.57-1.74-.6.23-1.1.2-1.1.2,0,0-.47.03-1.04-.17-.37.77.6,1.71.6,1.71,0,0-1.51.1-1.91-.84-.23-.5.03-1.07.33-1.5-.3-.3-.53-.67-.74-1.24-.06-.16-.1-.3-.13-.45-.34.41-.7.84-1.03,1.26-.7.91-.53,2.67-.35,3.61.04.1-.1.17-.14.07-.46-.88-1.15-2.46-1.05-3.27.09-.76,1.35-2.12,2.19-2.96-.28-.15-.53-.35-.73-.61-.55.17-1.17.37-1.74.58-1.04.37-1.2,2.51-1.2,3.81,0,.1-.13.13-.17.03-.27-1.37-.6-3.71-.1-4.31.43-.5,1.71-.91,2.77-1.17-.01-.1-.03-.19-.03-.3-.02-.24,0-.48.03-.71-1.06-.26-2.35-.67-2.77-1.17-.5-.6-.17-2.94.1-4.31.03-.1.17-.1.17.03,0,1.3.17,3.44,1.2,3.81.55.2,1.15.4,1.7.57.06-.1.12-.2.18-.29.12-.19.26-.36.4-.52Z"/>
      </g>
    </mask>
  </defs>
  <g class="cls-20">
    <rect class="cls-15" x="-.2" y="-.07" width="322.28" height="229.07"/>
    <path class="cls-1" d="m76.77,196.56s-.01,0-.03.01c-1.22-.02-2.2-1.01-2.18-2.23-.02-.14.02-3.99,1.75-8.29,2.33-5.84,6.63-9.74,12.4-11.34,1.16-.32,2.37.37,2.7,1.56.32,1.16-.36,2.37-1.56,2.7-10.7,2.91-10.9,15.28-10.93,15.4,0,1.2-.95,2.18-2.15,2.19Z"/>
    <path class="cls-1" d="m77.56,200.48c-1.22.16-2.54.25-4.05.22-.05,0-.1-.01-.15-.02-.56-1.91-1.38-4.5-2.46-7.32-3.16-8.12-8.54-18.45-16.55-22.21,0,0,2.48-5.35,12.47-4.05,0,0,6.06,14.25,9.21,26.29.67,2.49,1.21,4.93,1.53,7.08Z"/>
    <path class="cls-18" d="m26.5,253.96h0c-6.75-14.64-6.71-28.22-3.8-38.74,1.45-5.24,3.62-9.74,6.03-13.23,2.38-3.44,5.11-6.06,7.76-7.34,2.52-1.22,4.86-1.81,7.03-1.98h.02s.02,0,.02,0c1.16-.07,2.23-.05,3.29.07h0c2.92.35,5.15,1.41,6.53,2.26,6.27-4.74,12.24-4.67,16.74-3.17,2.35.78,4.24,1.94,5.54,2.88.13.1.25.19.37.28.09-.08.19-.16.29-.25,1.19-.99,2.96-2.22,5.18-3.07,2.24-.86,4.96-1.34,8.02-.82,2.61.45,5.34,1.61,8.13,3.73.42-.28.91-.59,1.48-.9h.01s.01-.01.01-.01c3.42-1.81,9.66-3.7,16.52.89l.04.03.04.03c.13.1.26.19.37.29,4.44,3.18,10.36,10.6,13.63,20.78,3.31,10.32,3.95,23.55-2.42,38.24-3.04,7-6.68,11.3-10.54,13.7-3.88,2.42-7.75,2.79-10.96,2.35-2.41-.32-4.44-1.08-5.86-1.76-.34-.16-.64-.32-.91-.46-.39.26-.84.56-1.34.85l-71.25-14.64Zm0,0c2.86,6.18,6.12,10.23,9.55,12.75,3.45,2.53,6.94,3.41,10.06,3.43h.01c3.02,0,5.62-.83,7.43-1.63.6-.26,1.12-.53,1.55-.77l-28.6-13.78Zm71.14,12.9s0,0,0,0l1.31-1.82c-1.14,1.58-1.29,1.79-1.31,1.82Z"/>
    <path class="cls-17" d="m98.84,264.75s4.01,2.82,9.28,2.72c5.4-.13,12.08-3.23,17.22-15.3,12.21-28.72-2.01-52.56-10.89-56.6-2.33-1.07-4.44-1.55-6.34-1.66-1.06-.04-2.01,0-2.91.12-3.81.53-6.21,2.43-6.76,2.9l-.05.05s-.05.03-.05.05c-12.71-10.48-22.88.64-22.88.64,0,0-9.79-11.14-21.7-.19,0,0-.99-.89-2.71-1.78-3.07-1.54-8.46-3.05-14.29,1.04-.13.1-.25.19-.35.28"/>
    <path class="cls-16" d="m97.59,258.8s17.07-18.74,4.26-59.86c0,0,10.07,38.04-5.55,60.82l1.29-.96Z"/>
    <path class="cls-16" d="m53.04,259.11s-17.8-18.19-8.3-59.77c0,0-7.25,39.68,9.6,60.71l-1.3-.94Z"/>
    <path class="cls-16" d="m75.33,260.49s1.86-14.89-.47-61.36c0,0-.78,43.42.47,61.36Z"/>
    <path class="cls-4" d="m104.21,220.9l-24.04,4.71c-.7-2.01-.88-4.22-.44-6.45,1.33-6.7,7.83-11.05,14.53-9.73,5.66,1.12,9.65,5.95,9.95,11.46Z"/>
    <path class="cls-4" d="m48.49,221.13l24.14,4.14c.65-2.02.78-4.24.29-6.46-1.49-6.67-8.09-10.86-14.76-9.38-5.64,1.26-9.51,6.18-9.67,11.69Z"/>
    <path class="cls-12" d="m120.95,202.58c1.74,2.02,3.45,4.61,5.08,7.92,13.78,28.01.9,52.59-7.74,57.1-2.27,1.19-4.35,1.78-6.24,2-1.06.1-2.01.12-2.92.04-3.83-.33-6.33-2.09-6.91-2.53l-.06-.05s-.05-.03-.06-.05c-12.11,11.15-22.88.6-22.88.6,0,0-9.16,11.66-21.66,1.37,0,0-.94.94-2.6,1.92-2.98,1.71-8.27,3.51-14.32-.27-.14-.09-.26-.18-.36-.26-4.34-2.87-10.72-10.43-13.99-21.23,3.42,7.76,8.29,13.2,11.79,15.52.1.08.22.17.36.26,5.96,3.72,11.18,1.95,14.12.26,1.64-.97,2.57-1.9,2.57-1.9,12.32,10.14,21.35-1.35,21.35-1.35,0,0,10.61,10.4,22.55-.59,0,.02.03.04.06.05l.06.05c.57.43,3.03,2.17,6.81,2.49.9.07,1.83.06,2.87-.04,1.86-.21,3.91-.8,6.15-1.97,8.52-4.45,21.21-28.67,7.63-56.28-.54-1.1-1.09-2.12-1.65-3.07Z"/>
    <path class="cls-19" d="m331.34,271.71c4.41-.03,8.77-.93,12.04-3.77,4.14-3.51,4.77-9.3,4.56-13.89h0c-.04-.98-.14-2.09-.25-3.2-.05-.61-.11-1.21-.16-1.8-.14-1.73-.21-3.43-.07-4.98.14-1.55.49-2.85,1.12-3.86.6-.96,1.5-1.75,2.97-2.22h0c1.13-.36,2.43-.44,3.93-.36.97.05,1.9.15,2.89.26.6.07,1.22.14,1.88.2,3.24.3,7.06.34,10.07-2.5,2.39-2.22,3.03-5.48,3.03-8.17,0-1.4-.17-2.76-.32-4.01-.01-.08-.02-.15-.03-.23-.15-1.19-.29-2.28-.32-3.36v-.03s0-.03,0-.03c-.07-1.11-.03-1.9.26-2.58.43-.93,1.31-1.57,2.75-2.06,1.09-.37,2.26-.58,3.53-.81.47-.09.96-.17,1.46-.27,10.03-1.81,18.06-9.51,20.72-19.13.02-.07.04-.15.06-.23.62-2.19,1.76-6.24,2.09-10.11.17-2,.14-4.09-.36-5.9-.51-1.85-1.56-3.56-3.51-4.48-1.4-.66-2.85-.82-4.01-.95h-.09s0-.01,0-.01c-11.07-1.19-21.38-4.75-30.85-9.85-9.02-4.91-17.33-11.22-24.92-18.35h0s-.01-.02-.01-.02c-2-1.82-3.95-3.71-5.86-5.66-.35-.36-.7-.73-1.05-1.1-1.82-1.93-3.71-3.92-6.48-5.46h0c-5.47-3-10.98-3.25-16.73-2.97h-.02s-.02,0-.02,0c-1.97.14-3.72.16-5.16-.37h-.01s-.02-.01-.02-.01c-1.39-.49-2.14-1.26-2.56-2.13-.43-.92-.56-2.11-.37-3.5.39-2.82,2.03-5.87,3.66-7.59,1.88-1.97,3.45-2.73,4.77-2.92,1.33-.19,2.69.14,4.24.9,1.23.59,2.43,1.37,3.77,2.23.41.26.83.53,1.27.81,1.8,1.14,3.82,2.32,6.07,3.01h0c.9.28,2.26.63,3.65.21.69-.18,1.3-.6,1.75-1,.5-.43.96-.97,1.35-1.54.39-.57.73-1.22.94-1.89.2-.65.33-1.49.08-2.33v-.03s-.02-.03-.02-.03c-.54-1.54-1.89-1.99-2.73-2.15-.35-.07-.72-.11-.99-.14-.05,0-.1-.01-.14-.01-.33-.04-.5-.07-.6-.1-3.69-1.17-6.71-3.38-9.15-6.5-7.55-9.73-21.27-16.17-33.73-15.82-9.01.21-17.44,3.93-22.31,12.58-1.06,1.83-1.92,3.86-2.58,6.08-2.76,9.21.25,18.8,5.95,25.99.22.28.41.52.6.75.29.35.55.67.82,1.05.41.57.7,1.08.86,1.57.11.36.08.94-.61,1.84l-.02.02v.02c-1.95,2.69-4.43,4.37-7.28,5.72-1.44.68-2.95,1.27-4.54,1.87-.27.1-.53.2-.8.3-1.33.5-2.7,1.01-4.07,1.58-1.24.51-2.28,1.17-3.12,1.83-2.34,1.28-4.07,3.52-5.36,6.23-1.32,2.77-2.25,6.18-2.87,9.9-1.25,7.46-1.35,16.5-.8,25.09h0c.34,5.25.95,10.35,1.63,14.84h0s0,.01,0,.01c.85,5.3,1.9,9.86,2.98,12.9.53,1.47,1.13,2.79,1.85,3.62.35.41.92.93,1.74,1.06.94.15,1.69-.28,2.18-.79,2.77-2.85,4.05-6.31,5.09-9.12l.04-.11c.11-.3.22-.59.32-.87.37.15.72.29,1.07.42.27.1.55.2.83.29.16.47.47.75.74.91,4.22,15.52,7.93,31.76,5.67,47.02-.43,2.77-.7,5.45-.64,7.81.05,2.33.43,4.56,1.47,6.28,1.11,1.84,2.9,2.94,5.3,3.06,2.27.11,5.03-.65,8.33-2.23h0c1.22-.59,2.46-1.2,3.73-1.83,9.02-4.44,18.17-8.81,27.39-6.74h.01c1.06.23,2.22.51,3.47.82.18.05.37.09.56.14,1.46.35,3.02.73,4.67,1.07,4.2.95,8.92,1.81,13.34,1.78Z"/>
    <path class="cls-7" d="m249.94,219.76c-.37.49-.77.96-1.21,1.41-1.75,1.89-4.18-5.39-5.86-15.91-.67-4.45-1.28-9.5-1.62-14.69-1.08-17.05.4-35.59,8.29-39.7.74-.61,1.68-1.21,2.83-1.68,1.33-.56,2.67-1.06,4-1.56,5.07-1.9,9.97-3.73,13.39-8.49.88-1.15,1.21-2.29.88-3.37-.39-1.21-1.22-2.24-2.02-3.24-.18-.23-.36-.45-.54-.67-5.46-6.88-8.22-15.91-5.66-24.47.63-2.11,1.44-4.02,2.43-5.73,4.52-8.02,12.33-11.53,20.89-11.73,8.33-.24,17.28,2.72,24.38,7.68-6.2-3.3-13.26-5.15-19.93-4.96-1.72.04-3.4.21-5.04.53-5.75,1.11-10.88,3.98-14.49,9.04-.29.41-.57.83-.84,1.26-.18.29-.36.59-.53.89-.99,1.71-1.8,3.62-2.43,5.73-2.12,7.09-.59,14.51,3.11,20.76.76,1.29,1.62,2.53,2.55,3.71.17.22.36.45.54.67.81,1,1.64,2.03,2.02,3.24.34,1.08,0,2.22-.88,3.37-3.42,4.75-8.32,6.59-13.39,8.49-1.33.5-2.67,1-4,1.56-1.15.47-2.09,1.08-2.83,1.68-7.57,3.95-9.24,21.18-8.41,37.64.04.69.07,1.38.12,2.06.31,4.71.83,9.3,1.43,13.43.06.43.12.85.19,1.26.76,4.78,1.68,8.88,2.62,11.77Zm9.33-7.78s0,.03.01.05c.04.13.07.27.11.4.05.2.11.4.16.59,4.28,15.66,8.15,32.37,5.82,48.12-1.28,8.31-1.04,15.14,4.79,15.22-1.35-2.76-1.14-7.34-.34-12.5,2.36-15.95-1.64-32.88-5.98-48.71-.04-.13-.07-.27-.11-.4-.02-.09-.05-.17-.07-.26-.45-1.63-.9-3.26-1.35-4.86-.03-.11-.06-.21-.09-.32-.07-.26-.14-.51-.21-.77-1.17.75-1.98,1.89-2.65,3.26-.03.06-.06.12-.09.18Zm141.78-34.84c-.47-.91-1.15-1.62-2.09-2.06-1.15-.54-2.36-.67-3.57-.81-11.32-1.21-21.84-4.85-31.48-10.04-.81-.44-1.61-.89-2.4-1.35.77.49,1.54.98,2.32,1.46,1.49.91,3,1.78,4.53,2.62,9.64,5.19,20.15,8.83,31.48,10.04.4.05.8.09,1.21.15Zm-72.77-41.64c-.81-.68-1.7-1.3-2.72-1.87-5.05-2.76-10.18-3.03-15.84-2.76-1.51.1-3.1.17-4.59-.12.66,1.02,1.69,1.85,3.18,2.37,1.82.67,3.91.61,5.86.47,5.01-.24,9.61-.05,14.1,1.91Zm-8.43-20.49c.89.56,1.79,1.12,2.73,1.62-.92-.59-1.82-1.15-2.73-1.62Zm11.58-.47c.08-.36.08-.71-.01-1-.33-.95-1.35-1.06-2.29-1.17-.39-.04-.77-.08-1.08-.18-.7-.22-1.37-.48-2.03-.76,1.62,1.31,3.42,2.36,5.41,3.12Z"/>
    <path class="cls-4" d="m285.83,122.5c-2.17.31-4.3.14-6.27-.31l-1.92,2.02-.67-2.8c-2.63-.97-4.82-2.36-6.27-3.58.72,2.65,1.73,4.75,2.94,6.37l1.8-.69-.48,2.21c1.84,1.81,3.98,2.77,6.16,3.09l1.4-2.34,1.19,2.44c2.52-.17,4.96-1.1,6.93-2.45l-.22-2.32,1.85.98c2.08-2.02,3.2-4.59,2.51-7.06-2.19,2.03-4.47,3.28-6.75,3.95l-.83,2.32-1.39-1.84Z"/>
    <path class="cls-4" d="m293.75,113.84l-10.15.63c-.18-.86-.13-1.78.17-2.68.91-2.68,3.83-4.12,6.51-3.21,2.27.77,3.65,2.97,3.47,5.26Z"/>
    <path class="cls-4" d="m269.95,113.11l10.03,1.68c.27-.84.32-1.76.11-2.68-.63-2.76-3.38-4.5-6.15-3.87-2.34.53-3.94,2.58-3.99,4.87Z"/>
    <path class="cls-11" d="m11.59,3.83c-3.59-.04-6.85-.77-9.82-2.2l9.53,11.47c7.99,2.42,14.19,1.39,18,.07,3.52-1.17,5.72-2.82,6.3-3.3l-.26-8.94h1.03l.26,8.87c5.72,3.7,11.4,3.85,15.18,3.34,3.74-.55,6.41-1.8,6.96-2.09l6.56-10.12h1.25l-6.85,10.56c1.76,3.52,4.44,5.61,7.99,6.19,2.49.4,4.58-.07,4.99-.18,4.29-2.79,8.36-5.21,12.13-7.26-1.5-.29-3.89-.92-6.41-2.35-2.38-1.28-5.13-3.45-7.26-6.96h1.17c1.64,2.52,3.81,4.53,6.52,6.05,3.52,1.98,6.82,2.38,7.48,2.42,8.17-4.4,14.66-7.15,18.07-8.47h2.97c-.92.29-21.11,7.26-44.06,24.38C41.73,41.4,13.28,69.99.12,114.93l-.18-.04v-2.86c2.71-8.8,6.16-17.34,10.23-25.51.48-5.35-8.25-7.62-10.23-8.06v-3.04c3.23-10.48,2.02-20.53,0-27.86v-3.52c.1.27.18.54.26.81,1.65,5.13,2.57,10.26,2.75,15.29.18,5.57-.55,10.96-2.2,16.09l6.6-5.79c2.42-11.22,1.36-20.38.04-26.06-1.25-5.5-3.01-8.94-3.41-9.71L-.06,33.33v-1.1l4.33,1.47c4.25-2.53,6.63-6.63,7-12.17.05-.54.07-1.05.07-1.54,0-3.19-.66-5.68-.81-6.19L.23,1.37c.18,2.24.4,6.38.07,10.96-.1,1.22-.22,2.38-.37,3.48V.93h2.79c6.82,3.04,14.37,1.83,19.94,0h3.08-.04c-.73.29-1.49.57-2.27.84-4.18,1.39-8.17,2.09-11.84,2.05Zm9.13,35.3c1.98-.77,3.26-1.91,3.81-3.45.95-2.79-.88-6.01-1.06-6.3l-11.51-13.89c.26,1.5.51,3.67.33,6.08-.37,5.5-2.71,9.82-6.74,12.54l15.18,5.02Zm23.24-11.62c-2.46-.18-4.77-1.43-6.89-3.7l.59,19.68,11-16.94c-1.17.59-2.79,1.1-4.69.95Zm-7.88-2.35c-.77,1.61-2.05,3.56-4.14,4.62-1.87.99-4.03,1.1-6.45.4l11.18,13.45-.59-18.47Zm-.4,18.91l-10.12-12.17c.29,1.25.4,2.68-.11,4.11-.51,1.54-1.61,2.71-3.3,3.59l13.53,4.47Zm-13.12-3.26c.7.84,1.54,1.98,2.24,3.41,1.17,2.46,2.09,6.12.48,10.45l10.7-9.42-13.42-4.44Zm-13.97,28.48l14.77-12.94c2.16-3.92,2.35-7.84.51-11.66-1.25-2.57-3.04-4.25-3.41-4.58l-15.14-4.99c.73,1.54,2.02,4.58,3.01,8.94.77,3.3,1.47,7.7,1.47,13.01,0,3.67-.33,7.77-1.21,12.21Zm5.87,9.16c-.22-6.45-5.39-7.15-6.49-7.22l-7.26,6.34c2.57.66,9.2,2.68,10.3,7.18,1.1-2.13,2.25-4.23,3.45-6.3Zm9.46-21.26l-14.92,13.16c1.91.37,5.57,1.72,6.34,6.56,3.35-5.74,7.04-11.28,11.07-16.61.18-2.38-1.8-2.97-2.49-3.12Zm34.13-29.18c-1.8.18-4.44-.18-7.51-2.46l-12.68,19.54c-.11.15-.26.26-.44.29l-12.54,11c1.03.37,2.13,1.21,2.46,2.68,8.76-11.36,19.1-21.77,30.72-31.01v-.04Zm.99-15.58l-7.95,12.24c4.99,3.7,8.61,1.94,8.98,1.72.88-.66,1.75-1.31,2.6-1.94,2.71-2.02,5.39-3.92,7.99-5.65-.88.04-1.94.04-3.08-.15-2.6-.44-6.12-1.87-8.54-6.23Zm-22.4-1.43l.37,11.18c2.16,2.64,4.55,4.07,7.04,4.29,3.19.22,5.61-1.72,5.97-2.02l7.7-11.88c-1.28.51-3.26,1.17-5.75,1.5-3.81.55-9.53.44-15.32-3.08Zm-24.19,3.45l11.73,14.15c2.86,1.21,5.28,1.28,7.29.26,3.3-1.72,4.4-6.01,4.51-6.52l-.33-11.25c-1.06.77-3.08,2.02-5.97,3.01-3.74,1.28-9.68,2.35-17.23.37Z"/>
    <path class="cls-9" d="m235.95.93v56.17c0,.27.2.47.43.47.27,0,.47-.2.47-.47V.93h-.9Z"/>
    <path class="cls-4" d="m232.94,56.08c-.8-.82-1.96-2.12-2.04-2.86-.1-.8.57-2.37,1-3.24.03-.1.17-.03.13.07-.17.94-.33,2.67.33,3.58.44.59.95,1.22,1.38,1.74,1.57-1.08,3.73-1.09,5.31-.02.42-.52.92-1.14,1.34-1.72.67-.9.5-2.64.34-3.58-.03-.1.13-.17.17-.07.4.87,1.07,2.44,1,3.24-.09.73-1.22,2.02-2.02,2.84.15.17.29.35.42.54.06.09.12.19.17.28.54-.17,1.13-.36,1.67-.55,1-.37,1.17-2.51,1.17-3.81,0-.13.17-.13.17-.03.27,1.37.6,3.71.1,4.31-.4.49-1.65.89-2.71,1.16.04.23.05.47.03.72,0,.11-.02.21-.03.31,1.06.26,2.31.67,2.71,1.16.5.6.17,2.94-.1,4.31,0,.1-.17.07-.17-.03,0-1.3-.17-3.44-1.17-3.81-.55-.2-1.16-.4-1.71-.57-.1.13-.21.24-.34.34.61.78,1.77,2.38,1.84,3.22.05.81-.47,2.4-.79,3.27-.03.1-.16.03-.13-.07.13-.94.26-2.7-.26-3.61-.48-.86-1.08-1.79-1.46-2.36h-.03c.1.41.1.91-.1,1.55-.2.53-.44.9-.7,1.2.3.43.6,1.04.37,1.54-.43.94-1.91.84-1.91.84,0,0,.97-.97.57-1.74-.6.23-1.1.2-1.1.2,0,0-.47.03-1.04-.17-.37.77.6,1.71.6,1.71,0,0-1.51.1-1.91-.84-.23-.5.03-1.07.33-1.5-.3-.3-.53-.67-.74-1.24-.06-.16-.1-.3-.13-.45-.34.41-.7.84-1.03,1.26-.7.91-.53,2.67-.35,3.61.04.1-.1.17-.14.07-.46-.88-1.15-2.46-1.05-3.27.09-.76,1.35-2.12,2.19-2.96-.28-.15-.53-.35-.73-.61-.55.17-1.17.37-1.74.58-1.04.37-1.2,2.51-1.2,3.81,0,.1-.13.13-.17.03-.27-1.37-.6-3.71-.1-4.31.43-.5,1.71-.91,2.77-1.17-.01-.1-.03-.19-.03-.3-.02-.24,0-.48.03-.71-1.06-.26-2.35-.67-2.77-1.17-.5-.6-.17-2.94.1-4.31.03-.1.17-.1.17.03,0,1.3.17,3.44,1.2,3.81.55.2,1.15.4,1.7.57.06-.1.12-.2.18-.29.12-.19.26-.36.4-.52Z"/>
    <g class="cls-21">
      <path class="cls-9" d="m230.9,53.22l.79-.09h0s-.79.09-.79.09Zm2.04,2.86l.6.53.49-.56-.52-.53-.57.56Zm-1.04-6.1l.72.36.02-.05.02-.05-.76-.25Zm.13.07l-.76-.25-.02.06v.06s.78.14.78.14Zm.33,3.58l-.64.48h0s.64-.48.64-.48Zm1.38,1.74l-.62.51.47.56.6-.42-.45-.66Zm5.31-.02l-.45.66.61.41.46-.57-.62-.51Zm1.34-1.72l-.64-.48h0s.65.48.65.48Zm.34-3.58l.79-.14v-.06s-.03-.06-.03-.06l-.76.25Zm.17-.07l-.76.25v.04s.03.04.03.04l.73-.34Zm1,3.24l.79.09h0s0-.03,0-.03l-.8-.07Zm-2.02,2.84l-.57-.56-.52.54.5.56.6-.53Zm.42.54l-.67.44h0s.66-.44.66-.44Zm.17.28l-.7.39.32.56.62-.19-.24-.76Zm1.67-.55l.27.75h0s-.28-.75-.28-.75Zm1.34-3.85h-.8v.15s.8-.15.8-.15Zm.1,4.31l-.61-.51h0s.62.51.62.51Zm-2.71,1.16l-.2-.78-.72.18.13.73.79-.14Zm.03.72l-.8-.07h0s0,.03,0,.03l.8.04Zm-.03.31l-.79-.12-.11.72.71.18.19-.78Zm2.71,1.16l-.62.51h0s.61-.51.61-.51Zm-.1,4.31l-.78-.15v.08s-.01.08-.01.08h.8Zm-1.34-3.85l.28-.75h0s-.27.75-.27.75Zm-1.71-.57l.24-.76-.53-.16-.34.43.63.49Zm-.34.34l-.51-.62-.61.49.48.62.63-.49Zm1.84,3.22l.8-.05h0s0-.02,0-.02l-.8.07Zm-.79,3.27l-.75-.27v.03s-.02.04-.02.04l.77.2Zm-.13-.07l.77.2v-.04s.02-.05.02-.05l-.79-.11Zm-.26-3.61l-.7.39h0s.69-.39.69-.39Zm-1.46-2.36l.67-.44-.35-.54-.6.24.29.75Zm-.03.01l-.29-.75-.66.26.17.68.78-.19Zm-.1,1.54l.75.28v-.02s.01-.02.01-.02l-.76-.24Zm-.7,1.2l-.6-.53-.42.47.36.52.66-.46Zm.37,1.54l-.73-.34h0s.73.34.73.34Zm-1.91.84l-.56-.57-1.24,1.24,1.75.12.05-.8Zm.57-1.74l.71-.37-.33-.64-.67.26.29.75Zm-1.1.2l.05-.8h-.06s-.06,0-.06,0l.06.8Zm-1.04-.17l.27-.75-.68-.24-.31.65.72.35Zm.6,1.71l.05.8,1.8-.12-1.3-1.25-.56.58Zm-1.91-.84l.74-.32h0s0-.02,0-.02l-.73.34Zm.33-1.5l.66.46.38-.55-.47-.47-.57.57Zm-.74-1.24l.75-.27h0s-.75.27-.75.27Zm-.13-.45l.78-.17-.35-1.59-1.05,1.24.61.51Zm-1.03,1.26l-.63-.49h0s.63.49.63.49Zm-.35,3.61l-.79.15v.06s.03.06.03.06l.76-.26Zm-.14.07l.76-.26-.02-.06-.03-.05-.71.37Zm-1.05-3.27l.79.1h0s-.79-.1-.79-.1Zm2.19-2.96l.56.57.76-.76-.94-.51-.38.7Zm-.73-.61l.64-.49-.34-.44-.53.17.24.76Zm-1.74.58l.27.75h0s-.27-.75-.27-.75Zm-1.37,3.85l-.79.15v.05s.03.05.03.05l.76-.25Zm-.1-4.31l-.61-.52h0s.61.52.61.52Zm2.77-1.17l.19.78.71-.18-.11-.72-.79.12Zm-.03-.3l.8-.04h0s0-.02,0-.02l-.8.07Zm.03-.71l.79.14.13-.73-.72-.18-.19.78Zm-2.77-1.17l-.61.51h0s.61-.51.61-.51Zm.1-4.31l-.76-.25-.02.05v.05s.78.15.78.15Zm1.37,3.85l.27-.75h0s-.27.75-.27.75Zm1.7.57l-.24.76.62.19.32-.57-.7-.39Zm.18-.29l.67.44h0s-.67-.44-.67-.44Zm-2.43-3.29c.04.34.19.67.34.94.16.28.36.58.57.85.43.56.94,1.11,1.35,1.53l1.15-1.12c-.39-.4-.86-.91-1.23-1.39-.19-.24-.34-.47-.45-.66-.12-.21-.14-.32-.15-.35l-1.59.19Zm1.08-3.69c-.23.46-.52,1.1-.74,1.74-.21.6-.41,1.35-.34,1.96l1.59-.2c-.03-.2.05-.63.26-1.24.19-.56.46-1.14.66-1.55l-1.43-.72Zm1.61.68c.15-.46-.09-.9-.44-1.08-.18-.09-.43-.14-.69-.04-.28.11-.45.33-.52.54l1.52.51c-.05.16-.19.36-.44.45-.23.09-.44.04-.59-.03-.29-.15-.48-.5-.36-.86l1.52.51Zm.22,2.85c-.19-.25-.3-.71-.32-1.33-.02-.59.06-1.2.13-1.64l-1.57-.28c-.09.5-.18,1.23-.16,1.97.02.71.15,1.58.64,2.23l1.28-.95Zm1.36,1.71c-.43-.51-.93-1.13-1.36-1.71l-1.28.96c.45.61.97,1.25,1.4,1.77l1.23-1.02Zm5.14-.17c-1.85-1.26-4.37-1.25-6.21.02l.91,1.32c1.3-.9,3.1-.9,4.41-.01l.9-1.32Zm.24-1.53c-.41.57-.89,1.18-1.31,1.69l1.24,1.01c.43-.52.93-1.16,1.37-1.76l-1.29-.94Zm.19-2.97c.08.44.15,1.05.13,1.64-.02.62-.14,1.07-.32,1.33l1.29.95c.48-.65.61-1.52.64-2.23.02-.74-.07-1.47-.16-1.97l-1.58.28Zm1.71-.46c-.09-.27-.3-.47-.56-.56-.23-.07-.45-.04-.6.02-.27.11-.72.5-.52,1.1l1.52-.51c.07.21.03.43-.07.6-.09.15-.22.24-.34.28-.11.04-.28.08-.47.02-.22-.07-.4-.25-.47-.46l1.52-.51Zm1.04,3.56c.05-.59-.16-1.33-.37-1.93-.22-.64-.5-1.28-.71-1.72l-1.45.67c.2.43.45,1.01.65,1.57.21.61.3,1.05.29,1.27l1.59.13Zm-2.25,3.33c.41-.42.92-.97,1.34-1.53.21-.28.41-.56.57-.85.15-.27.3-.59.33-.93l-1.59-.19s-.03.14-.14.34c-.11.19-.26.41-.44.65-.37.48-.83.98-1.22,1.38l1.15,1.12Zm.51-.46c-.15-.23-.31-.44-.49-.64l-1.19,1.07c.12.14.24.29.34.45l1.34-.88Zm.2.33c-.06-.11-.13-.23-.2-.33l-1.33.89c.05.08.1.15.14.23l1.39-.79Zm.7-.91c-.52.19-1.1.38-1.63.54l.47,1.53c.55-.17,1.15-.36,1.7-.57l-.55-1.5Zm.64-3.06c0,.63-.04,1.42-.19,2.08-.07.33-.17.59-.27.76-.1.18-.18.21-.19.21l.55,1.5c.49-.18.81-.55,1.02-.92.21-.37.35-.8.44-1.21.19-.83.23-1.76.23-2.43h-1.6Zm1.77-.03c0-.27-.12-.53-.34-.69-.2-.15-.43-.2-.62-.18-.2.02-.41.11-.57.29-.16.18-.23.41-.23.61h1.6c0,.14-.05.32-.18.46-.13.14-.29.21-.46.23-.15.02-.34-.02-.51-.15-.18-.14-.29-.36-.29-.58h1.6Zm-.08,4.83c.29-.34.38-.81.41-1.16.04-.39.04-.83,0-1.27-.06-.88-.21-1.84-.35-2.55l-1.57.31c.13.67.27,1.56.32,2.34.03.39.03.73,0,1-.03.3-.09.35-.05.31l1.23,1.02Zm-3.13,1.42c.54-.14,1.16-.31,1.7-.53.27-.11.54-.23.77-.37.23-.13.47-.31.66-.54l-1.24-1.01s-.08.08-.23.17c-.14.08-.33.17-.55.26-.45.18-.99.33-1.5.46l.39,1.55Zm.63.01c.03-.32.01-.63-.04-.93l-1.57.28c.03.17.04.34.02.51l1.59.14Zm-.04.37c.02-.13.03-.26.04-.39l-1.6-.09c0,.08-.01.16-.02.23l1.58.25Zm2.54.53c-.19-.23-.43-.4-.66-.54-.24-.14-.5-.26-.77-.37-.54-.21-1.15-.39-1.7-.53l-.39,1.55c.51.13,1.05.29,1.5.46.22.09.41.18.55.26.15.09.21.15.23.17l1.24-1.01Zm.07,4.97c.14-.7.29-1.67.35-2.55.03-.44.03-.88,0-1.27-.04-.35-.13-.82-.41-1.16l-1.23,1.02s.02,0,.05.31c.03.26.03.6,0,1-.05.78-.2,1.67-.32,2.34l1.57.31Zm-1.75-.19c0,.56.45.82.73.88.15.03.39.03.63-.11.28-.17.41-.46.41-.74h-1.6c0-.23.11-.49.36-.63.2-.12.4-.11.51-.09.19.04.56.23.56.69h-1.6Zm-.65-3.06s.09.04.19.21c.1.18.19.43.27.76.15.66.19,1.45.19,2.08h1.6c0-.67-.04-1.6-.23-2.43-.09-.41-.23-.84-.44-1.21-.21-.37-.54-.74-1.02-.92l-.55,1.5Zm-1.67-.55c.54.17,1.14.36,1.67.56l.55-1.5c-.57-.21-1.19-.41-1.75-.58l-.47,1.53Zm.4.2c.17-.14.32-.29.46-.47l-1.26-.99c-.06.08-.13.15-.21.21l1.01,1.24Zm2.14,2.53c-.03-.35-.16-.7-.3-1.01-.15-.32-.34-.66-.54-.97-.4-.63-.86-1.25-1.17-1.65l-1.26.98c.3.38.72.95,1.07,1.52.18.28.33.56.44.79.12.25.16.41.17.49l1.59-.15Zm-.83,3.62c.16-.45.38-1.09.55-1.72.16-.61.32-1.32.28-1.87l-1.6.1c.02.26-.07.74-.23,1.35-.16.58-.36,1.17-.51,1.6l1.51.54Zm-1.66-.54c-.12.44.12.85.46,1.02.17.09.43.15.72.03.3-.12.45-.38.51-.59l-1.55-.4c.04-.16.17-.38.44-.49.25-.1.48-.05.62.03.27.14.45.46.36.8l-1.55-.4Zm-.18-3.01c.16.27.26.77.27,1.41.01.61-.05,1.24-.11,1.69l1.59.22c.07-.5.14-1.22.12-1.95-.02-.7-.12-1.54-.49-2.17l-1.38.8Zm-1.43-2.33c.37.57.96,1.49,1.43,2.32l1.39-.79c-.5-.88-1.11-1.83-1.49-2.41l-1.34.88Zm.93.32h.03s-.58-1.5-.58-1.5h-.03s.58,1.5.58,1.5Zm.37,1.03c.24-.76.26-1.41.11-1.97l-1.55.39c.06.24.07.59-.09,1.1l1.52.48Zm-.87,1.49c.34-.38.62-.83.85-1.45l-1.5-.56c-.17.45-.35.73-.55.95l1.2,1.06Zm.5,1.34c.23-.49.17-.99.05-1.37-.12-.38-.32-.71-.49-.96l-1.31.91c.13.19.23.37.28.53.05.16.02.21.02.22l1.45.68Zm-2.63.5q-.05.8-.05.8h0s0,0,0,0c0,0,0,0,0,0,0,0,0,0,0,0,0,0,.01,0,.02,0,.02,0,.04,0,.07,0,.05,0,.13,0,.22,0,.18,0,.42-.03.7-.09.5-.11,1.29-.4,1.67-1.21l-1.45-.67c-.06.12-.22.25-.56.32-.15.03-.3.05-.41.05-.06,0-.1,0-.13,0-.01,0-.02,0-.03,0,0,0,0,0,0,0h0s0,0,0,0c0,0,0,0,0,0h0s0,0-.05.8Zm-.14-1.37s.04.11-.12.39c-.07.12-.15.22-.21.3-.03.04-.06.07-.08.09,0,0-.01.02-.02.02,0,0,0,0,0,0,0,0,0,0,0,0h0s0,0,0,0h0s0,0,.57.57q.57.57.57.57s0,0,0,0,0,0,0,0c0,0,0,0,0,0,0,0,0,0,0,0,0,0,0,0,.01-.01.01-.01.02-.03.04-.05.04-.04.08-.09.13-.15.1-.13.24-.31.37-.53.22-.39.55-1.16.15-1.92l-1.42.74Zm-.39-.17q-.05.8-.05.8h0s0,0,0,0c0,0,0,0,0,0h.01s.02,0,.03,0c.02,0,.06,0,.1,0,.08,0,.18,0,.31-.02.26-.03.6-.09.99-.24l-.58-1.49c-.22.09-.42.12-.57.14-.07,0-.13,0-.16,0-.02,0-.03,0-.03,0,0,0,0,0,0,0s0,0,0,0c0,0,0,0,0,0,0,0,0,0,0,0h0s0,0-.05.8Zm-1.3.59c.36.13.69.18.93.2.12.01.22.01.29.01.04,0,.07,0,.09,0,.01,0,.02,0,.03,0,0,0,0,0,.01,0,0,0,0,0,0,0,0,0,0,0,0,0h0s0,0-.06-.8q-.06-.8-.06-.8h0s0,0,0,0c0,0,0,0,0,0,0,0,0,0,0,0,0,0,0,0,0,0,0,0-.01,0-.03,0-.03,0-.08,0-.15,0-.14-.01-.33-.04-.54-.12l-.53,1.51Zm.87.95q.56-.58.56-.58h0s0,0,0,0h0s0,0,0,0c0,0,0,0,0,0,0,0,0,0-.02-.02-.02-.02-.04-.05-.08-.08-.07-.08-.15-.18-.21-.3-.17-.28-.13-.39-.13-.39l-1.44-.69c-.37.77-.03,1.52.2,1.9.13.22.27.39.37.52.05.06.1.11.13.15.02.02.03.03.04.04,0,0,.01.01.01.01,0,0,0,0,0,0,0,0,0,0,0,0,0,0,0,0,0,0,0,0,0,0,0,0s0,0,.56-.58Zm-2.64-.52c.36.84,1.17,1.13,1.67,1.24.27.06.52.08.7.09.09,0,.17,0,.22,0,.03,0,.05,0,.07,0,0,0,.02,0,.02,0,0,0,0,0,0,0,0,0,0,0,0,0t0,0h0s0,0-.05-.8q-.05-.8-.05-.8h0s0,0,0,0h0s0,0,0,0c0,0-.01,0-.03,0-.03,0-.07,0-.13,0-.12,0-.27-.02-.42-.05-.35-.08-.49-.2-.54-.3l-1.47.63Zm.41-2.28c-.17.25-.37.58-.48.96-.11.38-.15.86.08,1.34l1.45-.68s-.03-.08,0-.22c.04-.14.13-.31.26-.5l-1.32-.91Zm-.83-.52c.23.66.52,1.14.93,1.54l1.13-1.13c-.2-.2-.38-.46-.55-.94l-1.51.53Zm-.16-.54c.04.18.09.36.16.55l1.5-.55c-.04-.12-.08-.24-.1-.34l-1.56.34Zm.39,1.58c.32-.41.67-.84,1.01-1.24l-1.22-1.03c-.35.41-.71.86-1.04,1.29l1.26.98Zm-.2,2.97c-.08-.44-.16-1.05-.14-1.65.02-.62.14-1.08.34-1.33l-1.27-.97c-.51.66-.65,1.53-.67,2.25-.02.75.07,1.48.17,1.99l1.57-.29Zm-1.68.47c.08.22.25.44.53.54.26.09.5.05.67-.04.35-.17.62-.61.45-1.09l-1.51.52c-.13-.38.08-.74.37-.87.14-.07.35-.11.56-.03.24.09.38.28.44.44l-1.51.52Zm-1.09-3.64c-.04.33,0,.68.07,1,.07.32.17.66.29.99.23.65.54,1.3.78,1.76l1.42-.74c-.22-.42-.49-1-.69-1.56-.1-.28-.18-.55-.23-.77-.05-.24-.05-.39-.04-.46l-1.59-.21Zm2.42-3.42c-.43.43-.98,1-1.44,1.58-.23.29-.45.59-.62.88-.16.28-.32.62-.37.97l1.59.19s.03-.14.16-.36c.12-.2.28-.44.49-.69.4-.51.9-1.03,1.31-1.44l-1.13-1.13Zm-.8.44c.28.36.62.63.98.83l.77-1.4c-.19-.11-.35-.24-.48-.4l-1.27.97Zm-.84.84c.55-.2,1.16-.4,1.71-.57l-.48-1.53c-.56.18-1.19.38-1.78.59l.54,1.5Zm-.68,3.06c0-.63.04-1.42.19-2.08.08-.33.17-.58.27-.76.1-.17.18-.21.21-.22l-.54-1.51c-.49.18-.83.54-1.05.91-.22.37-.36.8-.46,1.22-.19.83-.23,1.76-.23,2.44h1.6Zm-1.73.29c.07.2.2.39.42.5.2.11.42.13.61.09.38-.08.7-.42.7-.87h-1.6c0-.35.25-.62.55-.69.15-.03.33-.02.5.07.18.1.29.25.33.4l-1.52.51Zm.04-5.08c-.29.34-.38.81-.42,1.16-.04.39-.04.83,0,1.27.06.88.21,1.84.35,2.55l1.57-.31c-.13-.67-.28-1.56-.33-2.34-.02-.39-.03-.73,0-1,.03-.3.09-.35.05-.31l-1.23-1.02Zm3.19-1.44c-.55.14-1.17.31-1.72.53-.51.2-1.11.48-1.47.9l1.22,1.04c.07-.08.32-.25.83-.45.46-.18,1.01-.34,1.53-.47l-.39-1.55Zm-.64.52c0,.13.02.25.04.38l1.58-.25c-.01-.07-.02-.14-.02-.22l-1.6.09Zm.04-.89c-.05.29-.07.6-.04.91l1.59-.14c-.01-.17,0-.34.02-.5l-1.58-.27Zm-2.59-.52c.36.42.96.7,1.47.9.55.21,1.18.39,1.72.53l.39-1.55c-.52-.13-1.07-.29-1.53-.47-.51-.2-.76-.36-.83-.45l-1.22,1.04Zm-.08-4.99c-.14.7-.29,1.67-.35,2.55-.03.44-.04.88,0,1.27.04.35.13.82.42,1.16l1.23-1.02s-.02,0-.05-.31c-.03-.26-.03-.6,0-1,.05-.78.2-1.67.33-2.34l-1.57-.31Zm1.75.19c0-.16-.04-.37-.18-.56-.15-.19-.36-.31-.6-.34-.47-.05-.83.26-.94.61l1.52.51c-.08.26-.36.51-.75.47-.2-.02-.38-.12-.5-.28-.12-.15-.14-.31-.14-.41h1.6Zm.67,3.06s-.1-.05-.21-.22c-.1-.18-.2-.43-.27-.76-.15-.66-.19-1.45-.19-2.08h-1.6c0,.67.04,1.61.23,2.44.1.42.24.85.46,1.22.22.37.55.74,1.05.91l.54-1.51Zm1.66.56c-.54-.17-1.12-.36-1.66-.55l-.54,1.5c.57.21,1.18.4,1.73.58l.48-1.53Zm-.72.03c-.07.11-.15.23-.21.35l1.4.78c.04-.08.09-.16.15-.24l-1.33-.89Zm.47-.61c-.17.19-.33.4-.47.61l1.34.88c.1-.15.21-.3.33-.43l-1.2-1.06Z"/>
    </g>
    <path class="cls-2" d="m74.5,99.47c1-1,2.13-1.71,3.22-2.09-1.09-.37-2.23-1.07-3.23-2.07s-1.71-2.13-2.09-3.22c-.37,1.09-1.07,2.23-2.06,3.23-1,1-2.13,1.71-3.22,2.09,1.09.37,2.23,1.07,3.23,2.07s1.71,2.13,2.09,3.22c.37-1.09,1.07-2.23,2.06-3.23Z"/>
    <path class="cls-14" d="m231.01,124.16c1-1,2.12-1.71,3.21-2.09-1.09-.37-2.23-1.07-3.23-2.07s-1.71-2.13-2.09-3.22c-.37,1.09-1.07,2.23-2.06,3.23-1,1-2.12,1.71-3.21,2.09,1.09.37,2.23,1.07,3.23,2.07s1.71,2.13,2.09,3.22c.37-1.09,1.07-2.23,2.06-3.23Z"/>
    <path class="cls-3" d="m214.39,100.6l.68-3.03,2.86.9-2.18-2.13,2.18-2.13-2.86.9-.68-3.03-.68,3.03-2.86-.9,2.18,2.13-2.18,2.13,2.86-.9.68,3.03Z"/>
    <path class="cls-3" d="m60.43,127.85l.68-3.03,2.86.9-2.18-2.13,2.18-2.13-2.86.9-.68-3.03-.68,3.03-2.86-.9,2.18,2.13-2.18,2.13,2.86-.9.68,3.03Z"/>
    <path class="cls-5" d="m178.92,125.66l.06.23h.1l-.16-.23Zm0,0l.06.23h.1l-.16-.23Zm-77.88,25.19h0,.06-.05Z"/>
    <path class="cls-5" d="m221.84,145.11c-.04-.23-.08-.45-.12-.68-.03-.23-.06-.47-.1-.7l-.02-.12-.03-.12c-.14-.55-.47-1.39-1.26-2.1-.46-.41-.96-.66-1.46-.82-.03-.07-.07-.14-.11-.21-.21-.41-.42-.82-.65-1.22h0c-.06-.12-.16-.3-.22-.41s-.05-.09-.11-.21c-.03-.04-.04-.06-.05-.08-.09-.21-.19-.43-.29-.66l-.1-.2c-.02-.05-.05-.1-.07-.14-.21-.94-.43-1.87-.68-2.77-.24-.95-.49-1.9-.75-2.86.02-.52.03-1.04.05-1.57,0-.13,0-.25.02-.38.51-.4,1.39-1.3,1.55-2.77h0c.02-.14,0-.28.02-.42v-.19s0-.06,0-.09c0-.1,0-.19,0-.28v-.15c0-.67-.13-1.3-.36-1.89l-1.41-3.52-3.24,1.3c-.15.03-.29.06-.42.11-.47.1-.94.21-1.43.32h-.03c-.23.06-.45.12-.67.17l-.89-2.67-.75,2.63-.08-.02c-.54-.12-1.09-.22-1.64-.29h-.02c-.53-.07-1.09-.13-1.66-.18l-4.73-.38.52,3.61h-.02v-.02h0s0-.01,0-.01c0,0,0,0-.01-.01h0s-.02-.02-.03-.02h0s0-.01-.02-.02h0v-.02h-.02v-.02s-.01.01-.03,0h-.02c-.36-.26-.03-.03-.39-.28-.35-.23-.07-.04-.36-.24-.46-.33-.93-.67-1.4-1.02l-.08-.06-.09-.06c-.68-.45-1.49-.74-2.38-.8-1.28-.12-2.55-.21-3.83-.3-1.23-.1-2.47-.2-3.73-.28h-.25c-.2-.01-.39,0-.57.02h-2.71l-.43,1.07-1.01-2.52-3.23,1.3c-.16.03-.3.06-.43.11-.47.1-.94.21-1.43.32h-.03c-.22.06-.45.12-.67.17l-.89-2.67-.75,2.63-.08-.02c-.54-.12-1.09-.22-1.64-.29h-.02c-.53-.07-1.09-.13-1.66-.18l-4.73-.38.05.35s-.05.02-.08.03c-.44.11-.88.23-1.32.34-.37.08-.74.16-1.11.24-.21-.02-.41-.04-.61-.06-.31-.04-.6-.08-.88-.12h-.06c-.19-.03-.38-.05-.59-.07-.17-.02-.33-.04-.48-.06-.18-.02-.37-.04-.57-.04-.39,0-.81.06-1.24.2h-1.54c-.16,0-.64,0-1.16.1l-2.36.43h-.11c-.22-.02-.44-.03-.67-.04v-1.73l-4.35.65c-.48.07-.95.16-1.43.25-.32.07-.63.14-.94.22-.48-.09-.96-.18-1.45-.26-.56-.11-1.13-.21-1.72-.32-.24-.04-.52-.09-.88-.09-.44,0-1.33.07-2.23.67l-.31.21-.27.27c-.58.58-.83,1.2-.9,1.38-.05.12-.09.24-.13.36-.11-.09-.22-.18-.33-.25l-.04-.02c-.57-.33-1.14-.64-1.72-.93s-1.17-.56-1.79-.82h-.02c-.58-.25-1.31-.46-2.14-.46h-.85c-.47,0-.93.04-1.38.1h-.04c-.4.07-.8.11-1.2.12h0c-.26,0-.55,0-.87-.05h-.06c-.51-.08-1.02-.14-1.53-.18h-.02c-.41-.04-.84-.08-1.27-.12-.13-.02-.25-.03-.36-.05-.13-.02-.26-.04-.4-.06l-2.49-.36-1.3,2.16c-.06.1-.11.21-.17.32-.14-.06-.29-.13-.44-.18l-.07-.02h-.07c-.74-.21-1.52-.46-2.35-.76l-.05-.02h-.05c-.52-.19-1.07-.3-1.63-.36-.06-.01-.11-.01-.17-.02-.03,0-.05,0-.08,0-.48-.04-.96-.06-1.45-.03h-.03c-.55.04-1.09.09-1.63.13-.48.03-.95.07-1.43.11-.04,0-.07,0-.13-.01-.16-.02-.32-.04-.48-.05-.01,0-.03,0-.05,0-.15-.05-.31-.09-.47-.13-.06,0-.12-.02-.18-.03v-1.75l-3.31.94-1.94-.48-.03,1.02-.12.03c-.33.1-.68.2-1.04.3-.24.06-.48.12-.72.19l-1.36-.3c-.22-.05-.52-.12-.88-.14-.15,0-1.1-.09-2.12.42-.11.06-.2.12-.3.18-.03.02-.06.03-.09.05-.3.2-.51.39-.63.51-.26.25-.43.5-.53.65-.1.14-.17.27-.24.39l-.45-1.8-1.97-.66c-.11-.04-.28-.09-.47-.13-.02,0-.05,0-.07,0-.25-.07-.52-.1-.8-.11h-.14c-.52-.03-1.04-.04-1.55-.04-.52-.02-1.04-.04-1.56-.08h-.28c-.11-.01-.2-.02-.27-.03-.23-.04-.49-.08-.75-.12l-.92-.17-.45-.09-.13-.03h-.14c-.24-.04-.6-.07-1.03-.04-.23.03-.63.09-1.07.26l-.24-.72-3.7,1.85c-.06.02-.12.05-.17.07-.49.15-.98.3-1.48.45-.56.15-1.12.31-1.67.48-.08.02-.17.04-.27.06h-.04c-.24.04-.48.09-.72.14-.19-.03-.38-.06-.59-.11h0c-.31-.06-.64-.12-.96-.17-.27-.05-.55-.1-.82-.17-.21-.05-.43-.12-.67-.2l-.62-.22h-3.43l-.95,2.38c-.09.21-.17.42-.25.63l-.05.1-.03.11c-.05.15-.11.32-.19.53h0c-.24.65-.39,1.5-.16,2.45.23,1.01.8,1.75,1.35,2.23.07.06.14.12.21.19.02.14.04.28.07.44.12.85.23,1.7.33,2.54.1.86.2,1.72.3,2.58,0,.05,0,.08,0,.09v.04l-.02.1c-.11.77-.25,1.52-.45,2.24-.19.75-.39,1.51-.58,2.27-.08.09-.15.18-.23.27-.19.2-.37.41-.56.62-.7.77-1.23,1.83-1.23,3.09,0,.14.01.28.02.42v.11l.03.11c.06.39.12.82.18,1.26l.52,3.87,3.73-.62h.28l.45-.12c.09-.02.17-.04.26-.06h.03l.03-.02c.5-.13,1-.25,1.5-.37.56-.13,1.13-.27,1.69-.42h.01c.2-.05.36-.08.5-.08.06,0,.15,0,.28.02.48.1.96.19,1.45.24l.22.02c.31,0,.62.04.93.07.48.08.96.15,1.41.23h.02c.49.08,1,.17,1.54.27.21.04.5.08.83.08.75,0,1.74-.19,2.65-.98.08-.06.14-.13.21-.2h.37l.29-.04,2.37-.37c.28-.04.51-.06.71-.06h.05c.17.07.35.12.54.17l.45.11h.16c.22.06.45.12.67.17l.11.03.11.02c.26.05.52.11.79.17h.04l.05.02c.19.04.45.1.75.12.19.02.87.07,1.65-.19l.18-.06c.07.09.15.19.24.27l.63.64.85.28c.96.32,1.79.2,2.19.12l.09-.02.09-.02c.13-.03.28-.08.43-.13h.01s.03,0,.05-.01l.11-.03.15-.05c.55-.19,1.08-.38,1.6-.56.32-.11.64-.22.96-.32.06,0,.11.03.16.03l.16.03h.17c.17.03.34.05.52.07.33.06.66.12.99.18l.11.02h.11c.32.05.64.09.96.12l1.52,2.29,2.75-1.83c.47-.18.99-.34,1.59-.47h.07c.66-.16,1.33-.27,2-.34h.1c.71-.09,1.41-.14,2.1-.16h.09c.81-.05,1.58-.08,2.3-.1.59,0,1.23-.1,1.87-.32h.01s.02-.01.04-.01c0,0,.03,0,.05-.02.36-.13.69-.29,1.02-.46l.57,2.83,4.14-1.66.15-.03.14-.05c.47-.16.93-.3,1.37-.44h.05l.05-.03c.23-.08.47-.13.72-.19.04.01.08.01.12.02l.17.03h.16c.18.02.36.04.53.07l.1.02h.1c.36.04.71.09,1.07.14.22.03.45.06.67.08.03.05.08.1.11.15h-.01c.36.52.71,1,1.06,1.46l2.15,2.87,2.98-1.99c.22-.14.48-.34.73-.6.34-.33.68-.67,1.01-1.01.28-.24.54-.49.81-.73.17-.07.35-.14.53-.19.39-.14.78-.27,1.16-.4.4-.14.73-.31.87-.37l.71-.36c.25.27.49.54.74.82h.02c.82.95,1.96,1.52,3.19,1.62h.29c.05,0,.1,0,.15,0s.1.01.16.02l.15.04.16.02c.52.07,1.03.11,1.55.14.05.01.11.01.16.01h0c.47.05.94.08,1.42.1h.16c1.11,0,2.09-.32,2.9-.75l.06-.03.07-.04c.55-.32,1.08-.68,1.59-1.07h0v-.02s.07-.07.11-.1c.22.18.44.36.66.55l.03.02.02.02c.92.75,2.11,1.2,3.45,1.1l.19-.02.2-.03c.11-.02.23-.04.35-.05.34-.03.68-.08,1.02-.14h.08l.07-.03c.39-.09.77-.17,1.14-.26l.07-.02.08-.02c.25-.07.49-.12.73-.16.33-.05.65-.14.98-.25.7.26,1.29.25,1.43.25.22,0,.4,0,.55-.03h.06s.07,0,.1,0c.44-.05.87-.1,1.28-.17h.08l.08-.03c.26-.05.53-.1.82-.13h.18l.13-.04c.16.05.32.11.49.15l.14.04.14.02c.17.02.35.06.53.1.23.06.46.11.69.17.28.07.56.14.86.21l3.29.76.59-1.65h.32c.29,0,.57-.01.86-.04.18,0,.34,0,.49,0h.29c.37-.04.74-.08,1.1-.14l.12-.02.13-.02h.05s.11,0,.11,0h.11c.24,0,.47,0,.71.04h.02c.25.03.49.04.73.06l.45,3.17,4.48-2.24c.13-.04.27-.09.41-.15.32-.11.62-.22.92-.32l.08-.03.09-.03c.24-.1.49-.2.74-.31.38.05.75.11,1.12.17h.08l.07.02c.5.06,1.01.13,1.51.19.28.03.56.06.84.06.9,0,1.69-.27,2.32-.63l.05-.03.05-.03c.36-.21.71-.42,1.07-.63.1.14.22.29.36.43l.44.43.55.28c.85.42,1.64.41,1.79.41.22,0,.41-.01.56-.03h.05s.08-.01.11-.01c.43-.05.86-.1,1.28-.17h.08l.08-.03c.25-.05.53-.1.81-.13h.19l.12-.04c.17.05.33.11.5.15l.14.04.14.02c.17.02.35.06.53.1.23.06.46.11.69.17.28.07.56.14.85.21l3.3.76.58-1.65h.33c.29,0,.57,0,.85-.04.19,0,.35,0,.5,0h.29c.37-.04.73-.08,1.1-.14l.12-.02.12-.02s.05-.01.06-.01h.22c.24,0,.47.01.71.04h.02c.46.05.91.09,1.35.11.3.02.61.04.92.08l.21.02h1.01l.54-.18,3.43-.85-.64-3.5v-.03Zm-131.04,3.95s.02,0,.03.01c0-.01-.02-.01-.03-.01Zm80.14.61s.05,0,.07.01c-.02,0-.05,0-.07-.01Zm32.48,0s.05,0,.07.01c-.02,0-.05,0-.07-.01Z"/>
    <path class="cls-5" d="m205.79,120c.11,1.32-.29,2.64-1.12,3.66-.98,1.19-2.41,1.88-3.95,1.88h-6.49c-1.6,0-3.06-.75-4-1.94-.95,1.19-2.41,1.94-4,1.94h-5.31c-.9,0-1.76-.23-2.51-.67-.75.44-1.62.69-2.55.69h-6.42c-1.03,0-2-.31-2.8-.84-.81.53-1.77.84-2.81.84h-15.97c-.35,0-.69-.03-1.02-.1-.33.07-.68.1-1.02.1h-15.12c-1.51,0-2.88-.67-3.82-1.72-.39.26-.79.49-1.21.7-2.01,1-4.38,1.51-7.03,1.51s-5.09-.53-7.06-1.57c-.88.68-1.98,1.06-3.11,1.06h-6.35c-.96,0-1.87-.27-2.65-.75-.78.47-1.69.75-2.66.75h-6.42c-2.72,0-4.95-2.15-5.09-4.83v-.15c0-.06,0-.11,0-.16-.01-.06-.01-.11-.01-.16-.01-.05-.01-.1-.02-.15,0-.06,0-.11-.01-.16v-.16s-.01-.11-.01-.16-.01-.1-.01-.16c0-.05,0-.1,0-.15s-.01-.11-.01-.16c-.01-.05-.01-.11-.01-.16,0-.06,0-.11-.02-.16,0-.05,0-.1-.01-.15,0-.06-.01-.11-.01-.16s0-.11,0-.16-.01-.1-.01-.15c-.01-.06-.01-.12-.01-.17v-.15c-.01-.05-.01-.11-.02-.16,0-.05,0-.1-.01-.16,0-.05,0-.1-.01-.16,0-.05,0-.1,0-.16v-.15c0-.06-.01-.11-.01-.16-.01-.05-.01-.1-.01-.16-.01-.05-.01-.1-.02-.15,0-.06,0-.11-.01-.17v-.15s-.01-.1-.01-.16c0-.14-.02-.29-.02-.43v-26.13c0-2.81,2.29-5.09,5.09-5.09h9.56c2.31,0,4.45.4,6.35,1.19.15.06.3.12.44.19.91-.86,2.14-1.38,3.49-1.38h6.42c.99,0,1.92.28,2.71.78.79-.5,1.72-.78,2.72-.78h5.34c.59,0,1.16.1,1.69.29.5-.17,1.04-.26,1.6-.26h6.42c2.71,0,4.94,2.14,5.08,4.83.01.04.01.09.01.14,0,.06,0,.11,0,.17,0,.05,0,.1.02.15,0,.05,0,.11,0,.16,0,.05,0,.1,0,.16v.15c.01.06.01.11.01.17,0,.05,0,.1,0,.15,0,.05,0,.1,0,.15.01.06.01.11.02.16v.16s.01.11.01.16,0,.1,0,.16c0,.05,0,.1,0,.15,0,.06.01.11.01.16,0,.05,0,.1,0,.16v.16c0,.05,0,.1.02.15,0,.06,0,.11,0,.16,0,.06,0,.11,0,.16s.01.1.01.16v.16c0,.05,0,.1,0,.15,0,.06,0,.11,0,.16.01.05.01.11.02.16,0,.05,0,.1.01.15,0,.06,0,.11,0,.17v.15s0,.1,0,.15c.01.15.02.3.02.44v11.68h.21v-16.41c0-2.81,2.29-5.09,5.1-5.09h33.74c.94,0,1.84.26,2.6.73.78-.49,1.7-.76,2.68-.76h8.42c2.4,0,4.5,1.71,4.98,4.07l5.42,26.12c.05.25.09.5.1.76,0,.05,0,.1,0,.15.01.05.01.11.01.16v.15c0,.06,0,.11.02.16,0,.05,0,.11.01.16,0,.05,0,.1,0,.15,0,.06.01.12.01.17v.15c0,.05,0,.11,0,.16,0,.05,0,.1,0,.16.01.05.01.1.02.15,0,.06,0,.11,0,.17v.15c0,.05.01.1.01.16,0,.05,0,.1,0,.15,0,.05,0,.11,0,.16.01.06.01.11.01.17,0,.05,0,.1,0,.15,0,.05,0,.1.02.16,0,.05,0,.1,0,.15,0,.06,0,.11.01.16,0,.05,0,.11,0,.16,0,.06,0,.11,0,.16.01.05.01.1.01.15v.16c0,.05,0,.11.02.16,0,.05,0,.11.01.16,0,.05,0,.1,0,.15,0,.06,0,.11,0,.16h.04Z"/>
    <path class="cls-13" d="m128.68,93.97c0-.05,0-.1-.01-.16,0-.05,0-.11,0-.16,0-.05,0-.11,0-.16,0-.05,0-.11-.01-.16,0-.05,0-.11,0-.16,0-.05,0-.1,0-.16,0-.05,0-.11-.01-.16,0-.05,0-.11,0-.16,0-.05,0-.11-.01-.16,0-.05,0-.11,0-.16,0-.05,0-.1,0-.16,0-.05,0-.11-.01-.16,0-.05,0-.11,0-.16,0-.05,0-.11,0-.16,0-.05,0-.11-.01-.16,0-.05,0-.1,0-.16,0-.05,0-.11,0-.16,0-.05,0-.11-.01-.16,0-.05,0-.11,0-.16,0-.05,0-.11-.01-.16,0-.05,0-.1,0-.16,0-.05,0-.11,0-.16,0-.05,0-.11-.01-.16,0-.05,0-.11,0-.16,0-.05,0-.11,0-.16,0-.05,0-.1-.01-.16,0-.05,0-.11,0-.16,0-.05,0-.11,0-.16,0-.7-.58-1.27-1.28-1.27h-5.35c-.71,0-1.28.57-1.28,1.28v17.78c0,2.72-.92,2.72-1.36,2.72-.35,0-.84,0-1.16-.56v-15.21s0-.11,0-.16c0-.05,0-.11-.01-.16,0-.05,0-.1,0-.16,0-.05,0-.11,0-.16,0-.05,0-.11-.01-.16,0-.05,0-.11,0-.16,0-.05,0-.11,0-.16,0-.05,0-.1-.01-.16,0-.05,0-.11,0-.16,0-.05,0-.11,0-.16,0-.05,0-.11-.01-.16,0-.05,0-.11,0-.16,0-.05,0-.1-.01-.16,0-.05,0-.11,0-.16,0-.05,0-.11,0-.16,0-.05,0-.11-.01-.16,0-.05,0-.11,0-.16,0-.05,0-.1,0-.16,0-.05,0-.11-.01-.16,0-.05,0-.11,0-.16,0-.05,0-.11,0-.16,0-.05,0-.11-.01-.16,0-.05,0-.1,0-.16,0-.05,0-.11-.01-.16,0-.05,0-.11,0-.16,0-.05,0-.11,0-.16,0-.05,0-.11-.01-.16,0-.05,0-.1,0-.16,0-.05,0-.11,0-.16,0-.05,0-.11-.01-.16,0-.7-.57-1.27-1.28-1.27h-6.42c-.71,0-1.28.57-1.28,1.28v3.47c-.15-.31-.31-.62-.5-.9-.87-1.33-2.09-2.32-3.61-2.95-1.44-.6-3.08-.9-4.89-.9h-9.56c-.71,0-1.28.57-1.28,1.28v26.12c0,.05,0,.11,0,.16,0,.05,0,.11.01.16,0,.05,0,.1.01.16,0,.05,0,.11,0,.16,0,.05,0,.11.01.16,0,.05,0,.11.01.16,0,.05,0,.11.01.16,0,.05,0,.1,0,.16,0,.05,0,.11.01.16,0,.05,0,.11.01.16,0,.05,0,.11.01.16,0,.05,0,.11,0,.16,0,.05,0,.1.01.16,0,.05,0,.11.01.16,0,.05,0,.11,0,.16,0,.05,0,.11.01.16,0,.05,0,.11.01.16,0,.05,0,.1.01.16,0,.05,0,.11,0,.16,0,.05,0,.11.01.16,0,.05,0,.11.01.16,0,.05,0,.11,0,.16,0,.05,0,.1.01.16,0,.05,0,.11.01.16,0,.05,0,.11.01.16,0,.05,0,.11,0,.16,0,.05,0,.11.01.16,0,.05,0,.1.01.16,0,.05,0,.11,0,.16,0,.05,0,.11.01.16,0,.7.57,1.27,1.28,1.27h6.42c.71,0,1.28-.57,1.28-1.28v-9.61l2.8,9.96c.15.55.66.93,1.23.93h6.35c.41,0,.8-.2,1.04-.53.19-.27.27-.6.23-.92,0-.05,0-.11-.01-.16,0-.05,0-.1-.01-.16,0-.05,0-.11-.01-.16,0-.05,0-.11,0-.16,0-.05,0-.11-.01-.16,0-.05,0-.1-.01-.16,0-.05,0-.1,0-.16,0-.05,0-.11-.01-.16,0-.05,0-.11-.01-.16,0-.05,0-.1-.01-.16,0-.05,0-.11,0-.16,0-.05,0-.1-.01-.16,0-.05,0-.11-.01-.16,0-.05,0-.11-.01-.16,0-.05,0-.11,0-.16,0-.05,0-.11-.01-.16,0-.05,0-.1-.01-.16,0-.05,0-.11,0-.16,0-.05,0-.11-.01-.16,0-.05,0-.11-.01-.16,0-.05,0-.11-.01-.16,0-.05,0-.1,0-.16,0-.05,0-.11-.01-.16,0-.05,0-.11-.01-.16,0-.05,0-.11,0-.16,0-.05,0-.11-.01-.16,0-.05,0-.1-.01-.16.14.51.32,1,.53,1.46.72,1.57,1.84,2.78,3.33,3.59,1.43.78,3.23,1.17,5.35,1.17s3.85-.37,5.34-1.11v-.03c1.55-.77,2.75-1.95,3.55-3.51.77-1.5,1.17-3.34,1.17-5.47v-17.66s0-.11,0-.16c0-.05,0-.11,0-.16h-.08Zm-21.86,13.73c.58-.45,1.09-.99,1.53-1.6.09-.12.18-.25.26-.38v1.67c0,.52.02,1.03.07,1.51,0,.05,0,.11.01.16,0,.05,0,.1.01.15,0,.05,0,.11.01.16,0,.05,0,.11,0,.16,0,.05,0,.11.01.16,0,.05,0,.11.01.16,0,.05,0,.1,0,.15,0,.05,0,.11.01.16,0,.05,0,.11.01.16,0,.05,0,.11.01.16,0,.05,0,.11,0,.16,0,.05,0,.1.01.15,0,.05,0,.11.01.16,0,.05,0,.11,0,.16,0,.05,0,.11.01.16,0,.05,0,.11.01.16,0,.05,0,.1.01.15,0,.05,0,.11,0,.16,0,.05,0,.11.01.16,0,.05,0,.11.01.16,0,.05,0,.11,0,.16,0,.05,0,.1.01.15,0,.05,0,.11.01.16,0,.05,0,.11.01.16,0,.05,0,.11,0,.16,0,.05,0,.11.01.16,0,.05,0,.1.01.15,0,.05,0,.11.01.16,0,.05,0,.11,0,.16.03.41.08.81.15,1.2l-2.33-6.97h.03Z"/>
    <path class="cls-13" d="m182.89,99.38v-5.06c0-.05,0-.11,0-.16,0-.05,0-.11,0-.16,0-.05,0-.1-.01-.16,0-.05,0-.11,0-.16,0-.05,0-.11-.01-.16,0-.05,0-.11,0-.16,0-.05,0-.11,0-.16,0-.05,0-.1-.01-.16,0-.05,0-.11,0-.16,0-.05,0-.11,0-.16,0-.05,0-.11-.01-.16,0-.05,0-.11,0-.16,0-.05,0-.1,0-.16,0-.05,0-.11-.01-.16,0-.05,0-.11,0-.16,0-.05,0-.11-.01-.16,0-.05,0-.11,0-.16,0-.05,0-.1,0-.16,0-.05,0-.11-.01-.16,0-.05,0-.11,0-.16,0-.05,0-.11,0-.16,0-.05,0-.11-.01-.16,0-.05,0-.1,0-.16,0-.05,0-.11,0-.16,0-.05,0-.11-.01-.16,0-.05,0-.11,0-.16,0-.05,0-.11,0-.16,0-.05,0-.1-.01-.16,0-.05,0-.11,0-.16,0-.05,0-.11-.01-.16,0-.7-.58-1.27-1.28-1.27h-33.74c-.71,0-1.28.57-1.28,1.28v20.47c-.21-.16-.47-.25-.76-.25h-7.08v-15.49c0-.05,0-.11,0-.16,0-.05,0-.11,0-.16,0-.05,0-.1-.01-.16,0-.05,0-.11,0-.16,0-.05,0-.11,0-.16,0-.05,0-.11-.01-.16,0-.05,0-.11,0-.16,0-.05,0-.1,0-.16,0-.05,0-.11-.01-.16,0-.05,0-.11,0-.16,0-.05,0-.11-.01-.16,0-.05,0-.11,0-.16,0-.05,0-.1,0-.16,0-.05,0-.11-.01-.16,0-.05,0-.11,0-.16,0-.05,0-.11,0-.16,0-.05,0-.11-.01-.16,0-.05,0-.1,0-.16,0-.05,0-.11,0-.16,0-.05,0-.11-.01-.16,0-.05,0-.11,0-.16,0-.05,0-.11-.01-.16,0-.05,0-.1,0-.16,0-.05,0-.11,0-.16,0-.05,0-.11-.01-.16,0-.05,0-.11,0-.16,0-.05,0-.11,0-.16,0-.05,0-.1-.01-.16,0-.05,0-.11,0-.16,0-.05,0-.11,0-.16,0-.7-.58-1.27-1.28-1.27h-6.42c-.71,0-1.28.57-1.28,1.28v26.12c0,.05,0,.11.01.16,0,.05,0,.11,0,.16,0,.05,0,.1,0,.16,0,.05,0,.11.01.16,0,.05,0,.11,0,.16,0,.05,0,.11,0,.16,0,.05,0,.11.01.16,0,.05,0,.1,0,.16,0,.05,0,.11.01.16,0,.05,0,.11,0,.16,0,.05,0,.11,0,.16,0,.05,0,.11.01.16,0,.05,0,.1,0,.16,0,.05,0,.11,0,.16,0,.05,0,.11.01.16,0,.05,0,.11,0,.16,0,.05,0,.11,0,.16,0,.05,0,.1.01.16,0,.05,0,.11,0,.16,0,.05,0,.11.01.16,0,.05,0,.11,0,.16,0,.05,0,.11,0,.16,0,.05,0,.1.01.16,0,.05,0,.11,0,.16,0,.05,0,.11,0,.16,0,.05,0,.11.01.16,0,.05,0,.11,0,.16,0,.05,0,.1,0,.16,0,.05,0,.11.01.16,0,.05,0,.11,0,.16,0,.7.58,1.27,1.28,1.27h15.12c.42,0,.79-.2,1.02-.51.23.31.6.51,1.02.51h15.98c.71,0,1.28-.57,1.28-1.28v-5.28s0-.11,0-.16c0-.05,0-.11,0-.16,0-.05,0-.1-.01-.16,0-.05,0-.11,0-.16,0-.05,0-.11,0-.16,0-.05,0-.11-.01-.16,0-.05,0-.11,0-.16,0-.05,0-.1-.01-.16,0-.05,0-.11,0-.16,0-.05,0-.11,0-.16,0-.05,0-.11-.01-.16,0-.05,0-.11,0-.16,0-.05,0-.1,0-.16,0-.05,0-.11-.01-.16,0-.05,0-.11,0-.16,0-.05,0-.11,0-.16,0-.05,0-.11-.01-.16,0-.05,0-.1,0-.16,0-.05,0-.11-.01-.16,0-.05,0-.11,0-.16,0-.05,0-.11,0-.16,0-.05,0-.11-.01-.16,0-.05,0-.1,0-.16,0-.05,0-.11,0-.16,0-.05,0-.11-.01-.16,0-.05,0-.11,0-.16,0-.05,0-.11,0-.16,0-.05,0-.1-.01-.16,0-.05,0-.11,0-.16,0-.05,0-.11,0-.16,0-.7-.58-1.27-1.28-1.27h-1.52v-4.48c0-.05,0-.11-.01-.16,0-.05,0-.11,0-.16,0-.05,0-.1,0-.16,0-.05,0-.11-.01-.16,0-.05,0-.11,0-.16,0-.05,0-.11,0-.16,0-.05,0-.11-.01-.16,0-.05,0-.1,0-.16,0-.05,0-.11-.01-.16,0-.05,0-.11,0-.16,0-.05,0-.11,0-.16,0-.05,0-.11-.01-.16,0-.05,0-.1,0-.16,0-.05,0-.11,0-.16,0-.05,0-.11-.01-.16,0-.05,0-.11,0-.16,0-.05,0-.11,0-.16,0-.05,0-.1-.01-.16,0-.05,0-.11,0-.16,0-.05,0-.11,0-.16,0-.05,0-.11-.01-.16,0-.05,0-.11,0-.16,0-.05,0-.1-.01-.16,0-.05,0-.11,0-.16,0-.05,0-.11,0-.16v-.06h6.13v15.05s0,.11.01.16c0,.05,0,.11,0,.16,0,.05,0,.1,0,.16,0,.05,0,.11.01.16,0,.05,0,.11,0,.16,0,.05,0,.11.01.16,0,.05,0,.11,0,.16,0,.05,0,.1,0,.16,0,.05,0,.11.01.16,0,.05,0,.11,0,.16,0,.05,0,.11,0,.16,0,.05,0,.11.01.16,0,.05,0,.1,0,.16,0,.05,0,.11,0,.16,0,.05,0,.11.01.16,0,.05,0,.11,0,.16,0,.05,0,.11.01.16,0,.05,0,.1,0,.16,0,.05,0,.11,0,.16,0,.05,0,.11.01.16,0,.05,0,.11,0,.16,0,.05,0,.11,0,.16,0,.05,0,.1.01.16,0,.05,0,.11,0,.16,0,.05,0,.11,0,.16,0,.05,0,.11.01.16,0,.05,0,.11,0,.16,0,.05,0,.1,0,.16,0,.05,0,.11.01.16,0,.05,0,.11,0,.16,0,.7.57,1.27,1.28,1.27h6.42c.71,0,1.28-.57,1.28-1.28v-19.81h4.46c.71,0,1.28-.57,1.28-1.28l-.08.14Z"/>
    <path class="cls-13" d="m201.99,120.25c0-.05,0-.11,0-.16,0-.05,0-.1-.01-.16,0-.05,0-.11,0-.16,0-.05,0-.11,0-.16,0-.05,0-.11-.01-.16,0-.05,0-.1,0-.16,0-.05,0-.1,0-.16,0-.05,0-.11-.01-.16,0-.05,0-.11,0-.16,0-.05,0-.1,0-.16,0-.05,0-.11-.01-.16,0-.05,0-.1,0-.16,0-.05,0-.11-.01-.16,0-.05,0-.11,0-.16,0-.05,0-.1,0-.16,0-.05,0-.1-.01-.16,0-.05,0-.1,0-.16,0-.05,0-.11,0-.16,0-.05,0-.11-.01-.16,0-.05,0-.1,0-.16,0-.05,0-.11,0-.16,0-.05,0-.1-.01-.16,0-.05,0-.11,0-.16,0-.05,0-.1-.01-.16,0-.05,0-.11,0-.16,0-.05,0-.1,0-.16,0-.05,0-.1-.01-.16,0-.05,0-.11,0-.16,0-.05,0-.11,0-.16,0-.08,0-.17-.02-.25l-5.42-26.12c-.12-.59-.65-1.02-1.25-1.02h-8.42c-.6,0-1.12.41-1.25,1l-5.96,26.12c-.03.15-.04.3-.02.45,0,.05,0,.11.01.16,0,.05,0,.1,0,.16,0,.05,0,.11.01.16,0,.05,0,.11,0,.16,0,.05,0,.11,0,.16,0,.05,0,.11.01.16,0,.05,0,.1,0,.16,0,.05,0,.11,0,.16,0,.05,0,.11.01.16,0,.05,0,.11,0,.16,0,.05,0,.11,0,.16,0,.05,0,.1.01.16,0,.05,0,.11,0,.16,0,.05,0,.11,0,.16,0,.05,0,.11.01.16,0,.05,0,.11,0,.16,0,.05,0,.1.01.16,0,.05,0,.11,0,.16,0,.05,0,.11,0,.16,0,.05,0,.11.01.16,0,.05,0,.11,0,.16,0,.05,0,.1,0,.16,0,.05,0,.11.01.16,0,.05,0,.11,0,.16,0,.05,0,.11,0,.16,0,.05,0,.11.01.16,0,.05,0,.1,0,.16,0,.05,0,.11.01.16,0,.05,0,.11,0,.16,0,.28.1.56.28.79.24.3.61.48,1,.48h5.31c.6,0,1.13-.43,1.25-1.02l.89-4.27h3.79l.8,4.24c.11.61.64,1.04,1.26,1.04h6.49c.39,0,.75-.17.99-.47.22-.27.32-.63.27-.98h0Z"/>
    <path class="cls-9" d="m90.04,115.96v-26.12h9.56c1.64,0,3.11.27,4.4.8,1.29.53,2.3,1.36,3.03,2.47.73,1.11,1.1,2.49,1.1,4.13,0,1.36-.39,2.58-1.17,3.66-.78,1.08-1.8,1.86-3.08,2.36l4.24,12.69h-6.35l-3.18-11.31h-2.14v11.31h-6.42.01Zm6.42-21.28v5.79h1.25c2.67,0,4-.95,4-2.85,0-1.23-.36-2.02-1.08-2.39-.72-.36-1.75-.55-3.09-.55h-1.08Z"/>
    <path class="cls-9" d="m127.07,89.84v17.83c0,1.93-.34,3.56-1.02,4.88-.68,1.32-1.68,2.3-2.99,2.95s-2.9.98-4.77.98-3.5-.34-4.74-1.02c-1.25-.68-2.17-1.68-2.77-2.99-.6-1.32-.9-2.92-.9-4.8v-17.83h6.42v18.12c0,2.45.93,3.67,2.78,3.67s2.64-1.33,2.64-4v-17.79h5.35Z"/>
    <path class="cls-9" d="m130.35,115.96v-26.12h6.42v21.5h8.7v4.62h-15.12Z"/>
    <path class="cls-9" d="m147.51,115.96v-26.12h15.98v5.06h-9.56v5.28h6.42v5.06h-6.42v5.43h9.56v5.29h-15.98Z"/>
    <path class="cls-9" d="m163.35,94.9v-5.06h17.91v5.06h-5.74v21.06h-6.42v-21.06h-5.75Z"/>
    <path class="cls-9" d="m180.57,115.96l5.96-26.12h8.42l5.42,26.12h-6.49l-1-5.29h-5.89l-1.11,5.29h-5.31Zm9.5-20.55l-2.18,10.64h4.1l-1.85-10.64h-.07Z"/>
    <path class="cls-6" d="m85.68,141c-.23-.04-.45-.09-.66-.13-.21-.04-.43-.08-.66-.12-.14-.02-.25.04-.31.18l-.37.95c-.05.1-.1.19-.16.28-.04.06-.12.12-.22.19-.27.14-.54.29-.82.43-.25.15-.51.31-.78.47-.23.13-.5.17-.81.13-.28-.04-.54-.07-.79-.09-.25-.03-.51-.06-.78-.1-.17-.04-.34-.06-.5-.06-.17-.02-.34-.05-.51-.1-.02-.08-.04-.15-.06-.21-.02-.09-.03-.16-.03-.22-.04-.4-.08-.79-.12-1.16-.05-.38-.09-.76-.13-1.13-.04-.38-.03-.74.03-1.1.06-.38.13-.74.19-1.1,0-.14.07-.24.22-.28.23-.04.46-.08.69-.12.25-.07.49-.11.72-.13.48-.04.81.18,1,.66.02.1.04.2.07.28.04.06.07.15.09.25.06.17.18.27.34.32.17.04.34.07.51.09.16,0,.34-.03.53-.09-.06-.36-.14-.7-.22-1.04-.08-.35-.18-.71-.28-1.06-.07-.19-.08-.43-.03-.73.1-.41.2-.84.31-1.28.1-.44.22-.88.34-1.32.11-.35.12-.56.03-.62-.06-.07-.23-.16-.5-.29h-.03c-.19-.08-.31-.11-.37-.09-.05.02-.12.11-.22.28-.23.44-.47.86-.72,1.26-.21.25-.47.42-.79.53-.29.08-.59.14-.91.19-.16.04-.32.03-.47-.03-.12-.09-.24-.18-.34-.29-.04-.04-.08-.1-.1-.19-.02-.1-.03-.19-.03-.28v-1.31c.02-.44.03-.88.03-1.32,0-.21.04-.39.1-.53.08-.17.18-.34.28-.5.04-.07.14-.14.28-.22.01,0,.03-.02.04-.03.14-.09.29-.16.46-.22.19-.09.37-.15.54-.19.16-.07.29-.09.37-.07.27.05.54.1.79.16.27.06.54.13.81.19.21.04.37.16.47.34.09.15.19.3.31.44.07.1.15.19.23.28.06.13.16.18.31.16.19-.04.37-.08.56-.12.07-.02.15-.05.22-.06.13-.04.26-.07.38-.1.06-.02.11-.08.15-.19,0-.14,0-.26-.03-.34-.27-1.4-.41-2.77-.44-4.11,0-.06-.01-.11-.03-.16-.02-.06-.04-.12-.06-.18-.08.04-.16.07-.22.09-.06,0-.12.02-.19.06-.54.17-1.09.34-1.66.5-.54.15-1.09.31-1.63.47-.27.09-.55.15-.84.19-.28.04-.56.1-.85.16-.17.04-.33.06-.47.06-.13,0-.26-.02-.41-.06-.29-.04-.59-.1-.91-.16-.29-.06-.58-.11-.88-.15-.35-.07-.71-.14-1.06-.22-.34-.09-.68-.19-1.04-.32h-.21c-.09.21-.17.42-.26.63-.06.19-.13.4-.22.63-.08.21-.04.38.13.53.17.15.33.29.5.44.17.12.34.25.5.37.14.11.22.23.27.37,0,.03,0,.07.02.1.04.28.08.55.12.82s.08.55.13.85c.12.87.24,1.75.34,2.63.11.88.21,1.75.31,2.63.05.42.04.8-.03,1.13-.12.92-.3,1.82-.53,2.7-.23.87-.46,1.76-.69,2.66-.04.23-.18.49-.41.78-.18.21-.37.43-.56.66-.19.21-.38.42-.57.63-.18.19-.27.4-.25.63.07.41.13.85.19,1.31.13-.02.23-.03.32-.03.08-.02.16-.04.25-.06.54-.15,1.08-.28,1.63-.41.54-.12,1.08-.26,1.63-.41.41-.1.82-.16,1.22-.18.4-.03.8,0,1.22.09.38.08.75.15,1.13.19.4.02.79.05,1.19.09.54.09,1.07.17,1.57.25.52.09,1.06.18,1.63.28.29.07.44-.06.44-.37,0-.09,0-.15-.04-.19-.04-.65-.03-1.27.04-1.88.08-.63.28-1.23.59-1.82.07-.06.1-.12.1-.19.1-.21.18-.4.25-.59.08-.21.16-.41.25-.6.1-.19.05-.3-.16-.34Zm22.67,3.57c-.06-.04-.14-.06-.22-.06-.06-.02-.13-.05-.19-.1-.29-.14-.59-.28-.91-.4-.29-.13-.59-.25-.91-.38-.29-.12-.47-.34-.53-.66-.15-.56-.29-1.13-.44-1.69-.15-.56-.29-1.12-.44-1.66-.02-.11-.03-.19-.03-.25v-.25c.04-.46.06-.91.06-1.35.03-.46.06-.91.1-1.35.01-.21.03-.42.05-.62.05-.65.1-1.28.17-1.92.08-.83.14-1.69.19-2.57.04-.54.16-1.06.37-1.57.04-.12.09-.24.13-.34.06-.13.11-.25.15-.38.09-.33.29-.57.6-.72.19-.1.36-.21.53-.31.19-.13.38-.24.57-.35.14-.06.22-.17.22-.34v-1.57c-.15.04-.33.09-.54.13-.35.1-.72.21-1.09.31-.36.08-.72.18-1.07.28-.35.13-.74.14-1.16.03l-1.69-.37c-.25-.06-.41-.07-.47-.03-.06.02-.15.14-.25.37-.02.04-.04.09-.04.13,0,.02-.01.05-.03.09l-1.12,4.05c-.17.58-.4,1.11-.69,1.59-.23.36-.46.7-.69,1.04-.2.31-.41.65-.63.98-.01.02-.02.03-.03.05-.04.07-.1.13-.16.19-.04.04-.08.1-.12.16-.07-.04-.14-.11-.22-.19-.09-.13-.19-.27-.28-.4-.24-.35-.47-.69-.69-1.04-.32-.5-.64-.99-.98-1.47-.06-.11-.11-.21-.15-.32-.02-.12-.06-.24-.1-.34-.14-.82-.29-1.63-.44-2.45-.12-.81-.26-1.62-.4-2.41,0-.11-.01-.19-.03-.25-.03-.09-.05-.17-.07-.25-.06-.02-.11-.03-.15-.03-.05-.03-.09-.04-.13-.04-.56-.02-1.13-.03-1.69-.03-.57-.02-1.13-.05-1.7-.09-.29,0-.57-.02-.84-.06-.25-.05-.52-.09-.82-.13l-1-.19-.47-.09c-.17-.02-.28,0-.35.03-.04.02-.08.1-.12.25-.06.23-.14.47-.22.72-.06.23-.13.47-.22.72.1.04.19.08.25.1.09.02.17.04.25.06.17.04.34.08.5.12.17.05.34.09.51.13.27.06.49.22.65.47.32.54.62,1.06.91,1.54.21.31.31.66.28,1.06l-.03,2.33-.06,4.07v.22c0,.06,0,.13-.03.22-.19,1.02-.39,2.04-.6,3.07-.21,1.02-.4,2.06-.59,3.1-.06.33-.26.53-.6.6-.19.04-.37.09-.56.15-.19.04-.38.09-.57.13-.21.06-.31.2-.31.41v.56c0,.19,0,.38.03.56,0,.17.1.25.28.25l2.42-.37c.44-.06.86-.1,1.25-.1.23,0,.44,0,.63.04.21.02.42.07.63.15.08.04.16.08.25.1.08,0,.17,0,.28.03.33.08.67.17,1,.25.34.06.67.13,1.01.22.18.04.31.05.37.03.06-.04.13-.15.19-.31.04-.19.08-.37.12-.54.07-.18.12-.37.16-.56-.23-.19-.47-.38-.72-.57-.23-.18-.47-.36-.72-.53-.23-.21-.38-.44-.44-.69-.33-1.06-.56-2.18-.69-3.35-.02-.17-.04-.34-.06-.5-.02-.17-.02-.34,0-.5.06-.69.12-1.38.19-2.07.08-.71.15-1.41.21-2.1.03-.13.05-.25.07-.38.02-.15.04-.3.06-.47.11.1.19.19.25.25.06.04.12.09.16.16.23.27.44.54.63.81.18.25.39.51.62.79.3.39.53.85.72,1.38.17.52.34,1.04.51,1.56.18.5.36,1.02.53,1.54.06.17.11.27.15.31.05.02.15.03.32.03h.91c.14,0,.23,0,.25-.03.04-.04.08-.13.12-.28.09-.27.16-.53.22-.78.07-.28.14-.56.22-.85.08-.25.19-.49.32-.72.12-.25.27-.49.43-.72.32-.46.63-.92.94-1.38.16-.22.31-.45.46-.67.16-.24.33-.47.49-.71.04-.04.08-.08.12-.13.04-.04.09-.09.16-.15v2.22c0,.63.01,1.25.03,1.85.02.48,0,.94-.06,1.38-.07.44-.15.89-.25,1.35-.11.48-.21.97-.32,1.47-.1.48-.19.96-.25,1.44-.06.46-.27.8-.63,1.01-.16.1-.34.22-.53.34-.17.13-.33.24-.5.35-.19.12-.28.29-.28.5l.09,1.13c.02.12.05.21.1.25.06.02.14.02.25,0,.08-.02.15-.04.22-.06.06-.03.13-.05.21-.07.55-.19,1.08-.37,1.6-.56.55-.19,1.09-.37,1.63-.53.15-.09.35-.11.6-.07.25.07.5.12.75.16.27.02.54.05.82.09.35.07.71.13,1.06.19.36.04.71.09,1.07.13.1.02.26.03.47.03.06-.29.12-.59.19-.88.08-.29.15-.58.21-.88,0-.08-.05-.17-.15-.28Zm16-5.11c-.03-.08-.05-.16-.08-.24-.12-.34-.24-.67-.36-1.01-.12-.42-.26-.84-.4-1.26-.02-.06-.06-.11-.1-.15-.02-.07-.04-.13-.06-.19-.08-.27-.27-.47-.56-.6-.21-.08-.42-.16-.63-.25-.19-.1-.4-.21-.63-.31.29-.34.59-.66.88-.97.29-.34.58-.68.88-1.04.21-.27.3-.58.28-.94-.02-.35-.04-.71-.06-1.06-.02-.36-.05-.71-.07-1.07,0-.12-.03-.23-.09-.31-.04-.11-.11-.21-.19-.32-.29-.33-.57-.65-.84-.97-.28-.33-.55-.67-.82-1-.19-.23-.42-.39-.69-.47-.86-.23-1.74-.51-2.66-.85-.32-.1-.63-.16-.94-.19-.32-.04-.63-.05-.94-.03-.55.05-1.09.09-1.64.13-.54.04-1.08.08-1.62.12-.19,0-.39,0-.6-.03-.19-.02-.38-.04-.56-.06-.17-.04-.34-.07-.51-.09-.14-.05-.3-.09-.47-.13-.14-.04-.29-.07-.44-.09-.12-.02-.27-.06-.43-.1-.02.65-.02,1.27,0,1.85.02.17.04.27.06.32.02.02.11.05.28.09.23.08.44.17.63.25.21.06.43.14.66.22.25.06.38.23.4.5.05.61.09,1.2.13,1.79.06.56.12,1.14.19,1.72.04.44.08.88.12,1.32.07.42.12.83.16,1.25.04.27.06.55.06.82,0,.25-.03.52-.09.81-.02.15-.05.31-.07.46-.02.12-.04.24-.06.36-.04.27-.08.55-.12.84-.09.67-.18,1.33-.28,1.98-.09.63-.2,1.27-.35,1.94-.04.17-.1.32-.19.44-.06.13-.16.24-.31.35-.13.1-.26.2-.41.31-.12.08-.25.18-.38.28-.14.11-.28.21-.4.31-.13.11-.26.2-.41.29-.35.23-.49.55-.41.97.04.27.09.54.13.81.06.25.12.51.19.76,0,.06.01.12.03.18.02.05.05.1.09.16.06-.04.12-.06.16-.06s.08-.01.12-.03c.69-.28,1.44-.49,2.23-.66.81-.19,1.64-.33,2.47-.41.84-.1,1.67-.17,2.48-.19.84-.04,1.63-.07,2.38-.09.3,0,.56-.04.79-.13.25-.08.49-.2.72-.34.12-.06.25-.13.38-.19.12-.08.24-.16.34-.22.29-.19.51-.32.66-.41.14-.08.25-.16.31-.25.08-.1.16-.24.22-.4.08-.17.2-.43.35-.79.16-.42.33-.84.5-1.28.16-.46.33-.9.5-1.32.19-.36.22-.73.09-1.13Zm-4.51,2.13c-.23.34-.46.67-.69,1.01-.23.31-.46.63-.69.97-.19.25-.41.33-.66.25-.27-.11-.53-.19-.78-.25-.25-.09-.51-.17-.79-.25-.18-.07-.3-.21-.34-.44-.06-.42-.14-.84-.22-1.26-.08-.41-.15-.83-.19-1.25-.06-.48-.11-.95-.16-1.41-.02-.35-.04-.71-.07-1.08,0-.11,0-.22-.02-.33-.02-.23-.04-.45-.06-.66,0-.23-.01-.46-.03-.69-.02-.44,0-.87.06-1.28.06-.44.15-.87.25-1.29.13-.58.24-1.17.34-1.75.11-.59.27-1.16.48-1.73.02-.08.05-.19.09-.31.06-.25.21-.41.44-.47.19-.04.36-.1.53-.16.19-.06.37-.11.53-.16.21-.06.4,0,.57.19.1.13.2.25.28.38.08.1.18.23.28.38l.47.78c.04.08.13.21.25.37.15.23.17.5.07.79-.17.4-.34.79-.51,1.19-.14.38-.3.75-.47,1.13-.12.29-.32.48-.59.56-.23.09-.46.17-.69.25-.23.07-.46.14-.69.22-.27.11-.44.19-.5.25-.04.07-.09.24-.13.54-.04.31-.04.62,0,.94,0,.14,0,.24.03.28.05.04.13.08.26.12l2.25.47c.17.03.27.08.31.16.07.06.12.17.16.31,0,.06.03.12.05.18.02.11.05.22.08.33.04.14.08.3.12.47.09.25.16.51.22.78.09.25.17.5.25.75.11.29.08.53-.09.72Zm22.28,3.36c-.08-.17-.18-.34-.28-.5-.13-.26-.22-.39-.28-.41-.07-.04-.24-.04-.54,0-.04,0-.07.01-.09.03-.29.06-.53-.03-.72-.28-.36-.44-.71-.88-1.07-1.32-.33-.44-.68-.88-1.03-1.32-.06-.1-.13-.19-.19-.28-.04-.1-.08-.21-.12-.31-.06-.16-.12-.32-.17-.47-.11-.3-.21-.59-.3-.88-.15-.46-.31-.91-.47-1.35-.07-.21-.12-.37-.16-.5-.02-.12-.02-.23,0-.31.02-.11.06-.21.12-.32.09-.1.19-.25.32-.43.4-.53.78-1.04,1.16-1.54.39-.52.76-1.06,1.1-1.6.16-.29.2-.57.12-.85-.12-.48-.25-1.04-.38-1.69-.1-.65-.21-1.2-.31-1.66-.04-.17-.09-.33-.16-.5-.06-.17-.12-.34-.18-.5-.07-.21-.2-.38-.41-.5-.5-.3-1.01-.57-1.51-.82s-1.02-.49-1.56-.72c-.25-.1-.48-.16-.69-.16h-.85c-.27,0-.55.02-.85.07-.54.08-1.08.13-1.63.15-.52.02-1.05,0-1.59-.09-.46-.06-.92-.12-1.38-.16-.44-.04-.89-.08-1.35-.12-.17-.02-.32-.05-.47-.07-.13-.02-.26-.04-.41-.06-.06.11-.09.21-.09.31,0,.09,0,.18.03.29.04.23.07.45.09.66.04.2.08.42.1.65.02.21.12.38.31.5.21.11.41.22.59.35.19.13.38.24.57.34.25.15.43.38.53.69.13.36.23.75.32,1.16.08.42.14.85.18,1.29.07.44.12.87.16,1.28.04.42.08.82.13,1.2.04.2.04.41,0,.62-.03.21-.05.43-.07.66-.06.59-.12,1.17-.18,1.76-.05.56-.11,1.15-.19,1.75-.03.22-.06.43-.08.65-.06.45-.12.89-.17,1.33-.09.62-.17,1.27-.25,1.94-.03.4-.2.68-.54.85-.16.1-.33.2-.5.31-.17.1-.33.21-.5.31-.19.13-.28.3-.28.5,0,.21-.01.42-.03.63v.63s.02.17.06.37c.1-.04.24-.08.41-.12.5-.17.99-.33,1.47-.47.5-.17,1.01-.3,1.54-.41.14-.04.26-.05.34-.03.27.04.53.08.78.13.28.02.55.05.82.09.42.04.84.09,1.25.16.42.06.84.11,1.26.15h.4v-1.44c0-.19-.09-.31-.28-.38-.21-.04-.42-.09-.62-.15-.19-.06-.4-.13-.63-.19-.11-.04-.2-.07-.28-.09-.07-.05-.12-.12-.16-.22-.17-.3-.34-.58-.5-.85-.15-.29-.3-.59-.47-.88-.09-.16-.13-.32-.13-.47.02-.35.04-.71.06-1.06,0-.13.02-.27.02-.4.02-.25.04-.49.05-.73.02-.17.04-.26.06-.28.04-.02.15-.05.31-.07.3-.04.57-.07.82-.09.25-.02.52-.05.81-.09.19-.03.31-.03.35,0,.04.02.11.11.22.28.22.37.44.76.66,1.14,0,.02.02.03.03.05.23.37.46.77.69,1.19.12.19.2.38.22.56.08.34.17.67.28,1.01.12.31.23.63.31.97.06.29.13.59.19.91.08.29.16.58.22.88.04.16.05.33.03.5,0,.14-.05.3-.16.47-.1.12-.18.26-.25.4-.06.13-.12.26-.19.38,0,.04-.04.09-.06.16,0,.06.02.11.06.15.34.48.66.93.98,1.35.06-.04.11-.08.15-.12l1.07-1.07c.38-.33.74-.67,1.1-1,.14-.15.32-.27.53-.38.38-.14.75-.28,1.13-.41.37-.12.74-.25,1.09-.37.09-.02.23-.09.44-.19-.1-.19-.19-.37-.28-.53Zm-7.83-10.47c-.17.19-.32.33-.44.44-.11.08-.21.14-.32.18-.1.05-.23.08-.37.1h-1.26c-.21,0-.32-.1-.34-.28v-.29c.02-.77.03-1.63.03-2.57.02-.94.04-1.78.06-2.54v-.12c.02-.06.04-.14.06-.22h1.23c.14,0,.29.01.44.03.14.02.29.03.44.03.25,0,.43.11.56.32.19.37.38.84.56,1.41.21.54.41,1,.6,1.38.06.1.07.19.03.28-.02.06-.05.14-.09.25-.3.56-.69,1.1-1.19,1.6Zm25.08-7.59c0-.14-.01-.3-.03-.47-.03-.04-.05-.08-.07-.12v-.16c-.23,0-.38,0-.47.03l-2.54.47c-.12.02-.25.03-.37.03h-.35c-.5-.04-1.01-.07-1.53-.09-.5-.02-1.01-.05-1.51-.1-.16,0-.28.03-.34.07-.04.02-.08.11-.1.28-.02.12-.03.26-.03.41v.37c-.02.25.07.43.28.54.13.08.24.17.35.28.12.08.26.15.41.22.1.08.17.17.22.28.04.08.07.2.09.34.06.55.13,1.1.19,1.67.06.56.13,1.11.22,1.66.04.35.08.72.12,1.09.07.36.1.71.1,1.07.02.42.02.84,0,1.25-.02.4-.06.81-.1,1.23-.07.73-.14,1.36-.2,1.9-.06.48-.1.89-.14,1.23-.09.71-.15,1.22-.19,1.54-.02.35-.15.68-.38.97-.08.1-.15.21-.22.31-.06.09-.13.18-.21.28-.05.11-.11.2-.19.29-.07.06-.15.07-.25.03-.19-.04-.38-.04-.57,0-.19.04-.38.04-.56,0-.09-.02-.24-.08-.47-.16-.21-.1-.33-.2-.35-.28,0-.02-.04-.09-.12-.19-.07-.1-.14-.21-.22-.31-.09-.13-.16-.24-.22-.35-.07-.1-.1-.18-.1-.22-.08-.75-.09-1.49-.03-2.22,0-.17.02-.34.04-.52.03-.6.04-1.25.02-1.96,0-.19-.03-.38-.09-.56-.04-.19-.06-.37-.06-.54.02-.48.03-.95.03-1.41.02-.46.05-.93.09-1.41.05-.58.1-1.17.16-1.75.06-.59.12-1.17.16-1.76.04-.35.14-.65.31-.88.13-.2.24-.4.35-.59.1-.21.23-.42.37-.63.17-.23.28-.45.35-.66.08-.23.09-.49.03-.78-.04-.13-.07-.25-.07-.38.03-.14.04-.28.04-.4,0-.05,0-.09-.04-.13v-.19c-.41.07-.83.14-1.25.22-.42.09-.83.18-1.25.28-.25.03-.51.03-.79,0-.58-.1-1.17-.2-1.75-.31-.57-.1-1.14-.21-1.73-.31-.16-.04-.28-.04-.34,0-.04.04-.08.14-.13.31-.06.23-.12.46-.18.69-.05.23-.09.46-.13.69.04.04.08.07.13.09.33.17.63.37.9.6.28.23.56.46.85.69.15.15.22.27.22.38.02.14.04.29.06.43.03.13.03.27.03.41.03.67.05,1.33.07,1.98.04.62.09,1.26.15,1.91.05.27.08.53.1.78.02.25.01.51-.03.79-.11.56-.15,1.12-.13,1.69.02.56,0,1.13-.03,1.69-.04.43-.08.87-.15,1.3v.08c-.04.44-.08.89-.12,1.35-.02.08-.03.17-.03.25,0,.06-.01.12-.03.19l-.07.91c-.02.1-.03.25-.03.43-.02.23.05.48.22.73.15.16.28.33.41.5.12.14.25.3.37.47.32.35.63.71.95,1.06.31.34.62.68.94,1.04.16.21.38.32.65.34.19,0,.38,0,.57.03s.37.06.56.1c.46.06.92.1,1.38.12.46.05.93.08,1.41.1.36,0,.73-.11,1.13-.32.4-.23.78-.49,1.16-.78.4-.31.76-.64,1.1-.97.33-.34.61-.62.84-.85.09-.06.15-.15.19-.28.13-.38.24-.75.35-1.13.1-.4.1-.8,0-1.22v-.28c-.05-.5-.08-1.01-.1-1.51,0-.49-.02-.99-.05-1.48,0-.03,0-.05,0-.08-.08-1.07-.15-2.14-.19-3.2-.04-1.09-.08-2.16-.12-3.23-.02-.34,0-.69.06-1.07.06-.33.13-.65.22-.97.1-.33.18-.67.22-1,.08-.52.34-.91.78-1.16.04-.02.06-.03.06-.03.02-.02.06-.04.1-.07.1-.08.22-.16.34-.25.13-.08.24-.17.35-.28-.02-.17-.03-.32-.03-.47h0Zm10.27-.66c-.1-.18-.21-.37-.31-.56-.06-.15-.18-.2-.34-.16-.09,0-.19.02-.32.07-.48.12-.96.25-1.44.37-.48.11-.96.21-1.44.31-.23.07-.47.08-.72.04-.32-.05-.63-.08-.94-.1-.32-.04-.62-.08-.91-.12-.17-.02-.35-.04-.54-.07-.18-.02-.36-.04-.53-.06-.17-.04-.28.03-.34.22l-.29.66c-.06.17-.09.28-.09.34.02.05.11.12.25.22.29.3.59.58.88.85.29.25.58.51.88.78.27.25.43.59.47,1.01.02.44.05.87.09,1.31.04.44.1.89.16,1.35l.25,1.85c.16.84.25,1.66.25,2.48,0,.25-.03.49-.05.74-.04.63-.1,1.26-.17,1.89-.08.86-.19,1.72-.31,2.6-.05.21-.11.37-.19.47-.11.15-.23.29-.38.44-.12.13-.25.26-.37.41-.13.14-.3.19-.51.12-.12-.04-.26-.07-.4-.09-.13-.02-.27-.05-.41-.09-.19-.07-.38-.11-.57-.13-.18-.04-.36-.12-.53-.22-.17-.13-.3-.28-.41-.47-.08-.19-.18-.37-.31-.53-.02-.02-.03-.03-.03-.03,0-.03,0-.05-.03-.07-.15-.21-.25-.41-.31-.62-.07-.23-.05-.47.06-.72.02-.05.03-.07.03-.07.04-.16,0-.26-.13-.28-.1-.04-.21-.04-.31,0-.08.06-.16.13-.22.19-.04.06-.1.12-.19.19-.21.18-.37.39-.5.62-.15.21-.22.46-.22.76.02.39.02.78,0,1.16-.02.37-.04.76-.06,1.16,0,.16.07.31.22.43.42.36.82.7,1.22,1.04.42.33.84.68,1.26,1.03.23.19.48.27.75.25.23-.04.46-.07.69-.09.23-.02.46-.05.69-.09.37-.09.74-.17,1.09-.25.38-.11.76-.19,1.13-.26.36-.04.62-.18.79-.43.23-.32.45-.63.68-.94.26-.34.5-.65.73-.95.37-.46.51-1.02.4-1.69-.12-.92-.24-1.83-.34-2.73-.1-.78-.2-1.57-.33-2.38-.01-.11-.03-.23-.05-.34-.06-.48-.09-.94-.09-1.38.02-.46.04-.93.06-1.41.02-.55.05-1.09.09-1.63.05-.55.07-1.09.07-1.63,0-.38.03-.73.09-1.07.09-.35.22-.7.41-1.03.04-.06.07-.13.09-.19.05-.06.09-.13.13-.19.15-.21.29-.37.44-.5.25-.21.5-.41.75-.6.27-.18.55-.39.85-.62-.11-.19-.21-.38-.32-.57Zm15.87,18.87c-.02-.23-.05-.46-.09-.69-.05-.16-.14-.25-.29-.25-.12-.04-.25-.07-.37-.09-.13-.02-.24-.04-.35-.06-.37-.07-.64-.25-.78-.57-.23-.42-.46-.83-.69-1.25-.21-.42-.43-.84-.66-1.26-.15-.27-.29-.54-.44-.81-.12-.27-.25-.55-.37-.85-.07-.12-.13-.24-.19-.34-.04-.13-.09-.25-.13-.38-.21-1-.45-1.98-.72-2.94-.03-.11-.05-.21-.08-.32-.23-.88-.46-1.77-.7-2.66-.06-.21-.1-.43-.1-.66.02-.61.05-1.22.07-1.85.02-.63.04-1.24.06-1.85,0-.31.14-.56.41-.75.16-.11.32-.2.47-.28.14-.11.3-.21.47-.32.12-.08.18-.16.18-.25.03-.19.04-.37.04-.56.02-.21,0-.42-.1-.63-.1.04-.2.06-.28.06-.06,0-.13.02-.22.07-.54.12-1.1.25-1.66.37-.54.13-1.09.26-1.63.41-.17.04-.32.06-.47.06s-.3-.02-.47-.06l-1.41-.28c-.46-.11-.93-.19-1.41-.25-.46-.07-.95-.12-1.47-.16.02.15.03.27.03.38.02.08.04.17.06.28.02.25.13.43.34.53.15.11.29.22.41.35.13.1.27.21.44.31.21.13.37.27.47.44.13.17.2.38.22.63.02.12.04.25.06.37.04.11.08.22.1.35.02.1.03.22.03.34.02.11,0,.21-.03.32l-.76,2.82c-.06.21-.12.41-.18.62-.07.19-.12.39-.16.6l-.64,2.51-.49,1.91c-.29,1.25-.74,2.41-1.35,3.48-.23.39-.44.79-.62,1.19-.19.4-.39.79-.6,1.19-.12.29-.34.49-.66.6-.1.04-.21.07-.31.09-.11.02-.21.05-.31.09-.13.05-.2.1-.22.16-.05.04-.06.13-.03.25l.09.66c.02.15.05.24.09.28.04.02.14.02.29,0,.41-.04.81-.09,1.19-.16.39-.08.8-.14,1.22-.18.21-.05.41-.08.59-.1.21-.04.42-.03.63.03.27.11.54.19.82.25.27.05.54.1.81.16.25.06.5.13.75.19s.52.13.79.19c.12-.36.22-.69.28-1.01.06-.33-.07-.65-.41-.97-.04-.04-.08-.09-.12-.15-.05-.09-.09-.15-.13-.19-.23-.27-.39-.55-.47-.82s-.07-.58.03-.94c.06-.27.11-.53.13-.78.02-.27.05-.55.09-.85.02-.12.08-.23.19-.31.12-.08.26-.15.41-.19.16-.06.32-.1.47-.12.16-.03.3-.04.4-.04.34.03.66.05.98.07.33,0,.66.02,1,.06.23.02.36.06.41.13.04.04.07.17.09.4.02.4.03.8.03,1.19.02.38.04.78.07,1.2.04.22,0,.41-.13.56-.06.08-.13.17-.19.25-.04.06-.09.14-.15.22-.19.21-.3.42-.32.63,0,.21.03.42.1.65.2,0,.4.02.59.04.19,0,.38,0,.57-.04.27-.02.53-.03.78-.03.27-.02.54-.05.81-.09.38-.08.75-.12,1.1-.09.38,0,.75.02,1.13.06.4.04.78.07,1.16.09.38.02.75.05,1.13.1h.19c.06-.02.13-.05.21-.07-.04-.23-.08-.46-.12-.69Zm-8.59-7.21h-.72c-.25-.02-.48-.05-.69-.09.12-.6.25-1.2.4-1.79.06-.27.13-.54.2-.81.25-.86.5-1.73.75-2.6l.06.18c.02.07.03.13.03.19.11.82.26,1.63.47,2.45.03.11.06.22.08.33.18.68.34,1.37.49,2.05-.25.06-.61.09-1.07.09Zm24.45-3.07c-.05-.16-.09-.32-.13-.47-.02-.14-.05-.3-.09-.47-.13-.54-.28-1.07-.45-1.6-.06-.23-.13-.46-.21-.69-.23-.77-.5-1.52-.82-2.25-.1-.3-.28-.52-.53-.66-.52-.36-1.04-.71-1.57-1.07-.5-.35-1-.72-1.5-1.09-.19-.13-.39-.19-.6-.19-1.25-.11-2.5-.2-3.76-.28-1.23-.11-2.47-.2-3.73-.29-.1,0-.22.01-.34.03h-.38c-.04.11-.07.19-.09.26-.02.06-.03.13-.03.21-.02.17-.04.33-.04.48v.47c0,.16.02.27.04.31.02.04.1.09.25.16.18.06.37.13.56.21.19.07.37.14.53.22.21.07.32.2.32.41.06.55.12,1.08.19,1.6.06.52.11,1.05.15,1.57.04.44.09.88.13,1.31.04.28.08.55.12.83.02.16.04.33.07.49.06.5.09,1,.09,1.51s-.05,1.01-.16,1.53c-.23,1.05-.47,2.08-.72,3.1-.25,1.01-.51,2.02-.78,3.05-.07.22-.18.41-.35.56-.14.12-.28.26-.4.41-.13.12-.26.25-.41.37-.04.07-.08.13-.13.19-.04.04-.05.12-.03.22.04.27.06.54.06.82.02.27.06.55.1.84.08-.04.15-.06.22-.06.08-.02.15-.05.22-.09.39-.15.78-.29,1.16-.41.37-.15.76-.31,1.16-.47.33-.13.73-.16,1.19-.1.5.07,1,.14,1.5.22.5.07,1.01.13,1.51.19.12.02.25.03.37.03.15,0,.3-.04.44-.12.65-.4,1.3-.79,1.95-1.16.64-.38,1.3-.77,1.97-1.16.42-.25.7-.61.85-1.07.35-1.06.7-2.13,1.03-3.2.36-1.08.71-2.17,1.07-3.26.16-.54.16-1.02,0-1.44Zm-3.83,1.29c-.23.85-.46,1.71-.69,2.57-.23.83-.46,1.69-.69,2.57-.12.37-.36.64-.72.78-.35.11-.72.23-1.09.38-.38.14-.75.28-1.1.41-.06.04-.24.08-.54.12-.27.02-.45.05-.56.09-.04-.35-.06-.74-.06-1.15.02-.42.02-.8,0-1.13-.04-1.01-.04-1.89,0-2.67.06-.79.07-1.63.03-2.51-.04-.35-.04-.68,0-1,.04-.33.08-.67.12-1,0-.06.02-.12.02-.18.1-.62.14-1.2.14-1.73.02-.59.09-1.25.19-1.98.02-.08.03-.2.03-.34.02-.17.04-.29.06-.35.09,0,.25.03.51.1.25.04.39.07.43.09l1.98.66c.25.06.41.23.47.5.24.81.47,1.62.7,2.43.01.03.01.05.02.08.25.81.5,1.64.75,2.47.09.28.09.54,0,.79Zm20.45,8.99c-.02-.23-.05-.46-.1-.69-.04-.16-.13-.25-.28-.25-.12-.04-.25-.07-.37-.09-.13-.02-.25-.04-.35-.06-.38-.07-.64-.25-.78-.57-.23-.42-.46-.83-.69-1.25-.21-.42-.43-.84-.66-1.26-.15-.27-.29-.54-.44-.81-.13-.27-.25-.55-.38-.85-.06-.12-.12-.24-.18-.34-.05-.13-.09-.25-.13-.38-.21-1-.45-1.98-.72-2.94-.25-.99-.51-1.98-.78-2.98-.07-.21-.1-.43-.1-.66,0-.1,0-.21,0-.31.02-.51.04-1.02.06-1.54.02-.63.04-1.24.06-1.85,0-.31.13-.56.41-.75.16-.11.32-.2.47-.28.14-.11.3-.21.47-.32.12-.08.18-.16.18-.25.02-.19.04-.37.04-.56.02-.21-.02-.42-.1-.63-.1.04-.2.06-.28.06-.06,0-.14.02-.22.07-.54.12-1.1.25-1.66.37-.54.13-1.09.26-1.63.41-.17.04-.33.06-.47.06-.15,0-.3-.02-.47-.06l-1.41-.28c-.46-.11-.93-.19-1.41-.25-.46-.07-.95-.12-1.48-.16.02.15.03.27.03.38.03.08.05.17.07.28.02.25.13.43.34.53.15.11.28.22.41.35.12.1.27.21.44.31.21.13.36.27.47.44.12.17.2.38.22.63.02.12.04.25.06.37.04.11.07.22.1.35.02.1.03.22.03.34.02.11.01.21-.03.32l-.48,1.78-.28,1.04c-.06.21-.12.41-.19.62-.06.19-.11.39-.15.6l-1.13,4.42c-.29,1.25-.74,2.41-1.35,3.48-.23.39-.44.79-.62,1.19-.19.4-.39.79-.6,1.19-.13.29-.35.49-.66.6-.1.04-.21.07-.31.09-.11.02-.21.05-.32.09-.12.05-.19.1-.22.16-.04.04-.05.13-.03.25l.1.66c.02.15.05.24.09.28.04.02.14.02.28,0,.42-.04.82-.09,1.19-.16.4-.08.81-.14,1.23-.18.21-.05.4-.08.59-.1.21-.04.42-.03.63.03.27.11.54.19.81.25.28.05.55.1.82.16.25.06.5.13.75.19s.51.13.79.19c.12-.36.22-.69.28-1.01.06-.33-.08-.65-.41-.97-.04-.04-.08-.09-.12-.15-.05-.09-.09-.15-.13-.19-.23-.27-.39-.55-.47-.82-.09-.27-.07-.58.03-.94.06-.27.1-.53.13-.78.02-.27.05-.55.09-.85.02-.12.08-.23.19-.31.12-.08.26-.15.41-.19.16-.06.32-.1.47-.12.16-.03.3-.04.4-.04.34.03.66.05.97.07.34,0,.67.02,1.01.06.23.02.36.06.4.13.05.04.08.17.1.4.02.4.03.8.03,1.19.02.38.04.78.06,1.2.04.22,0,.41-.12.56-.07.08-.13.17-.19.25-.04.06-.09.14-.16.22-.19.21-.29.42-.31.63,0,.21.03.42.09.65.21,0,.41.02.6.04.19,0,.37,0,.56-.04.28-.02.54-.03.79-.03.27-.02.54-.05.81-.09.38-.08.74-.12,1.1-.09.37,0,.75.02,1.13.06.4.04.78.07,1.16.09.37.02.75.05,1.13.1h.18c.07-.02.14-.05.22-.07-.04-.23-.08-.46-.12-.69Zm-8.59-7.21h-.72c-.25-.02-.48-.05-.69-.09.17-.88.36-1.74.59-2.6.26-.86.51-1.73.76-2.6.02.06.04.12.06.18.02.07.03.13.03.19.11.82.26,1.63.47,2.45.21.79.4,1.59.56,2.38-.25.06-.6.09-1.06.09Z"/>
    <path class="cls-10" d="m82.74,131.15c-.08-.09-.16-.18-.23-.28.43.08.87.17,1.32.26-.07,0-.15.04-.22.06-.19.04-.37.08-.56.12-.15.02-.25-.03-.31-.16Z"/>
    <path class="cls-10" d="m85.84,141.33c-.09.19-.17.39-.25.6-.07.19-.15.38-.25.59,0,.07-.03.13-.1.19-.31.59-.51,1.19-.59,1.82-.07.61-.08,1.23-.04,1.88.03.04.04.1.04.19,0,.31-.15.44-.44.37-.57-.1-1.11-.19-1.63-.28-.5-.08-1.03-.16-1.57-.25-.4-.04-.79-.07-1.19-.09-.38-.04-.75-.11-1.13-.19-.42-.08-.82-.12-1.22-.09-.4.02-.81.08-1.22.18-.55.15-1.09.29-1.63.41-.55.13-1.09.26-1.63.41-.09.02-.17.04-.25.06-.09,0-.19.01-.32.03-.06-.46-.12-.9-.19-1.31-.02-.23.07-.44.25-.63.19-.21.38-.42.57-.63.19-.23.38-.45.56-.66.23-.29.37-.55.41-.78.23-.9.46-1.79.69-2.66.23-.88.41-1.78.53-2.7.07-.33.08-.71.03-1.13-.1-.88-.2-1.75-.31-2.63-.1-.88-.22-1.76-.34-2.63-.05-.3-.09-.58-.13-.85-.04-.27-.08-.54-.12-.82-.01-.03-.01-.07-.02-.1,1.43.14,2.91.34,4.41.58,0,0-.03.02-.04.03-.14.08-.24.15-.28.22-.1.16-.2.33-.28.5-.06.14-.1.32-.1.53,0,.44-.01.88-.03,1.32v1.31c0,.09,0,.18.03.28.02.09.06.15.1.19.1.11.22.2.34.29.15.06.31.07.47.03.32-.05.62-.11.91-.19.32-.11.58-.28.79-.53.25-.4.49-.82.72-1.26.1-.17.17-.26.22-.28.06-.02.18,0,.37.09h.03c.27.13.44.22.5.29.09.06.08.27-.03.62-.12.44-.24.88-.34,1.32-.11.44-.21.87-.31,1.28-.05.3-.04.54.03.73.1.35.2.71.28,1.06.08.34.16.68.22,1.04-.19.06-.37.09-.53.09-.17-.02-.34-.05-.51-.09-.16-.05-.28-.15-.34-.32-.02-.1-.05-.19-.09-.25-.03-.08-.05-.18-.07-.28-.19-.48-.52-.7-1-.66-.23.02-.47.06-.72.13-.23.04-.46.08-.69.12-.15.04-.22.14-.22.28-.06.36-.13.72-.19,1.1-.06.36-.07.72-.03,1.1.04.37.08.75.13,1.13.04.37.08.76.12,1.16,0,.06.01.13.03.22.02.06.04.13.06.21.17.05.34.08.51.1.16,0,.33.02.5.06.27.04.53.07.78.1.25.02.51.05.79.09.31.04.58,0,.81-.13.27-.16.53-.32.78-.47.28-.14.55-.29.82-.43.1-.07.18-.13.22-.19.06-.09.11-.18.16-.28l.37-.95c.06-.14.17-.2.31-.18.23.04.45.08.66.12.21.04.43.09.66.13.21.04.26.15.16.34Z"/>
    <path class="cls-10" d="m99.42,137.77c-.13.23-.24.47-.32.72-.08.29-.15.57-.22.85-.06.25-.13.51-.22.78-.04.15-.08.24-.12.28-.02.02-.11.03-.25.03h-.91c-.17,0-.27,0-.32-.03-.04-.04-.09-.14-.15-.31-.17-.52-.35-1.04-.53-1.54-.17-.52-.34-1.04-.51-1.56-.19-.53-.42-.99-.72-1.38-.23-.28-.44-.54-.62-.79-.19-.27-.4-.54-.63-.81-.04-.07-.1-.12-.16-.16-.06-.06-.14-.15-.25-.25-.02.17-.04.32-.06.47-.02.13-.04.25-.07.38-.06.69-.13,1.39-.21,2.1-.07.69-.13,1.38-.19,2.07-.02.16-.02.33,0,.5.02.16.04.33.06.5.13,1.17.36,2.29.69,3.35.06.25.21.48.44.69.25.17.49.35.72.53.25.19.49.38.72.57-.04.19-.09.38-.16.56-.04.17-.08.35-.12.54-.06.16-.13.27-.19.31-.06.02-.19,0-.37-.03-.34-.09-.67-.16-1.01-.22-.33-.08-.67-.17-1-.25-.11-.02-.2-.03-.28-.03-.09-.02-.17-.06-.25-.1-.21-.08-.42-.13-.63-.15-.19-.03-.4-.04-.63-.04-.39,0-.81.04-1.25.1l-2.42.37c-.18,0-.28-.08-.28-.25-.02-.18-.03-.37-.03-.56v-.56c0-.21.1-.35.31-.41.19-.04.38-.09.57-.13.19-.06.37-.11.56-.15.34-.07.54-.27.6-.6.19-1.04.38-2.08.59-3.1.21-1.03.41-2.05.6-3.07.02-.09.03-.16.03-.22v-.22l.06-4.07c2.36.53,4.78,1.09,7.25,1.66.27.06.54.13.81.19.96.22,1.93.44,2.9.67-.15.22-.3.45-.46.67-.31.46-.62.92-.94,1.38-.16.23-.31.47-.43.72Z"/>
    <path class="cls-10" d="m108.36,144.57c.1.11.15.2.15.28-.06.3-.13.59-.21.88-.07.29-.13.59-.19.88-.21,0-.37,0-.47-.03-.36-.04-.71-.09-1.07-.13-.35-.06-.71-.12-1.06-.19-.28-.04-.55-.07-.82-.09-.25-.04-.5-.09-.75-.16-.25-.04-.45-.02-.6.07-.54.16-1.08.34-1.63.53-.52.19-1.05.37-1.6.56-.08.02-.15.04-.21.07-.07.02-.14.04-.22.06-.11.02-.19.02-.25,0-.05-.04-.08-.13-.1-.25l-.09-1.13c0-.21.09-.38.28-.5.17-.11.33-.22.5-.35.19-.12.37-.24.53-.34.36-.21.57-.55.63-1.01.06-.48.15-.96.25-1.44.11-.5.21-.99.32-1.47.1-.46.18-.91.25-1.35.06-.44.08-.9.06-1.38-.02-.6-.03-1.22-.03-1.85v-1.06c.95.21,1.91.42,2.87.63-.02.2-.04.41-.05.62-.04.44-.07.89-.1,1.35,0,.44-.02.89-.06,1.35v.25c0,.06.01.14.03.25.15.54.29,1.1.44,1.66.15.56.29,1.13.44,1.69.06.32.24.54.53.66.32.13.62.25.91.38.32.12.62.26.91.4.06.05.13.08.19.1.08,0,.16.02.22.06Z"/>
    <path class="cls-10" d="m124.26,140.59c-.17.42-.34.86-.5,1.32-.17.44-.34.86-.5,1.28-.15.36-.27.62-.35.79-.06.16-.14.3-.22.4-.06.09-.17.17-.31.25-.15.09-.37.22-.66.41-.1.06-.22.14-.34.22-.13.06-.26.13-.38.19-.23.14-.47.26-.72.34-.23.09-.49.13-.79.13-.75.02-1.54.05-2.38.09-.81.02-1.64.09-2.48.19-.83.08-1.66.22-2.47.41-.79.17-1.54.38-2.23.66-.04.02-.08.03-.12.03s-.1.02-.16.06c-.04-.06-.07-.11-.09-.16-.02-.06-.03-.12-.03-.18-.07-.25-.13-.51-.19-.76-.04-.27-.09-.54-.13-.81-.08-.42.06-.74.41-.97.15-.09.28-.18.41-.29.12-.1.26-.2.4-.31.13-.1.26-.2.38-.28.15-.11.28-.21.41-.31.15-.11.25-.22.31-.35.09-.12.15-.27.19-.44.15-.67.26-1.31.35-1.94.1-.65.19-1.31.28-1.98.04-.29.08-.57.12-.84.02-.12.04-.24.06-.36.9.17,1.81.34,2.72.5.03.37.05.73.07,1.08.05.46.1.93.16,1.41.04.42.11.84.19,1.25.08.42.16.84.22,1.26.04.23.16.37.34.44.28.08.54.16.79.25.25.06.51.14.78.25.25.08.47,0,.66-.25.23-.34.46-.66.69-.97.23-.34.46-.67.69-1.01.17-.19.2-.43.09-.72-.08-.25-.16-.5-.25-.75-.06-.27-.13-.53-.22-.78-.04-.17-.08-.33-.12-.47-.03-.11-.06-.22-.08-.33,1.66.26,3.33.49,5.01.68.03.08.05.16.08.24.13.4.1.77-.09,1.13Z"/>
    <path class="cls-10" d="m134.25,144.56v1.44h-.4c-.42-.04-.84-.09-1.26-.15-.41-.07-.83-.12-1.25-.16-.27-.04-.54-.07-.82-.09-.25-.05-.51-.09-.78-.13-.08-.02-.2,0-.34.03-.53.11-1.04.24-1.54.41-.48.14-.97.3-1.47.47-.17.04-.31.08-.41.12-.04-.2-.06-.33-.06-.37v-.63c.02-.21.03-.42.03-.63s.09-.37.28-.5c.17-.1.33-.21.5-.31.17-.11.34-.21.5-.31.34-.17.51-.45.54-.85.08-.67.16-1.32.25-1.94.05-.44.11-.88.17-1.33,1.02.1,2.04.17,3.07.24,0,.13-.01.27-.02.4-.02.35-.04.71-.06,1.06,0,.15.04.31.13.47.17.29.32.59.47.88.16.27.33.55.5.85.04.1.09.17.16.22.08.02.17.05.28.09.23.06.44.13.63.19.2.06.41.11.62.15.19.07.28.19.28.38Z"/>
    <path class="cls-10" d="m142.12,144.94c.09.16.18.34.28.53-.21.1-.35.17-.44.19-.35.12-.72.25-1.09.37-.38.13-.75.27-1.13.41-.21.11-.39.23-.53.38-.36.33-.72.67-1.1,1-.36.36-.71.71-1.07,1.07-.04.04-.09.08-.15.12-.32-.42-.64-.87-.98-1.35-.04-.04-.06-.09-.06-.15.02-.07.05-.12.06-.16.07-.12.13-.25.19-.38.07-.14.15-.28.25-.4.11-.17.16-.33.16-.47.02-.17.01-.34-.03-.5-.06-.3-.14-.59-.22-.88-.06-.32-.13-.62-.19-.91-.08-.34-.19-.66-.31-.97-.11-.34-.2-.67-.28-1.01-.02-.18-.1-.37-.22-.56-.23-.42-.46-.82-.69-1.19,0-.02-.02-.03-.03-.05.85.03,1.7.04,2.56.05h.53c.05.15.11.31.17.47.04.1.08.21.12.31.06.09.13.18.19.28.35.44.7.88,1.03,1.32.36.44.71.88,1.07,1.32.19.25.43.34.72.28.02-.02.05-.03.09-.03.3-.04.47-.04.54,0,.06.02.15.15.28.41.1.16.2.33.28.5Z"/>
    <path class="cls-10" d="m157.74,143.19c-.11.38-.22.75-.35,1.13-.04.13-.1.22-.19.28-.23.23-.51.51-.84.85-.34.33-.7.66-1.1.97-.38.29-.76.55-1.16.78-.4.21-.77.32-1.13.32-.48-.02-.95-.05-1.41-.1-.46-.02-.92-.06-1.38-.12-.19-.04-.37-.08-.56-.1s-.38-.03-.57-.03c-.27-.02-.49-.13-.65-.34-.32-.36-.63-.7-.94-1.04-.32-.35-.63-.71-.95-1.06-.12-.17-.25-.33-.37-.47-.13-.17-.26-.34-.41-.5-.17-.25-.24-.5-.22-.73,0-.18,0-.33.03-.43l.07-.91c.02-.07.03-.13.03-.19,0-.08,0-.17.03-.25.04-.46.08-.91.12-1.35v-.08c1.23-.08,2.48-.17,3.73-.28-.02.18-.03.35-.04.52-.06.73-.05,1.47.03,2.22,0,.04.03.12.1.22.06.11.13.22.22.35.08.1.15.21.22.31.08.1.12.17.12.19.02.08.14.18.35.28.23.08.38.14.47.16.18.04.37.04.56,0,.19-.04.38-.04.57,0,.1.04.18.03.25-.03.08-.09.14-.18.19-.29.08-.1.15-.19.21-.28.07-.1.14-.21.22-.31.23-.29.36-.62.38-.97.04-.32.1-.83.19-1.54.04-.34.08-.75.14-1.23,1.29-.14,2.58-.29,3.88-.44.03.49.05.99.05,1.48.02.5.05,1.01.1,1.51v.28c.1.42.1.82,0,1.22h0Z"/>
    <path class="cls-10" d="m167.79,142.49c.11.67-.03,1.23-.4,1.69-.23.3-.47.61-.73.95-.23.31-.45.62-.68.94-.17.25-.43.39-.79.43-.37.07-.75.15-1.13.26-.35.08-.72.16-1.09.25-.23.04-.46.07-.69.09-.23.02-.46.05-.69.09-.27.02-.52-.06-.75-.25-.42-.35-.84-.7-1.26-1.03-.4-.34-.8-.68-1.22-1.04-.15-.12-.22-.27-.22-.43.02-.4.04-.79.06-1.16.02-.38.02-.77,0-1.16,0-.3.07-.55.22-.76.13-.23.29-.44.5-.62.09-.07.15-.13.19-.19.06-.06.14-.13.22-.19.1-.04.21-.04.31,0,.13.02.17.12.13.28,0,0-.01.02-.03.07-.11.25-.13.49-.06.72.06.21.16.41.31.62.02.02.03.04.03.07l.03.03c.13.16.23.34.31.53.11.19.24.34.41.47.17.1.35.18.53.22.19.02.38.06.57.13.14.04.28.07.41.09.14.02.28.05.4.09.21.07.38.02.51-.12.12-.15.25-.28.37-.41.15-.15.27-.29.38-.44.08-.1.14-.26.19-.47.12-.88.23-1.74.31-2.6.07-.63.13-1.26.17-1.89.84-.12,1.67-.25,2.51-.37.13.81.23,1.6.33,2.38.1.9.22,1.81.34,2.73Z"/>
    <path class="cls-10" d="m185.63,145.78c-.08.02-.15.05-.21.07h-.19c-.38-.05-.75-.08-1.13-.1-.38-.02-.76-.05-1.16-.09-.38-.04-.75-.06-1.13-.06-.35-.03-.72,0-1.1.09-.27.04-.54.07-.81.09-.25,0-.51.01-.78.03-.19.03-.38.04-.57.04-.19-.02-.39-.04-.59-.04-.07-.23-.1-.44-.1-.65.02-.21.13-.42.32-.63.06-.08.11-.16.15-.22.06-.08.13-.17.19-.25.13-.15.17-.34.13-.56-.03-.42-.05-.82-.07-1.2,0-.39-.01-.79-.03-1.19-.02-.23-.05-.36-.09-.4-.05-.07-.18-.11-.41-.13-.34-.04-.67-.06-1-.06-.32-.02-.64-.04-.98-.07-.1,0-.24.01-.4.04-.15.02-.31.06-.47.12-.15.04-.29.11-.41.19-.11.08-.17.19-.19.31-.04.3-.07.58-.09.85-.02.25-.07.51-.13.78-.1.36-.11.67-.03.94.08.27.24.55.47.82.04.04.08.1.13.19.04.06.08.11.12.15.34.32.47.64.41.97-.06.32-.16.65-.28,1.01-.27-.06-.54-.13-.79-.19s-.5-.13-.75-.19c-.27-.06-.54-.11-.81-.16-.28-.06-.55-.14-.82-.25-.21-.06-.42-.07-.63-.03-.18.02-.38.05-.59.1-.42.04-.83.1-1.22.18-.38.07-.78.12-1.19.16-.15.02-.25.02-.29,0-.04-.04-.07-.13-.09-.28l-.09-.66c-.03-.12-.02-.21.03-.25.02-.06.09-.11.22-.16.1-.04.2-.07.31-.09.1-.02.21-.05.31-.09.32-.11.54-.31.66-.6.21-.4.41-.79.6-1.19.18-.4.39-.8.62-1.19.61-1.07,1.06-2.23,1.35-3.48l.49-1.91c1.14-.18,2.27-.36,3.39-.54-.15.59-.28,1.19-.4,1.79.21.04.44.07.69.09h.72c.46,0,.82-.03,1.07-.09-.15-.68-.31-1.37-.49-2.05.96-.15,1.91-.31,2.85-.46.03.11.05.21.08.32.27.96.51,1.94.72,2.94.04.13.09.25.13.38.06.1.12.22.19.34.12.3.25.58.37.85.15.27.29.54.44.81.23.42.45.84.66,1.26.23.42.46.83.69,1.25.14.32.41.5.78.57.11.02.22.04.35.06.12.02.25.05.37.09.15,0,.24.09.29.25.04.23.07.46.09.69.04.23.08.46.12.69Z"/>
    <path class="cls-10" d="m201.37,136.25c-.36,1.09-.71,2.18-1.07,3.26-.33,1.07-.68,2.14-1.03,3.2-.15.46-.43.82-.85,1.07-.67.39-1.33.78-1.97,1.16-.65.37-1.3.76-1.95,1.16-.14.08-.29.12-.44.12-.12,0-.25,0-.37-.03-.5-.06-1.01-.12-1.51-.19-.5-.08-1-.15-1.5-.22-.46-.06-.86-.03-1.19.1-.4.16-.79.32-1.16.47-.38.12-.77.26-1.16.41-.07.04-.14.07-.22.09-.07,0-.14.02-.22.06-.04-.29-.08-.57-.1-.84,0-.28-.02-.55-.06-.82-.02-.1-.01-.18.03-.22.05-.06.09-.12.13-.19.15-.12.28-.25.41-.37.12-.15.26-.29.4-.41.17-.15.28-.34.35-.56.27-1.03.53-2.04.78-3.05.25-1.02.49-2.05.72-3.1.11-.52.16-1.03.16-1.53s-.03-1.01-.09-1.51c-.03-.16-.05-.33-.07-.49.97-.15,1.93-.29,2.87-.44,0,.06,0,.12-.02.18-.04.33-.08.67-.12,1-.04.32-.04.65,0,1,.04.88.03,1.72-.03,2.51-.04.78-.04,1.66,0,2.67.02.33.02.71,0,1.13,0,.41.02.8.06,1.15.11-.04.29-.07.56-.09.3-.04.48-.08.54-.12.35-.13.72-.27,1.1-.41.37-.15.74-.27,1.09-.38.36-.14.6-.41.72-.78.23-.88.46-1.74.69-2.57.23-.86.46-1.72.69-2.57.09-.25.09-.51,0-.79-.25-.83-.5-1.66-.75-2.47,0-.03,0-.05-.02-.08,1.35-.19,2.66-.35,3.93-.49.17.53.32,1.06.45,1.6.04.17.07.33.09.47.04.15.08.31.13.47.16.42.16.9,0,1.44Z"/>
    <path class="cls-10" d="m217.99,145.1c-.02-.23-.05-.46-.1-.69-.04-.16-.13-.25-.28-.25-.12-.04-.25-.07-.37-.09-.13-.02-.25-.04-.35-.06-.38-.07-.64-.25-.78-.57-.23-.42-.46-.83-.69-1.25-.21-.42-.43-.84-.66-1.26-.15-.27-.29-.54-.44-.81-.13-.27-.25-.55-.38-.85-.06-.12-.12-.24-.18-.34-.05-.13-.09-.25-.13-.38-.21-1-.45-1.98-.72-2.94-.25-.99-.51-1.98-.78-2.98-.07-.21-.1-.43-.1-.66,0-.1,0-.21,0-.31-1.76-.07-3.69-.02-5.78.12l-.28,1.04c-.06.21-.12.41-.19.62-.06.19-.11.39-.15.6l-1.13,4.42c-.29,1.25-.74,2.41-1.35,3.48-.23.39-.44.79-.62,1.19-.19.4-.39.79-.6,1.19-.13.29-.35.49-.66.6-.1.04-.21.07-.31.09-.11.02-.21.05-.32.09-.12.05-.19.1-.22.16-.04.04-.05.13-.03.25l.1.66c.02.15.05.24.09.28.04.02.14.02.28,0,.42-.04.82-.09,1.19-.16.4-.08.81-.14,1.23-.18.21-.05.4-.08.59-.1.21-.04.42-.03.63.03.27.11.54.19.81.25.28.05.55.1.82.16.25.06.5.13.75.19.25.06.51.13.79.19.12-.36.22-.69.28-1.01.06-.33-.08-.65-.41-.97-.04-.04-.08-.09-.12-.15-.05-.09-.09-.15-.13-.19-.23-.27-.39-.55-.47-.82-.09-.27-.07-.58.03-.94.06-.27.1-.53.13-.78.02-.27.05-.55.09-.85.02-.12.08-.23.19-.31.12-.08.26-.15.41-.19.16-.06.32-.1.47-.12.16-.03.3-.04.4-.04.34.03.66.05.97.07.34,0,.67.02,1.01.06.23.02.36.06.4.13.05.04.08.17.1.4.02.4.03.8.03,1.19.02.38.04.78.06,1.2.04.22,0,.41-.12.56-.07.08-.13.17-.19.25-.04.06-.09.14-.16.22-.19.21-.29.42-.31.63,0,.21.03.42.09.65.21,0,.41.02.6.04.19,0,.37,0,.56-.04.28-.02.54-.03.79-.03.27-.02.54-.05.81-.09.38-.08.74-.12,1.1-.09.37,0,.75.02,1.13.06.4.04.78.07,1.16.09.37.02.75.05,1.13.1h.18c.07-.02.14-.05.22-.07-.04-.23-.08-.46-.12-.69Zm-8.59-7.21h-.72c-.25-.02-.48-.05-.69-.09.17-.88.36-1.74.59-2.6.26-.86.51-1.73.76-2.6.02.06.04.12.06.18.02.07.03.13.03.19.11.82.26,1.63.47,2.45.21.79.4,1.59.56,2.38-.25.06-.6.09-1.06.09Z"/>
  </g>
</svg>