<svg version="1.2" xmlns="http://www.w3.org/2000/svg" viewBox="0 0 320 224" width="320" height="224">
	<title>Fantasma 1-svg</title>
	<defs>
		<clipPath clipPathUnits="userSpaceOnUse" id="cp1">
			<path d="m-0.51-2h322.25v228h-322.25z"/>
		</clipPath>
		<linearGradient id="g1" x2="1" gradientUnits="userSpaceOnUse" gradientTransform="matrix(.51,-0.18,.27,.764,286.28,143.13)">
			<stop offset="0" stop-color="#ffffff"/>
			<stop offset="1" stop-color="#ffffff"/>
		</linearGradient>
	</defs>
	<style>
		.s0 { fill: #431c54 } 
		.s1 { fill: #ceff5a } 
		.s2 { fill: #ff9800 } 
		.s3 { fill: #faf4e5 } 
		.s4 { fill: #000000 } 
		.s5 { fill: #ea6c17 } 
		.s6 { fill: #ffffff } 
		.s7 { fill: #aaff00 } 
		.s8 { fill: #d8fe74 } 
		.s9 { fill: #a2dc1c } 
		.s10 { fill: #ff9800;stroke: #000000;stroke-width: 4.3 } 
		.s11 { fill: none;stroke: #000000;stroke-width: .9 } 
		.s12 { fill: #ea6c19 } 
		.s13 { fill: url(#g1);stroke: #000000;stroke-width: 2.7 } 
		.s14 { fill: #d1d5dc } 
	</style>
	<g id="Clip-Path" clip-path="url(#cp1)">
		<g>
			<path class="s0" d="m-0.5-2h322.2v228h-322.2z"/>
			<path class="s1" d="m89.1 100c1-1 2.1-1.7 3.2-2.1-1.1-0.4-2.2-1.1-3.2-2.1-1-1-1.7-2.1-2.1-3.2-0.4 1.1-1.1 2.2-2.1 3.2-1 1-2.1 1.7-3.2 2.1 1.1 0.4 2.2 1.1 3.2 2.1 1 1 1.8 2.1 2.1 3.2 0.4-1.1 1.1-2.2 2.1-3.2z"/>
			<path class="s2" d="m245.6 124.7c1-1 2.1-1.7 3.2-2.1-1.1-0.4-2.2-1.1-3.2-2.1-1-1-1.7-2.1-2.1-3.2-0.4 1.1-1.1 2.2-2.1 3.2-1 1-2.1 1.7-3.2 2.1 1.1 0.4 2.3 1.1 3.3 2.1 1 1 1.7 2.1 2.1 3.2 0.3-1.1 1-2.2 2-3.2z"/>
			<path class="s3" d="m229 101.1l0.7-3 2.8 0.9-2.1-2.1 2.1-2.2-2.8 0.9-0.7-3-0.7 3-2.9-0.9 2.2 2.2-2.2 2.1 2.9-0.9z"/>
			<path class="s3" d="m75 128.4l0.7-3.1 2.9 0.9-2.2-2.1 2.2-2.1-2.9 0.9-0.7-3.1-0.7 3.1-2.8-0.9 2.2 2.1-2.2 2.1 2.8-0.9z"/>
			<path fill-rule="evenodd" class="s4" d="m115.6 151.4h0.1c0 0-0.1 0-0.1 0z"/>
			<path fill-rule="evenodd" class="s4" d="m236.4 145.7l0.7 3.5-3.5 0.9-0.5 0.2h-1l-0.2-0.1q-0.5 0-0.9 0-0.7-0.1-1.4-0.2-0.4 0-0.7 0h-0.2c-0.1 0-0.1 0-0.1 0l-0.2 0.1q-0.6 0-1.1 0.1c-0.2 0-0.6 0-0.8 0q-0.5 0-0.9 0h-0.3l-0.6 1.7-3.3-0.8q-0.4-0.1-0.8-0.2-0.4-0.1-0.7-0.2-0.3 0-0.6-0.1h-0.1-0.1q-0.3-0.1-0.5-0.2l-0.2 0.1h-0.2q-0.4 0-0.8 0.1h-0.1q-0.7 0.1-1.3 0.2c0 0-0.1 0-0.1 0h-0.1q-0.2 0-0.5 0c-0.2 0-1 0-1.8-0.4l-0.6-0.3-0.4-0.4q-0.2-0.2-0.4-0.4-0.5 0.3-1 0.6l-0.1 0.1c-0.7 0.3-1.5 0.6-2.4 0.6q-0.4 0-0.8-0.1-0.8 0-1.5-0.1l-0.1-0.1h-0.1q-0.5-0.1-1.1-0.1-0.4 0.1-0.7 0.3h-0.1-0.1q-0.4 0.2-0.9 0.4-0.2 0.1-0.4 0.1l-4.5 2.2-0.4-3.1q-0.4 0-0.8-0.1-0.4 0-0.7 0h-0.3-0.1-0.1q-0.6 0.1-1.1 0.2c-0.2 0-0.6 0-0.8 0q-0.4 0-0.9 0h-0.3l-0.6 1.7-3.3-0.8q-0.4-0.1-0.8-0.2-0.4-0.1-0.7-0.2-0.3-0.1-0.6-0.1h-0.1-0.1q-0.3-0.1-0.5-0.2h-0.1-0.2q-0.5 0.1-0.8 0.2h-0.1-0.1q-0.6 0.1-1.3 0.2c0 0-0.2 0-0.2 0q-0.2 0-0.5 0c-0.1 0-0.7 0-1.4-0.3q-0.5 0.2-1 0.3-0.4 0.1-0.7 0.2h-0.1-0.1q-0.5 0.1-1.1 0.3h-0.1-0.1q-0.5 0.1-1 0.1-0.2 0-0.4 0.1h-0.1-0.2c-1.4 0.1-2.6-0.3-3.5-1.1q-0.4-0.3-0.7-0.6c0 0.1-0.1 0.1-0.1 0.1v0.1q-0.8 0.5-1.6 1l-0.1 0.1c-0.8 0.4-1.8 0.7-2.9 0.7h-0.2q-0.7 0-1.4-0.1-0.1 0.1-0.2 0-0.7 0-1.5-0.1h-0.2l-0.1-0.1q-0.1 0-0.2 0c0 0-0.4 0-0.4 0-1.3-0.1-2.4-0.7-3.2-1.6q-0.4-0.4-0.8-0.8l-0.7 0.3c-0.1 0.1-0.5 0.3-0.9 0.4q-0.5 0.2-1.1 0.4-0.3 0.1-0.6 0.2-0.3 0.4-0.8 0.7-0.5 0.5-1 1-0.4 0.4-0.7 0.6l-3 2-2.1-2.8q-0.6-0.7-1.1-1.5 0-0.1-0.1-0.2-0.3 0-0.7 0-0.5-0.1-1-0.2h-0.1-0.1q-0.3 0-0.6-0.1h-0.1-0.2q0 0-0.1 0-0.4 0.1-0.7 0.2h-0.1q-0.7 0.2-1.4 0.4l-0.1 0.1h-0.2l-4.1 1.7-0.6-2.8q-0.5 0.2-1 0.4-0.1 0-0.1 0 0 0 0 0-1 0.4-1.9 0.4-1.1 0-2.3 0.1h-0.1q-1 0-2.1 0.1h-0.1q-1 0.1-2 0.4-0.9 0.2-1.6 0.4l-2.8 1.9-1.5-2.3q-0.5-0.1-1-0.1h-0.1c-0.3-0.1-0.8-0.2-1.1-0.2q-0.2-0.1-0.5-0.1h-0.2-0.1q-0.1-0.1-0.2-0.1-0.5 0.2-1 0.3-0.7 0.3-1.6 0.6l-0.1 0.1h-0.1q-0.1 0-0.1 0-0.2 0.1-0.4 0.1l-0.2 0.1c-0.4 0-1.2 0.2-2.2-0.2l-0.8-0.2-0.7-0.7q-0.1-0.1-0.2-0.2h-0.2c-0.8 0.3-1.4 0.2-1.6 0.2-0.3 0-0.6-0.1-0.8-0.1h-0.1q-0.4-0.1-0.8-0.2h-0.1l-0.1-0.1q-0.3 0-0.6-0.1h-0.2l-0.5-0.1q-0.2-0.1-0.5-0.2-0.3 0-0.8 0.1l-2.3 0.3-0.3 0.1h-0.4q-0.1 0.1-0.2 0.2c-0.9 0.8-1.9 0.9-2.6 0.9q-0.5 0-0.9 0-0.8-0.2-1.5-0.3-0.7-0.1-1.4-0.2-0.5-0.1-1-0.1h-0.2q-0.7-0.1-1.4-0.3-0.2 0-0.3 0-0.2 0-0.5 0.1-0.9 0.2-1.7 0.4-0.8 0.2-1.5 0.4h-0.1q-0.1 0-0.2 0.1l-0.5 0.1h-0.3l-3.7 0.6-0.5-3.9q-0.1-0.6-0.2-1.2v-0.1-0.1q0-0.3-0.1-0.5c0-1.2 0.6-2.3 1.3-3.1q0.3-0.3 0.5-0.6 0.2-0.1 0.3-0.2 0.3-1.2 0.5-2.3 0.3-1.1 0.5-2.3v-0.1c0 0 0 0 0-0.1q-0.1-1.3-0.3-2.6-0.1-1.2-0.3-2.5-0.1-0.2-0.1-0.4-0.1-0.1-0.2-0.2c-0.5-0.5-1.1-1.3-1.3-2.3-0.3-0.9-0.1-1.8 0.1-2.4q0.1-0.3 0.2-0.5v-0.2l0.1-0.1q0.1-0.3 0.2-0.6l1-2.4h3.4l0.6 0.3q0.4 0.1 0.7 0.2 0.4 0.1 0.8 0.1 0.5 0.1 1 0.2 0.3 0.1 0.6 0.1 0.3-0.1 0.7-0.1 0.2-0.1 0.3-0.1 0.8-0.2 1.7-0.5 0.7-0.2 1.5-0.4 0-0.1 0.1-0.1l3.7-1.8 0.3 0.7c0.4-0.2 0.8-0.3 1-0.3 0.5 0 0.8 0 1.1 0.1h0.1 0.1l0.5 0.1 0.9 0.1q0.4 0.1 0.8 0.2 0.1 0 0.2 0h0.3q0.8 0.1 1.6 0.1 0.7 0 1.5 0h0.2q0.4 0 0.8 0.1 0 0 0 0 0.3 0.1 0.5 0.2l2 0.6 0.4 1.8q0.1-0.2 0.3-0.4c0.1-0.1 0.2-0.4 0.5-0.6q0.2-0.2 0.6-0.5 0.1-0.1 0.1-0.1 0.2-0.1 0.3-0.2c1-0.5 2-0.4 2.1-0.4 0.4 0 0.7 0.1 0.9 0.2l1.4 0.3q0.3-0.1 0.7-0.2 0.5-0.2 1-0.3l0.1-0.1 0.1-1 1.9 0.5 3.3-0.9v1.7q0.1 0 0.2 0 0.3 0.1 0.5 0.2 0 0 0 0 0.3 0 0.5 0 0.1 0 0.1 0 0.8 0 1.5-0.1 0.8 0 1.6-0.1 0.8 0 1.5 0 0 0 0.1 0 0 0 0.1 0 0.9 0.1 1.7 0.4h0.1q1.2 0.5 2.3 0.8h0.1q0.3 0.1 0.5 0.2 0.1-0.2 0.2-0.3l1.3-2.2 2.4 0.4q0.3 0 0.4 0 0.2 0 0.4 0.1 0.7 0 1.3 0.1 0.8 0 1.5 0.2h0.1q0.5 0 0.9 0 0.6 0 1.2-0.1 0.7-0.1 1.4-0.1h0.8c0.9 0 1.6 0.2 2.2 0.5q0.9 0.3 1.8 0.8 0.8 0.4 1.7 0.9 0.2 0.1 0.4 0.3 0-0.2 0.1-0.4c0.1-0.2 0.3-0.8 0.9-1.4l0.3-0.2 0.3-0.2c0.9-0.6 1.8-0.7 2.2-0.7 0.4 0 0.6 0 0.9 0.1q0.9 0.1 1.7 0.3 0.7 0.1 1.5 0.3 0.4-0.2 0.9-0.3 0.7-0.1 1.4-0.2l4.4-0.7v1.8q0.3 0 0.6 0h0.2l2.3-0.4c0.5-0.1 1-0.1 1.2-0.1h1.5q0.7-0.2 1.3-0.2 0.3 0 0.5 0 0.3 0 0.5 0.1 0.3 0 0.6 0h0.1q0.4 0.1 0.8 0.2 0.3 0 0.6 0 0.6-0.1 1.2-0.2 0.6-0.2 1.3-0.4c0 0 0.1 0 0.1 0l-0.1-0.3 4.7 0.3q0.9 0.1 1.7 0.2 0.8 0.1 1.7 0.3l0.8-2.6 0.9 2.7q0.3-0.1 0.6-0.2h0.1q0.7-0.2 1.4-0.3 0.2-0.1 0.4-0.1l3.3-1.3 1 2.5 0.4-1.1h2.7q0.3 0 0.6 0h0.2q1.9 0.1 3.8 0.3 1.9 0.1 3.8 0.3c0.9 0.1 1.7 0.3 2.4 0.8h0.1v0.1q0.8 0.5 1.4 1c0.3 0.2 0.1 0 0.4 0.3 0.4 0.2 0 0 0.4 0.2q0 0.1 0 0v0.1h0.1q0 0 0 0 0 0 0 0 0 0 0 0v0.1l-0.5-3.6 4.8 0.3q0.8 0.1 1.6 0.2 0.9 0.1 1.7 0.3h0.1l0.7-2.6 0.9 2.7q0.3-0.1 0.7-0.2 0.7-0.2 1.4-0.3 0.2-0.1 0.4-0.1l3.3-1.3 1.4 3.5q0.4 0.9 0.4 1.9c0 0.1 0 0.3 0 0.4 0 0 0 0.3 0 0.3-0.1 0.1 0 0.3-0.1 0.4-0.1 1.5-1 2.4-1.5 2.8q0 0.2 0 0.4-0.1 0.8-0.1 1.5 0.4 1.5 0.8 2.9 0.3 1.3 0.6 2.8 0.1 0 0.1 0.1l0.1 0.2q0.2 0.3 0.3 0.7 0 0 0.1 0c0 0.2 0 0.1 0.1 0.3 0 0.1 0.1 0.2 0.2 0.4q0.3 0.6 0.6 1.2 0.1 0.1 0.2 0.2c0.5 0.2 1 0.4 1.4 0.8 0.8 0.7 1.1 1.6 1.3 2.1v0.1 0.2q0.1 0.3 0.1 0.6 0.1 0.4 0.1 0.7zm-131 3.9q0 0 0 0 0 0 0 0zm80.2 0.6c0 0 0 0 0 0q0 0 0 0zm32.5 0c0 0-0.1 0-0.1 0q0.1 0 0.1 0z"/>
			<path class="s4" d="m220.4 120.5c0.1 1.3-0.3 2.7-1.1 3.7-1 1.2-2.4 1.9-4 1.9h-6.5c-1.6 0-3-0.8-4-2-0.9 1.2-2.4 2-4 2h-5.3c-0.9 0-1.7-0.3-2.5-0.7-0.7 0.4-1.6 0.7-2.5 0.7h-6.5c-1 0-2-0.3-2.8-0.9-0.8 0.6-1.7 0.9-2.8 0.9h-15.9q-0.6 0-1.1-0.1-0.5 0.1-1 0.1h-15.1c-1.5 0-2.9-0.7-3.8-1.7q-0.6 0.3-1.2 0.7c-2 1-4.4 1.5-7.1 1.5-2.6 0-5.1-0.6-7-1.6-0.9 0.7-2 1.1-3.1 1.1h-6.4c-0.9 0-1.9-0.3-2.6-0.8-0.8 0.5-1.7 0.8-2.7 0.8h-6.4c-2.7 0-5-2.2-5.1-4.9v-0.1q0-0.1 0-0.2 0-0.1 0-0.1 0-0.1 0-0.2 0-0.1 0-0.2v-0.1c0 0-0.1-0.1-0.1-0.2q0-0.1 0-0.1 0-0.1 0-0.2 0-0.1 0-0.1 0-0.1 0-0.2 0-0.1 0-0.2 0 0 0-0.1 0-0.1 0-0.2 0-0.1 0-0.1 0-0.1 0-0.2 0-0.1 0-0.2v-0.1q-0.1-0.1-0.1-0.2 0 0 0-0.1 0-0.1 0-0.2 0-0.1 0-0.1v-0.2q0-0.1 0-0.2 0 0 0-0.1 0-0.1 0-0.2 0-0.1 0-0.1v-0.2c0 0 0-0.1 0-0.1q-0.1-0.3-0.1-0.5v-26.1c0-2.8 2.3-5.1 5.1-5.1h9.6c2.3 0 4.4 0.4 6.3 1.2q0.3 0.1 0.5 0.2c0.9-0.9 2.1-1.4 3.5-1.4h6.4c1 0 1.9 0.3 2.7 0.8 0.8-0.5 1.7-0.8 2.7-0.8h5.4q0.8 0 1.6 0.3 0.8-0.3 1.6-0.3h6.5c2.7 0 4.9 2.2 5 4.9q0.1 0 0.1 0.1 0 0.1 0 0.2 0 0 0 0.1 0 0.1 0 0.2 0 0.1 0 0.1v0.2q0 0.1 0 0.2 0 0 0 0.1 0 0.1 0 0.2 0 0 0 0.1v0.2c0 0 0 0.1 0 0.1q0 0.1 0 0.2 0 0.1 0 0.2 0 0 0 0.1 0 0.1 0 0.2v0.1q0 0.1 0 0.2 0 0.1 0 0.1 0 0.1 0 0.2 0.1 0.1 0.1 0.2v0.1q0 0.1 0 0.2 0 0.1 0 0.1 0 0.1 0 0.2 0 0.1 0 0.1 0 0.1 0 0.2v0.2c0 0 0 0.1 0 0.1q0 0.2 0 0.5v11.6h0.2v-16.4c0-2.8 2.3-5.1 5.1-5.1h33.8c0.9 0 1.8 0.3 2.6 0.8 0.7-0.5 1.7-0.8 2.6-0.8h8.5c2.4 0 4.5 1.7 4.9 4.1l5.5 26.1q0 0.4 0.1 0.8 0 0 0 0.1 0 0.1 0 0.2v0.1q0 0.1 0 0.2 0 0.1 0 0.1 0 0.1 0 0.2 0 0.1 0 0.2v0.1q0 0.1 0 0.2 0 0 0 0.1 0 0.1 0 0.2 0 0.1 0 0.1v0.2q0 0.1 0 0.2 0 0 0 0.1 0 0.1 0 0.2 0.1 0 0 0.1 0 0.1 0 0.2 0 0.1 0.1 0.1 0 0.1 0 0.2 0 0.1 0 0.2 0 0 0 0.1 0 0.1 0 0.2 0 0 0 0.1v0.2q0 0.1 0 0.1 0 0.1 0 0.2 0 0.1 0 0.2 0 0 0 0.1h0.1z"/>
			<path fill-rule="evenodd" class="s5" d="m143.6 94.5h0.1q0 0.1 0 0.2c0 0 0 17.8 0 17.8q0 3.2-1.1 5.4-1.3 2.4-3.6 3.6c-1.5 0.7-3.2 1.1-5.3 1.1q-3.2 0-5.4-1.2-2.2-1.2-3.3-3.6-0.3-0.7-0.5-1.4 0 0.1 0 0.1 0 0.1 0 0.2 0 0.1 0 0.2 0 0 0 0.1 0 0.1 0 0.2 0 0.1 0 0.1 0 0.1 0 0.2 0 0.1 0 0.2 0 0 0 0.1 0 0.1 0 0.2 0 0.1 0 0.1 0 0.1 0 0.2 0 0.1 0 0.2 0.1 0 0.1 0.1 0 0.1 0 0.2 0 0.1 0 0.1 0 0.1 0 0.2 0 0.1 0 0.2 0 0 0 0.1 0 0.1 0 0.2 0 0.1 0 0.1 0 0.1 0 0.2 0 0.1 0 0.2 0 0 0 0.1 0 0.1 0 0.2 0 0.1 0 0.1 0.1 0.1 0 0.2c0.1 0.3 0 0.6-0.2 0.9-0.2 0.3-0.6 0.5-1 0.5h-6.4c-0.5 0-1-0.3-1.2-0.9l-2.8-9.9v9.6c0 0.7-0.6 1.2-1.3 1.2h-6.4c-0.7 0-1.3-0.5-1.3-1.2q0-0.1 0-0.2 0-0.1 0-0.1 0-0.1 0-0.2 0-0.1 0-0.2 0 0 0-0.1 0-0.1 0-0.2 0-0.1 0-0.1 0-0.1 0-0.2 0-0.1 0-0.2-0.1 0 0-0.1-0.1-0.1-0.1-0.2 0-0.1 0-0.1 0-0.1 0-0.2 0-0.1 0-0.2 0 0 0-0.1 0-0.1 0-0.2 0-0.1 0-0.1 0-0.1 0-0.2 0-0.1 0-0.2 0 0 0-0.1 0-0.1 0-0.2 0-0.1 0-0.1 0-0.1 0-0.2-0.1-0.1 0-0.2-0.1 0-0.1-0.1 0-0.1 0-0.2 0-0.1 0-0.1 0-0.1 0-0.2 0-0.1 0-0.2c0 0 0-26.2 0-26.2 0-0.8 0.6-1.3 1.3-1.3h9.6q2.7 0 4.8 0.9 2.3 0.9 3.7 2.9 0.2 0.4 0.5 0.9v-3.4c0-0.8 0.5-1.3 1.2-1.3h6.5c0.7 0 1.2 0.5 1.2 1.2q0 0.1 0 0.2 0 0.1 0 0.2 0 0 0 0.1 0.1 0.1 0.1 0.2 0 0.1 0 0.1 0 0.1 0 0.2 0 0.1 0 0.2 0 0 0 0.1 0 0.1 0 0.2 0 0.1 0 0.1 0 0.1 0 0.2 0 0.1 0 0.2 0 0 0 0.1 0 0.1 0 0.2 0 0.1 0 0.1 0 0.1 0 0.2 0 0.1 0 0.2 0 0 0 0.1 0 0.1 0 0.2 0 0.1 0 0.1 0 0.1 0 0.2 0 0.1 0 0.2 0 0 0 0.1 0 0.1 0 0.2 0 0.1 0 0.1 0 0.1 0 0.2 0 0.1 0 0.2 0 0 0 0.1 0 0.1 0 0.2c0 0 0 15.4 0 15.4 0.4 0.5 0.9 0.5 1.2 0.5 0.4 0 1.4 0 1.4-2.7v-17.8c0-0.7 0.5-1.3 1.2-1.3h5.4c0.7 0 1.3 0.6 1.3 1.3q0 0.1 0 0.2 0 0 0 0.1 0 0.1 0 0.2 0 0.1 0 0.1 0 0.1 0 0.2 0 0.1 0 0.2 0 0 0 0.1 0 0.1 0 0.2 0 0.1 0 0.1 0 0.1 0 0.2 0 0.1 0 0.2 0 0 0 0.1 0 0.1 0 0.2 0 0.1 0 0.1 0 0.1 0 0.2 0 0.1 0 0.2 0 0 0 0.1 0 0.1 0 0.2 0 0.1 0 0.1 0 0.1 0 0.2 0 0.1 0 0.2 0.1 0 0.1 0.1 0 0.1 0 0.2 0 0.1 0 0.1 0 0.1 0 0.2 0 0.1 0 0.2 0 0 0 0.1 0 0.1 0 0.2zm-22.3 13.7h-0.1l2.4 7q-0.1-0.6-0.2-1.2 0-0.1 0-0.2 0-0.1 0-0.1 0-0.1 0-0.2 0-0.1 0-0.2 0 0 0-0.1 0-0.1 0-0.2 0-0.1 0-0.1-0.1-0.1-0.1-0.2 0-0.1 0-0.1 0-0.1 0-0.2 0-0.1 0-0.2 0 0 0-0.1 0-0.1 0-0.2 0-0.1 0-0.1 0-0.1 0-0.2 0-0.1 0-0.2 0 0 0-0.1 0-0.1 0-0.2 0 0 0-0.1 0-0.1 0-0.2 0-0.1 0-0.1-0.1-0.1-0.1-0.2 0-0.1 0-0.2 0 0 0-0.1 0-0.1 0-0.2 0-0.1 0-0.1 0-0.1 0-0.2 0-0.1 0-0.1 0-0.1 0-0.2-0.1-0.7-0.1-1.5v-1.7q-0.1 0.2-0.2 0.4-0.7 0.9-1.6 1.6z"/>
			<path class="s5" d="m197.5 99.9v-5.1q0-0.1 0-0.1 0-0.1 0-0.2 0-0.1 0-0.1 0-0.1 0-0.2 0-0.1 0-0.2 0 0 0-0.1 0-0.1 0-0.2 0-0.1 0-0.1-0.1-0.1 0-0.2-0.1-0.1 0-0.2 0 0-0.1-0.1 0-0.1 0-0.2 0-0.1 0-0.1 0-0.1 0-0.2 0-0.1 0-0.2 0 0 0-0.1 0-0.1 0-0.2 0-0.1 0-0.1 0-0.1 0-0.2 0-0.1 0-0.2 0 0 0-0.1 0-0.1 0-0.2 0-0.1 0-0.1 0-0.1 0-0.2 0-0.1 0-0.2 0 0 0-0.1 0-0.1 0-0.2 0-0.1 0-0.1 0-0.1 0-0.2 0-0.1 0-0.2c0-0.7-0.6-1.2-1.3-1.2h-33.7c-0.8 0-1.3 0.5-1.3 1.2v20.5q-0.3-0.2-0.8-0.2h-7.1v-15.5q0-0.1 0-0.2 0-0.1 0-0.1 0-0.1 0-0.2 0-0.1 0-0.2 0 0 0-0.1 0-0.1 0-0.2 0-0.1 0-0.1 0-0.1 0-0.2 0-0.1 0-0.2 0 0 0-0.1 0-0.1 0-0.2 0-0.1 0-0.1 0-0.1 0-0.2 0-0.1 0-0.2 0 0 0-0.1 0-0.1 0-0.2 0-0.1 0-0.1 0-0.1 0-0.2 0-0.1 0-0.2 0 0 0-0.1 0-0.1 0-0.2 0-0.1 0-0.1 0-0.1 0-0.2 0-0.1 0-0.2 0 0-0.1-0.1 0-0.1 0-0.2 0-0.1 0-0.1 0-0.1 0-0.2 0-0.1 0-0.2 0 0 0-0.1c0-0.7-0.5-1.3-1.2-1.3h-6.5c-0.7 0-1.2 0.6-1.2 1.3v26.1q-0.1 0.1 0 0.2 0 0 0 0.1 0 0.1 0 0.2 0 0.1 0 0.1 0 0.1 0 0.2 0 0.1 0 0.2 0 0 0 0.1 0 0.1 0 0.2 0 0.1 0 0.1 0 0.1 0 0.2 0 0.1 0 0.2 0 0 0 0.1 0 0.1 0 0.2 0 0.1 0 0.1 0 0.1 0 0.2 0 0.1 0 0.2 0 0 0 0.1 0 0.1 0 0.2 0 0.1 0 0.1 0 0.1 0 0.2 0 0.1 0 0.2 0 0 0 0.1 0 0.1 0 0.2 0 0.1 0 0.1 0 0.1 0 0.2 0 0.1 0.1 0.2 0 0 0 0.1 0 0.1 0 0.2-0.1 0.1 0 0.1 0 0.1 0 0.2c0 0.7 0.5 1.3 1.2 1.3h15.2c0.4 0 0.8-0.2 1-0.5 0.2 0.3 0.6 0.5 1 0.5h16c0.7 0 1.3-0.6 1.3-1.3v-5.3c0 0 0-0.1 0-0.1q0-0.1 0-0.2 0-0.1 0-0.2 0 0 0-0.1 0-0.1 0-0.2 0-0.1-0.1-0.1 0-0.1 0-0.2 0-0.1 0-0.2 0 0 0-0.1 0-0.1 0-0.2 0-0.1 0-0.1 0-0.1 0-0.2 0-0.1 0-0.2 0 0 0-0.1 0-0.1 0-0.2 0-0.1 0-0.1 0-0.1 0-0.2 0-0.1 0-0.2 0 0 0-0.1 0-0.1 0-0.2 0-0.1 0-0.1 0-0.1 0-0.2 0-0.1 0-0.2 0 0 0-0.1 0-0.1 0-0.2 0-0.1 0-0.1 0-0.1 0-0.2 0-0.1 0-0.2 0 0 0-0.1 0-0.1 0-0.2c0-0.7-0.6-1.3-1.3-1.3h-1.5v-4.4q0-0.1 0-0.2 0-0.1 0-0.2 0 0 0-0.1 0-0.1-0.1-0.2 0-0.1 0-0.1 0-0.1 0-0.2 0-0.1 0-0.2 0 0 0-0.1 0-0.1 0-0.2 0-0.1 0-0.1 0-0.1 0-0.2 0-0.1 0-0.2 0 0 0-0.1 0-0.1 0-0.2 0-0.1 0-0.1 0-0.1 0-0.2 0-0.1 0-0.2 0 0 0-0.1 0-0.1 0-0.2 0-0.1 0-0.1 0-0.1 0-0.2 0-0.1 0-0.2 0 0 0-0.1 0-0.1 0-0.2 0-0.1 0-0.1v-0.1h6.1v15.1c0 0 0 0.1 0 0.1q0 0.1 0 0.2 0 0 0 0.1 0 0.1 0 0.2 0 0.1 0 0.2 0 0 0 0.1 0 0.1 0 0.2 0 0 0 0.1 0 0.1 0 0.2 0 0.1 0 0.2 0 0 0 0.1 0 0.1 0.1 0.2 0 0 0 0.1 0 0.1 0 0.2-0.1 0.1 0 0.2 0 0 0 0.1 0 0.1 0 0.2 0 0 0 0.1 0 0.1 0 0.2 0 0.1 0 0.2 0 0 0 0.1 0 0.1 0 0.2 0 0 0 0.1 0 0.1 0 0.2 0 0.1 0 0.2 0 0 0 0.1 0 0.1 0 0.2 0 0 0 0.1 0 0.1 0 0.2 0 0.1 0 0.2c0 0.7 0.6 1.2 1.3 1.2h6.4c0.7 0 1.3-0.5 1.3-1.3v-19.8h4.5c0.7 0 1.2-0.5 1.2-1.2v0.1z"/>
			<path class="s5" d="m216.6 120.8q0-0.1 0-0.2 0-0.1 0-0.2 0 0 0-0.1 0-0.1 0-0.2 0-0.1 0-0.1 0-0.1 0-0.2 0-0.1 0-0.2 0 0 0-0.1 0-0.1 0-0.2 0-0.1 0-0.1 0-0.1 0-0.2 0-0.1 0-0.2 0 0-0.1-0.1 0-0.1 0-0.2 0-0.1 0-0.1 0-0.1 0-0.2 0-0.1 0-0.2 0 0 0-0.1 0-0.1 0-0.2 0-0.1 0-0.1 0-0.1 0-0.2 0-0.1 0-0.2 0 0 0-0.1 0-0.1 0-0.2 0-0.1 0-0.1 0-0.1 0-0.2 0-0.1 0-0.2 0 0 0-0.1 0-0.1 0-0.2 0-0.1 0-0.2l-5.4-26.1c-0.2-0.6-0.7-1.1-1.3-1.1h-8.4c-0.6 0-1.1 0.4-1.3 1l-5.9 26.2q-0.1 0.2 0 0.4-0.1 0.1 0 0.2 0 0 0 0.1 0 0.1 0 0.2 0 0.1 0 0.1 0 0.1 0 0.2 0 0.1 0 0.2 0 0 0 0.1 0 0.1 0 0.2 0 0.1 0 0.1 0 0.1 0 0.2 0 0.1 0 0.2 0 0 0 0.1 0 0.1 0 0.2 0 0.1 0 0.1 0 0.1 0 0.2 0 0.1 0 0.2 0 0 0 0.1 0 0.1 0 0.2 0 0.1 0 0.1 0 0.1 0 0.2 0 0.1 0 0.2 0 0 0 0.1 0 0.1 0 0.2 0 0.1 0 0.1 0 0.1 0 0.2 0 0.1 0.1 0.2 0 0 0 0.1-0.1 0.1 0 0.2 0 0.1 0 0.1 0 0.5 0.2 0.8c0.3 0.3 0.7 0.5 1 0.5h5.4c0.5 0 1.1-0.4 1.2-1l0.9-4.3h3.8l0.8 4.3c0.1 0.6 0.6 1 1.2 1h6.5c0.4 0 0.8-0.2 1-0.5 0.2-0.2 0.3-0.6 0.3-0.9z"/>
			<path fill-rule="evenodd" class="s6" d="m104.6 90.3h9.6q2.5 0.1 4.4 0.8 1.9 0.8 3 2.5 1.1 1.7 1.1 4.1 0 2.1-1.1 3.7-1.2 1.6-3.1 2.4l4.2 12.7h-6.3l-3.2-11.4h-2.1v11.4h-6.5zm6.5 4.8v5.8h1.2q4 0 4-2.9 0-1.8-1.1-2.4-1.1-0.5-3.1-0.5z"/>
			<path class="s6" d="m141.7 90.3v17.9q0 2.9-1.1 4.9-1 1.9-2.9 2.9-2 1-4.8 1c-1.9 0-3.5-0.4-4.8-1q-1.8-1.1-2.7-3-0.9-2-0.9-4.8v-17.8h6.4v18.1q0 3.6 2.8 3.6c1.8 0 2.6-1.3 2.6-4v-17.7z"/>
			<path class="s6" d="m144.9 116.5v-26.2h6.5v21.5h8.7v4.7z"/>
			<path class="s6" d="m162.1 116.5v-26.2h16v5.1h-9.6v5.3h6.4v5h-6.4v5.5h9.6v5.3z"/>
			<path class="s6" d="m177.9 95.4v-5.1h17.9v5.1h-5.7v21.1h-6.4v-21.1z"/>
			<path fill-rule="evenodd" class="s6" d="m195.2 116.5l5.9-26.2h8.4l5.5 26.2h-6.5l-1-5.3h-5.9l-1.1 5.3zm9.5-20.6l-2.2 10.7h4.1l-1.9-10.7z"/>
			<path fill-rule="evenodd" class="s7" d="m100.4 141.8q-0.1 0.3-0.2 0.6-0.1 0.3-0.3 0.6 0 0.1-0.1 0.2-0.4 0.9-0.6 1.8-0.1 1 0 1.9 0.1 0.1 0 0.2 0 0.5-0.4 0.4-0.8-0.2-1.6-0.3-0.8-0.1-1.6-0.2-0.6-0.1-1.2-0.1-0.5-0.1-1.1-0.2-0.6-0.2-1.2-0.1-0.6 0-1.2 0.2-0.9 0.2-1.7 0.4-0.8 0.2-1.6 0.4-0.1 0-0.3 0-0.1 0-0.3 0.1-0.1-0.7-0.2-1.3 0-0.4 0.3-0.7 0.3-0.3 0.6-0.6 0.2-0.3 0.5-0.7 0.4-0.4 0.4-0.7 0.4-1.4 0.7-2.7 0.4-1.3 0.5-2.7 0.1-0.5 0.1-1.1-0.2-1.3-0.3-2.7-0.2-1.3-0.4-2.6-0.1-0.4-0.1-0.8-0.1-0.4-0.1-0.9-0.1 0 0-0.1-0.1-0.2-0.3-0.3-0.3-0.2-0.5-0.4-0.3-0.2-0.5-0.4-0.3-0.3-0.1-0.6 0.1-0.3 0.2-0.6 0.1-0.3 0.2-0.6h0.2q0.6 0.2 1.1 0.3 0.5 0.1 1 0.2 0.5 0.1 0.9 0.2 0.5 0.1 0.9 0.1 0.3 0.1 0.4 0.1 0.3 0 0.5-0.1 0.4-0.1 0.9-0.1 0.4-0.1 0.8-0.2 0.8-0.3 1.6-0.5 0.9-0.2 1.7-0.5 0.1 0 0.2-0.1 0.1 0 0.2 0 0 0 0.1 0.1 0 0.1 0 0.2 0 2 0.4 4.1 0.1 0.1 0.1 0.4-0.1 0.1-0.2 0.1-0.2 0.1-0.4 0.1-0.1 0.1-0.2 0.1-0.3 0.1-0.5 0.1-0.3 0.1-0.4-0.1-0.1-0.2-0.2-0.3-0.2-0.2-0.3-0.5-0.2-0.2-0.5-0.3-0.4-0.1-0.8-0.2-0.4-0.1-0.8-0.1-0.1-0.1-0.3 0-0.3 0.1-0.6 0.2-0.2 0.1-0.4 0.2-0.1 0.1-0.1 0.1-0.2 0.1-0.3 0.2-0.1 0.2-0.2 0.5-0.1 0.2-0.1 0.5 0 0.7-0.1 1.3v1.3q0 0.2 0.1 0.3 0 0.2 0.1 0.2 0.1 0.2 0.3 0.3 0.2 0.1 0.5 0 0.4 0 0.9-0.2 0.5-0.1 0.8-0.5 0.3-0.6 0.7-1.2 0.1-0.3 0.2-0.3 0.1-0.1 0.4 0.1 0.4 0.2 0.5 0.3 0.1 0 0 0.6-0.2 0.6-0.4 1.3-0.1 0.7-0.3 1.3 0 0.4 0.1 0.7 0.1 0.5 0.2 1.1 0.2 0.5 0.3 1-0.3 0.1-0.6 0.1-0.2 0-0.5-0.1-0.2-0.1-0.3-0.3-0.1-0.2-0.1-0.3-0.1-0.1-0.1-0.3-0.3-0.7-1-0.6-0.3 0-0.7 0.1-0.3 0.1-0.7 0.1-0.2 0.1-0.2 0.3-0.1 0.6-0.2 1.1-0.1 0.6 0 1.1 0 0.6 0.1 1.1 0.1 0.6 0.1 1.2 0 0.1 0 0.2 0.1 0.1 0.1 0.2 0.3 0.1 0.5 0.1 0.3 0 0.5 0.1 0.4 0.1 0.8 0.1 0.4 0 0.8 0.1 0.5 0.1 0.8-0.1 0.4-0.3 0.8-0.5 0.4-0.2 0.8-0.4 0.2-0.1 0.2-0.2 0.1-0.2 0.2-0.3l0.3-1q0.1-0.2 0.4-0.1 0.3 0 0.6 0.1 0.3 0 0.7 0.1 0.3 0.1 0.1 0.3zm22.7 3.6q-0.1 0.4-0.2 0.8-0.1 0.5-0.2 0.9-0.3 0-0.5 0-0.5-0.1-1-0.1-0.6-0.1-1.1-0.2-0.4-0.1-0.8-0.1-0.4-0.1-0.8-0.2-0.3 0-0.6 0.1-0.8 0.2-1.6 0.5-0.8 0.3-1.6 0.6-0.1 0-0.2 0.1-0.1 0-0.2 0-0.2 0-0.3 0-0.1-0.1-0.1-0.2l-0.1-1.2q0-0.3 0.3-0.5 0.3-0.1 0.5-0.3 0.3-0.2 0.5-0.4 0.6-0.3 0.7-1 0.1-0.7 0.2-1.4 0.2-0.8 0.3-1.5 0.2-0.7 0.3-1.3 0.1-0.7 0.1-1.4-0.1-0.9-0.1-1.9v-2.2q-0.1 0.1-0.1 0.2-0.1 0-0.2 0.1-0.2 0.4-0.4 0.7-0.3 0.3-0.5 0.7-0.5 0.7-0.9 1.4-0.3 0.3-0.5 0.7-0.2 0.3-0.3 0.7-0.1 0.4-0.2 0.9-0.1 0.3-0.2 0.7-0.1 0.3-0.2 0.3 0 0-0.2 0h-0.9q-0.3 0-0.3 0-0.1 0-0.2-0.3-0.2-0.8-0.5-1.5-0.3-0.8-0.5-1.6-0.3-0.8-0.7-1.4-0.4-0.4-0.7-0.8-0.3-0.4-0.6-0.8-0.1-0.1-0.2-0.1 0-0.1-0.2-0.3 0 0.3-0.1 0.5 0 0.2 0 0.4-0.1 1-0.2 2.1-0.2 1-0.2 2-0.1 0.3 0 0.5 0 0.3 0 0.5 0.2 1.8 0.7 3.4 0.1 0.4 0.5 0.7 0.3 0.2 0.7 0.5 0.3 0.3 0.7 0.6-0.1 0.3-0.2 0.5 0 0.3-0.1 0.6-0.1 0.2-0.2 0.3-0.1 0-0.3 0-0.6-0.2-1.1-0.3-0.5-0.1-1-0.2-0.1-0.1-0.2 0-0.2-0.1-0.3-0.1-0.3-0.2-0.6-0.2-0.3 0-0.6 0-0.6 0-1.3 0.1l-2.4 0.3q-0.3 0-0.3-0.2 0-0.3 0-0.6v-0.5q0-0.4 0.3-0.4 0.3-0.1 0.6-0.2 0.2-0.1 0.5-0.1 0.5-0.1 0.6-0.6 0.3-1.6 0.6-3.1 0.3-1.6 0.6-3.1 0-0.1 0-0.2v-0.2l0.1-4.1v-2.3q0.1-0.6-0.3-1.1-0.4-0.7-0.9-1.5-0.2-0.4-0.6-0.5-0.3-0.1-0.5-0.1-0.3-0.1-0.5-0.2-0.1 0-0.3 0-0.1-0.1-0.2-0.1 0.1-0.4 0.2-0.7 0.1-0.4 0.2-0.8 0.1-0.2 0.1-0.2 0.1-0.1 0.4 0l0.5 0.1 1 0.1q0.4 0.1 0.8 0.2 0.4 0 0.8 0 0.9 0.1 1.7 0.1 0.9 0 1.7 0.1 0.1-0.1 0.1 0 0.1 0 0.2 0 0 0.1 0.1 0.3 0 0.1 0 0.2 0.2 1.2 0.4 2.4 0.2 1.3 0.4 2.5 0.1 0.1 0.1 0.3 0.1 0.2 0.2 0.3 0.5 0.8 1 1.5 0.3 0.5 0.6 1.1 0.2 0.2 0.3 0.4 0.1 0.1 0.2 0.1 0.1-0.1 0.2-0.1 0.1-0.1 0.1-0.2 0 0 0.1-0.1 0.3-0.5 0.6-0.9 0.3-0.5 0.7-1.1 0.4-0.7 0.7-1.6l1.1-4q0-0.1 0-0.1 0-0.1 0.1-0.1 0.1-0.4 0.2-0.4 0.1-0.1 0.5 0l1.7 0.4q0.6 0.2 1.1 0 0.5-0.2 1.1-0.3 0.6-0.2 1.1-0.3 0.3-0.1 0.5-0.2v1.6q0 0.3-0.2 0.4-0.3 0.1-0.6 0.3-0.2 0.2-0.5 0.3-0.5 0.2-0.6 0.7-0.1 0.2-0.2 0.4 0 0.2-0.1 0.4-0.3 0.7-0.4 1.5 0 1.3-0.1 2.6-0.1 0.9-0.2 1.9 0 0.3-0.1 0.6 0 0.7-0.1 1.4 0 0.6 0 1.3v0.3q0 0.1 0 0.2 0.2 0.8 0.4 1.7 0.3 0.8 0.5 1.7 0.1 0.5 0.5 0.6 0.5 0.2 0.9 0.4 0.5 0.2 0.9 0.4 0.1 0.1 0.2 0.1 0.2 0 0.2 0.1 0.2 0.1 0.2 0.3zm15.8-4.3q-0.3 0.6-0.5 1.3-0.3 0.7-0.5 1.3-0.3 0.5-0.4 0.8-0.1 0.2-0.2 0.4-0.1 0.1-0.3 0.2-0.2 0.2-0.7 0.4-0.1 0.1-0.3 0.3-0.2 0.1-0.4 0.2-0.3 0.2-0.7 0.3-0.4 0.1-0.8 0.1-1.1 0.1-2.4 0.1-1.2 0.1-2.5 0.2-1.2 0.1-2.4 0.4-1.2 0.3-2.3 0.7 0 0-0.1 0-0.1 0-0.2 0.1 0-0.1 0-0.2-0.1-0.1-0.1-0.2-0.1-0.4-0.2-0.7 0-0.4-0.1-0.8-0.1-0.7 0.4-1 0.2-0.1 0.4-0.3 0.2-0.1 0.4-0.3 0.2-0.2 0.4-0.3 0.2-0.2 0.4-0.3 0.2-0.2 0.3-0.4 0.2-0.1 0.2-0.4 0.2-1 0.4-1.9 0.1-1 0.2-2 0.1-0.4 0.2-0.9 0-0.1 0-0.3 0.1-0.2 0.1-0.5 0.1-0.4 0.1-0.8 0-0.4-0.1-0.8 0-0.6-0.1-1.3-0.1-0.6-0.2-1.3-0.1-0.8-0.1-1.7-0.1-0.9-0.2-1.8 0-0.4-0.4-0.5-0.3-0.1-0.6-0.2-0.3-0.1-0.7-0.3-0.2 0-0.2 0-0.1-0.1-0.1-0.4 0-0.8 0-1.8 0.2 0.1 0.4 0.1 0.3 0 0.5 0.1 0.2 0 0.4 0.1 0.3 0 0.5 0.1 0.3 0 0.6 0.1 0.3 0 0.6 0 0.8-0.1 1.6-0.1 0.8-0.1 1.7-0.2 0.4 0 0.9 0.1 0.5 0 0.9 0.2 1.4 0.5 2.7 0.8 0.4 0.1 0.7 0.5 0.4 0.5 0.8 1 0.4 0.5 0.9 0.9 0.1 0.2 0.1 0.4 0.1 0.1 0.1 0.3 0.1 0.5 0.1 1 0 0.6 0.1 1.1 0 0.5-0.3 0.9-0.5 0.6-0.9 1.1-0.4 0.5-0.9 1 0.4 0.1 0.7 0.3 0.3 0.1 0.6 0.2 0.4 0.2 0.5 0.6 0.1 0.1 0.1 0.2 0.1 0.1 0.1 0.2 0.2 0.6 0.4 1.2 0.2 0.5 0.4 1 0 0.1 0 0.3 0.2 0.6 0 1.1zm-4.4 0.3q-0.1-0.4-0.2-0.8-0.1-0.4-0.2-0.8-0.1-0.2-0.2-0.4 0-0.2 0-0.4-0.1 0-0.1-0.1 0-0.2-0.2-0.3 0-0.2-0.3-0.2l-2.2-0.5q-0.2 0-0.3-0.1 0-0.1 0-0.3-0.1-0.4 0-0.9 0.1-0.5 0.1-0.6 0.1 0 0.5-0.2 0.4-0.1 0.7-0.2 0.4-0.1 0.7-0.3 0.4-0.1 0.6-0.5 0.3-0.6 0.5-1.2 0.2-0.6 0.5-1.2 0.1-0.4-0.1-0.7-0.2-0.3-0.2-0.4l-0.5-0.8q-0.2-0.2-0.3-0.4-0.1-0.2-0.3-0.4-0.2-0.2-0.5-0.1-0.3 0-0.6 0.1-0.2 0.1-0.5 0.2-0.3 0.1-0.4 0.4-0.1 0.2-0.1 0.4-0.3 0.8-0.5 1.7-0.2 0.9-0.3 1.7-0.2 0.7-0.3 1.3-0.1 0.6-0.1 1.3 0.1 0.4 0.1 0.7 0 0.3 0 0.7 0.1 0.1 0.1 0.3 0 0.5 0 1.1 0.1 0.7 0.2 1.4 0 0.6 0.2 1.2 0.1 0.7 0.2 1.3 0.1 0.3 0.3 0.4 0.4 0.1 0.8 0.3 0.4 0.1 0.8 0.2 0.4 0.2 0.7-0.2 0.3-0.5 0.6-1 0.4-0.5 0.7-1 0.3-0.3 0.1-0.7zm22.5 4.6q-0.3 0.1-0.4 0.2-0.6 0.2-1.1 0.4-0.6 0.1-1.2 0.4-0.3 0.1-0.5 0.3-0.5 0.5-1.1 1l-1.1 1.1q0 0.1-0.1 0.1-0.5-0.6-1-1.3 0-0.1 0-0.2 0-0.1 0-0.1 0.1-0.2 0.2-0.4 0.1-0.2 0.3-0.4 0.1-0.3 0.1-0.5 0-0.2 0-0.5-0.1-0.4-0.2-0.9-0.1-0.4-0.2-0.9-0.2-0.5-0.3-0.9-0.2-0.5-0.3-1-0.1-0.3-0.2-0.6-0.4-0.6-0.7-1.2-0.1 0-0.1 0-0.3-0.6-0.6-1.2-0.2-0.2-0.2-0.3-0.1 0-0.4 0-0.4 0.1-0.8 0.1-0.4 0.1-0.8 0.1-0.3 0-0.3 0.1-0.1 0-0.1 0.3 0 0.3 0 0.7 0 0.2-0.1 0.4 0 0.5 0 1.1 0 0.2 0.1 0.4 0.3 0.5 0.5 0.9 0.2 0.4 0.5 0.9 0 0.1 0.1 0.2 0.2 0 0.3 0.1 0.4 0.1 0.7 0.2 0.3 0 0.6 0.1 0.3 0.1 0.3 0.4v1.4h-0.4q-0.7 0-1.3-0.1-0.6-0.1-1.3-0.2-0.4 0-0.8-0.1-0.4-0.1-0.8-0.1-0.1 0-0.3 0-0.8 0.2-1.5 0.4-0.8 0.2-1.5 0.5-0.3 0.1-0.4 0.1c-0.1-0.2-0.1-0.4-0.1-0.4v-0.6q0.1-0.3 0.1-0.6-0.1-0.3 0.2-0.5 0.3-0.2 0.5-0.3 0.3-0.2 0.5-0.3 0.5-0.3 0.6-0.9 0.1-1 0.2-1.9 0.1-0.7 0.2-1.4 0-0.3 0.1-0.6 0.1-0.9 0.2-1.8 0.1-0.8 0.1-1.7 0.1-0.4 0.1-0.7 0.1-0.3 0-0.6-0.1-0.6-0.1-1.2-0.1-0.6-0.2-1.3 0-0.6-0.2-1.3-0.1-0.6-0.3-1.1-0.1-0.5-0.5-0.7-0.3-0.2-0.6-0.3-0.3-0.2-0.6-0.4-0.3-0.2-0.3-0.5 0-0.3-0.1-0.6 0-0.4-0.1-0.7 0-0.2 0-0.3 0-0.1 0.1-0.3 0.2 0 0.4 0.1 0.2 0 0.5 0 0.7 0.1 1.3 0.1 0.7 0.1 1.4 0.2 0.8 0.1 1.6 0.1 0.8 0 1.6-0.2 0.5 0 0.9 0h0.8q0.3 0 0.7 0.1 0.8 0.4 1.6 0.8 0.7 0.3 1.5 0.8 0.3 0.2 0.4 0.5 0.1 0.2 0.2 0.5 0.1 0.2 0.1 0.5 0.2 0.7 0.3 1.6 0.2 1 0.4 1.7 0.1 0.4-0.1 0.9-0.5 0.8-1.1 1.6-0.6 0.7-1.2 1.5-0.1 0.3-0.3 0.4-0.1 0.2-0.1 0.4 0 0.1 0 0.3 0.1 0.2 0.2 0.5 0.2 0.6 0.4 1.3 0.2 0.5 0.3 0.9 0.1 0.2 0.2 0.5 0.1 0.1 0.1 0.3 0.1 0.1 0.2 0.3 0.5 0.6 1 1.3 0.6 0.6 1.1 1.3 0.3 0.4 0.7 0.3 0.1-0.1 0.1-0.1 0.5 0 0.6 0 0 0.1 0.2 0.5 0.2 0.2 0.3 0.5 0.2 0.2 0.3 0.5zm-6.9-12.6q0-0.2 0.1-0.3 0-0.1-0.1-0.2-0.2-0.6-0.6-1.4-0.2-0.9-0.5-1.4-0.2-0.3-0.6-0.4-0.2 0-0.4 0-0.2 0-0.5 0h-1.2q0 0.1-0.1 0.2v0.1q0 1.2 0 2.6 0 1.4 0 2.5v0.3q0 0.3 0.3 0.3h1.3q0.2 0 0.3-0.1 0.2-0.1 0.3-0.2 0.2-0.1 0.5-0.4 0.7-0.8 1.2-1.6zm23.9-6q0 0.2 0 0.5-0.1 0.1-0.3 0.2-0.2 0.2-0.4 0.3 0 0-0.1 0.1 0 0 0 0-0.7 0.4-0.8 1.2-0.1 0.5-0.2 1-0.2 0.4-0.3 0.9 0 0.6 0 1.1 0 1.6 0.1 3.2 0.1 1.6 0.2 3.2 0 0.1 0 0.1 0 0.7 0 1.5 0.1 0.7 0.1 1.5v0.3q0.2 0.6 0 1.2-0.1 0.6-0.3 1.1-0.1 0.2-0.2 0.3-0.3 0.4-0.8 0.9-0.5 0.5-1.1 0.9-0.6 0.5-1.2 0.8-0.6 0.3-1.1 0.3-0.7 0-1.4-0.1-0.7 0-1.4-0.1-0.3 0-0.6-0.1-0.3 0-0.5 0-0.4 0-0.7-0.4-0.5-0.5-0.9-1-0.5-0.5-1-1.1-0.2-0.2-0.3-0.4-0.2-0.3-0.5-0.5-0.2-0.4-0.2-0.8 0-0.2 0.1-0.4v-0.9q0.1-0.1 0.1-0.2 0-0.1 0-0.2 0-0.7 0.1-1.4v-0.1q0.1-0.6 0.2-1.3 0-0.8 0-1.7-0.1-0.8 0.1-1.7 0.1-0.4 0-0.7 0-0.4-0.1-0.8 0-1-0.1-1.9 0-1-0.1-2 0-0.2 0-0.4 0-0.2-0.1-0.5 0-0.1-0.2-0.3-0.4-0.4-0.8-0.7-0.4-0.4-0.9-0.6-0.1-0.1-0.2-0.1 0.1-0.4 0.2-0.7 0.1-0.3 0.1-0.7 0.1-0.2 0.2-0.3 0.1-0.1 0.3 0 0.9 0.2 1.7 0.3 0.9 0.2 1.8 0.3 0.4 0.1 0.8 0 0.6-0.1 1.2-0.3 0.7-0.1 1.3-0.2v0.2q0 0.1 0 0.1 0 0.2 0 0.4 0 0.2 0.1 0.4 0 0.5-0.1 0.8-0.1 0.3-0.3 0.7-0.2 0.3-0.4 0.6-0.2 0.3-0.3 0.6-0.3 0.3-0.4 0.9 0 0.8-0.1 1.7-0.1 0.9-0.2 1.8 0 0.7-0.1 1.4 0 0.7 0 1.4 0 0.2 0.1 0.5 0.1 0.3 0.1 0.6 0 1.1-0.1 1.9 0 0.3 0 0.6-0.1 1.1 0 2.2 0 0.1 0.1 0.2 0.1 0.2 0.2 0.4 0.2 0.1 0.3 0.3 0.1 0.1 0.1 0.2 0 0.1 0.3 0.2 0.4 0.2 0.5 0.2 0.3 0.1 0.6 0 0.2-0.1 0.5 0 0.2 0.1 0.3 0 0.1-0.2 0.2-0.3 0.1-0.2 0.2-0.3 0.1-0.2 0.2-0.3 0.3-0.5 0.4-1 0-0.5 0.2-1.5 0-0.5 0.1-1.3 0.1-0.8 0.2-1.9 0.1-0.6 0.1-1.2 0-0.6 0-1.2 0-0.6-0.1-1.1-0.1-0.6-0.1-1.1-0.1-0.8-0.2-1.7-0.1-0.8-0.2-1.6-0.1-0.2-0.1-0.4-0.1-0.1-0.2-0.2-0.3-0.1-0.4-0.3-0.2-0.1-0.4-0.2-0.3-0.2-0.3-0.6v-0.4q0-0.2 0.1-0.4 0-0.2 0.1-0.2 0.1-0.1 0.3-0.1 0.8 0.1 1.5 0.1 0.8 0 1.5 0.1h0.4q0.2 0 0.4-0.1l2.5-0.4q0.1-0.1 0.5-0.1v0.2q0 0.1 0 0.1 0.1 0.3 0.1 0.5zm10.5-0.1q-0.4 0.4-0.8 0.6-0.4 0.3-0.8 0.6-0.2 0.2-0.4 0.5-0.1 0.1-0.1 0.2-0.1 0.1-0.1 0.2-0.3 0.5-0.4 1-0.1 0.5-0.1 1.1 0 0.8-0.1 1.6-0.1 0.8-0.1 1.7 0 0.7 0 1.4 0 0.6 0 1.4 0.1 0.1 0.1 0.3 0.2 1.2 0.3 2.4 0.2 1.3 0.4 2.7 0.1 1-0.4 1.7-0.4 0.4-0.8 0.9-0.3 0.5-0.6 1-0.3 0.4-0.8 0.4-0.6 0.1-1.2 0.3-0.5 0.1-1.1 0.2-0.3 0.1-0.6 0.1-0.4 0-0.7 0.1-0.4 0-0.8-0.2-0.6-0.6-1.2-1.1-0.6-0.5-1.3-1-0.2-0.2-0.2-0.4 0.1-0.6 0.1-1.2 0-0.6 0-1.2 0-0.4 0.2-0.7 0.2-0.4 0.5-0.6 0.1-0.1 0.2-0.2 0.1-0.1 0.2-0.2 0.2-0.1 0.3 0 0.2 0 0.1 0.3 0 0 0 0-0.1 0.4 0 0.7 0 0.4 0.3 0.7 0 0 0 0 0 0 0 0.1 0.2 0.2 0.3 0.5 0.2 0.3 0.4 0.5 0.3 0.1 0.6 0.2 0.3 0 0.5 0.1 0.3 0.1 0.5 0.1 0.2 0 0.4 0.1 0.3 0.1 0.5-0.1 0.2-0.2 0.3-0.4 0.3-0.3 0.4-0.5 0.1-0.1 0.2-0.4 0.2-1.4 0.3-2.6 0.1-1 0.2-1.9 0-0.4 0-0.8 0-1.2-0.2-2.5l-0.3-1.8q-0.1-0.7-0.1-1.4-0.1-0.6-0.1-1.3-0.1-0.6-0.5-1-0.4-0.4-0.9-0.8-0.4-0.4-0.8-0.8-0.3-0.1-0.3-0.2 0-0.1 0.1-0.4l0.3-0.6q0.1-0.3 0.3-0.2 0.3 0 0.6 0 0.2 0.1 0.5 0.1 0.4 0 0.9 0.1 0.5 0 0.9 0.1 0.4 0.1 0.8 0 0.7-0.2 1.4-0.3 0.7-0.2 1.4-0.4 0.2-0.1 0.4-0.1 0.2 0 0.3 0.2 0.2 0.3 0.3 0.5 0.2 0.3 0.3 0.6zm15.7 19q-0.1 0-0.2 0.1h-0.2q-0.6-0.1-1.1-0.1-0.6-0.1-1.2-0.1-0.5-0.1-1.1-0.1-0.5 0-1.1 0.1-0.4 0.1-0.8 0.1-0.4 0-0.8 0-0.3 0.1-0.6 0.1-0.3-0.1-0.6-0.1-0.1-0.3-0.1-0.6 0.1-0.3 0.4-0.7 0-0.1 0.1-0.2 0.1-0.1 0.2-0.2 0.2-0.2 0.1-0.6 0-0.6 0-1.2 0-0.6-0.1-1.2 0-0.3-0.1-0.4 0-0.1-0.4-0.1-0.5-0.1-1-0.1-0.4 0-0.9 0-0.2 0-0.5 0-0.2 0-0.4 0.1-0.2 0.1-0.4 0.2-0.2 0.1-0.2 0.3-0.1 0.5-0.1 0.9 0 0.4-0.1 0.8-0.2 0.5-0.1 0.9 0.2 0.4 0.5 0.8 0.1 0.1 0.1 0.2 0.1 0.1 0.2 0.2 0.5 0.4 0.4 0.9-0.1 0.5-0.3 1-0.4-0.1-0.8-0.2-0.4 0-0.8-0.1-0.4-0.1-0.8-0.2-0.4-0.1-0.8-0.3-0.3 0-0.6 0-0.3 0-0.6 0.1-0.6 0.1-1.2 0.2-0.6 0.1-1.2 0.2-0.2 0-0.3 0-0.1-0.1-0.1-0.3l-0.1-0.7q0-0.2 0-0.2 0.1-0.1 0.3-0.2 0.1-0.1 0.3-0.1 0.1 0 0.3-0.1 0.5-0.1 0.6-0.6 0.4-0.6 0.6-1.2 0.3-0.6 0.7-1.2 0.9-1.6 1.3-3.4l0.5-1.9 0.6-2.6q0.1-0.3 0.2-0.5 0.1-0.4 0.2-0.7l0.7-2.8q0.1-0.1 0.1-0.3 0-0.2-0.1-0.3 0-0.2-0.1-0.4 0-0.2 0-0.4 0-0.3-0.2-0.6-0.2-0.2-0.5-0.4-0.3-0.2-0.4-0.3-0.2-0.2-0.5-0.4-0.3-0.2-0.3-0.5 0-0.2-0.1-0.3 0-0.2 0-0.4 0.8 0.1 1.5 0.2 0.7 0.1 1.4 0.2l1.4 0.3q0.2 0.1 0.5 0.1 0.2 0 0.4-0.1 0.9-0.2 1.7-0.4 0.8-0.2 1.6-0.4 0.2-0.1 0.2 0 0.2 0 0.3-0.1 0.2 0.3 0.1 0.6 0 0.3 0 0.6 0 0.1-0.2 0.2-0.2 0.2-0.5 0.4-0.2 0.1-0.4 0.2-0.4 0.3-0.4 0.8-0.1 0.9-0.1 1.8 0 1-0.1 1.9 0 0.3 0.1 0.6 0.4 1.4 0.7 2.7 0.1 0.2 0.1 0.3 0.4 1.5 0.7 3 0.1 0.1 0.2 0.3 0 0.2 0.1 0.4 0.2 0.4 0.4 0.8 0.2 0.4 0.5 0.8 0.3 0.7 0.6 1.3 0.4 0.6 0.7 1.2 0.2 0.5 0.8 0.6 0.1 0 0.3 0.1 0.2 0 0.4 0.1 0.2 0 0.3 0.2 0.1 0.4 0.1 0.7 0 0.4 0.1 0.7zm-7.6-8q-0.3-1-0.5-2-0.1-0.2-0.1-0.4-0.3-1.2-0.5-2.4 0-0.1 0-0.2l-0.1-0.2q-0.3 1.3-0.7 2.6-0.1 0.4-0.2 0.8-0.2 0.9-0.4 1.8 0.3 0.1 0.7 0.1h0.7q0.7 0 1.1-0.1zm23.3-1.5q-0.5 1.6-1 3.2-0.5 1.6-1.1 3.2-0.2 0.7-0.8 1.1-1 0.6-2 1.2-0.9 0.5-1.9 1.1-0.2 0.1-0.5 0.1-0.1 0-0.3 0-0.8-0.1-1.5-0.2-0.8-0.1-1.5-0.2-0.7-0.1-1.2 0.1-0.6 0.2-1.2 0.5-0.6 0.2-1.2 0.4-0.1 0-0.2 0.1-0.1 0-0.2 0-0.1-0.4-0.1-0.8 0-0.4 0-0.8-0.1-0.2 0-0.3 0.1 0 0.1-0.1 0.2-0.2 0.4-0.4 0.2-0.2 0.4-0.4 0.3-0.2 0.4-0.6 0.4-1.5 0.7-3 0.4-1.6 0.8-3.1 0.1-0.8 0.1-1.6 0-0.7-0.1-1.5 0-0.2 0-0.5-0.1-0.4-0.2-0.8 0-0.6-0.1-1.3 0-0.8-0.1-1.6-0.1-0.7-0.2-1.6 0-0.3-0.3-0.4-0.3-0.1-0.6-0.2-0.3-0.1-0.5-0.2-0.3-0.1-0.3-0.2 0 0 0-0.3v-0.5q0-0.2 0-0.4 0-0.2 0-0.2 0.1-0.1 0.1-0.3h0.4q0.2 0 0.4 0 1.8 0.1 3.7 0.3 1.9 0.1 3.7 0.2 0.4 0 0.6 0.2 0.8 0.6 1.5 1.1 0.8 0.6 1.6 1.1 0.4 0.2 0.5 0.6 0.5 1.1 0.9 2.3 0.1 0.3 0.2 0.7 0.2 0.8 0.4 1.6 0.1 0.2 0.1 0.5 0.1 0.2 0.1 0.4 0.3 0.7 0 1.5zm-3.8-1q-0.4-1.2-0.7-2.4 0-0.1-0.1-0.1-0.3-1.2-0.7-2.5 0-0.4-0.4-0.5l-2-0.6q-0.1 0-0.4-0.1-0.4-0.1-0.5-0.1-0.1 0.1-0.1 0.3 0 0.3 0 0.4-0.2 1.1-0.2 2 0 0.8-0.2 1.7 0 0.1 0 0.2 0 0.5-0.1 1-0.1 0.5 0 1 0.1 1.3 0 2.5-0.1 1.2 0 2.7 0 0.5 0 1.1 0 0.6 0 1.1 0.2 0 0.6-0.1 0.4 0 0.5-0.1 0.6-0.2 1.1-0.4 0.6-0.2 1.1-0.4 0.6-0.2 0.7-0.7 0.4-1.4 0.7-2.6 0.4-1.3 0.7-2.6 0.2-0.4 0-0.8zm20.6 10.5q-0.1 0-0.2 0.1h-0.2q-0.6-0.1-1.1-0.1-0.6-0.1-1.2-0.1-0.6-0.1-1.1-0.1-0.6 0-1.1 0.1-0.4 0.1-0.9 0.1-0.3 0-0.7 0-0.3 0.1-0.6 0.1-0.3-0.1-0.6-0.1-0.1-0.3-0.1-0.6 0-0.3 0.3-0.7 0.1-0.1 0.2-0.2 0.1-0.1 0.2-0.2 0.1-0.2 0.1-0.6 0-0.6-0.1-1.2 0-0.6 0-1.2 0-0.3-0.1-0.4-0.1-0.1-0.4-0.1-0.5-0.1-1-0.1-0.5 0-1 0-0.1 0-0.4 0-0.2 0-0.5 0.1-0.2 0.1-0.4 0.2-0.1 0.1-0.2 0.3 0 0.5 0 0.9-0.1 0.4-0.2 0.8-0.1 0.5 0 0.9 0.1 0.4 0.5 0.8 0 0.1 0.1 0.2 0.1 0.1 0.1 0.2 0.5 0.4 0.4 0.9-0.1 0.5-0.3 1-0.4-0.1-0.7-0.2-0.4 0-0.8-0.1-0.4-0.1-0.8-0.2-0.4-0.1-0.8-0.3-0.3 0-0.7 0-0.2 0-0.5 0.1-0.7 0.1-1.3 0.2-0.5 0.1-1.2 0.2-0.2 0-0.2 0-0.1-0.1-0.1-0.3l-0.1-0.7q-0.1-0.2 0-0.2 0-0.1 0.2-0.2 0.2-0.1 0.3-0.1 0.2 0 0.3-0.1 0.5-0.1 0.7-0.6 0.3-0.6 0.6-1.2 0.3-0.6 0.6-1.2 0.9-1.6 1.4-3.4l1.1-4.5q0.1-0.3 0.2-0.5 0.1-0.4 0.1-0.7l0.3-1 0.5-1.8q0.1-0.1 0-0.3 0-0.2 0-0.3 0-0.2-0.1-0.4 0-0.2-0.1-0.4 0-0.3-0.2-0.6-0.1-0.2-0.4-0.4-0.3-0.2-0.5-0.3-0.2-0.2-0.4-0.4-0.3-0.2-0.3-0.5-0.1-0.2-0.1-0.3 0-0.2 0-0.4 0.8 0.1 1.4 0.2 0.8 0.1 1.5 0.2l1.4 0.3q0.2 0.1 0.4 0.1 0.3 0 0.5-0.1 0.8-0.2 1.6-0.4 0.9-0.2 1.7-0.4 0.1-0.1 0.2 0 0.1 0 0.3-0.1 0.1 0.3 0.1 0.6 0 0.3 0 0.6 0 0.1-0.2 0.2-0.3 0.2-0.5 0.4-0.2 0.1-0.5 0.2-0.4 0.3-0.4 0.8 0 0.9 0 1.8-0.1 0.8-0.1 1.6 0 0.1 0 0.3 0 0.3 0.1 0.6 0.4 1.5 0.8 3 0.4 1.5 0.7 3 0.1 0.1 0.1 0.3 0.1 0.2 0.2 0.4 0.2 0.4 0.4 0.8 0.2 0.4 0.4 0.8 0.4 0.7 0.7 1.3 0.3 0.6 0.7 1.2 0.2 0.5 0.8 0.6 0.1 0 0.3 0.1 0.2 0 0.4 0.1 0.2 0 0.3 0.2 0 0.4 0.1 0.7 0 0.4 0.1 0.7zm-7.7-8q-0.2-1.2-0.5-2.4-0.3-1.2-0.5-2.4 0-0.1 0-0.2-0.1-0.1-0.1-0.2-0.4 1.3-0.7 2.6-0.4 1.3-0.6 2.6 0.3 0.1 0.7 0.1h0.7q0.7 0 1-0.1z"/>
			<path class="s8" d="m97.3 131.7q-0.1-0.2-0.2-0.3 0.7 0.1 1.3 0.2-0.1 0.1-0.2 0.1-0.3 0.1-0.6 0.1-0.2 0.1-0.3-0.1z"/>
			<path class="s8" d="m100.4 141.8q-0.1 0.3-0.2 0.6-0.1 0.3-0.3 0.6 0 0.1-0.1 0.2-0.4 0.9-0.6 1.8-0.1 1 0 1.9 0.1 0.1 0 0.2 0 0.5-0.4 0.4-0.8-0.2-1.6-0.3-0.8-0.1-1.6-0.2-0.6-0.1-1.2-0.1-0.5-0.1-1.1-0.2-0.6-0.1-1.2-0.1-0.6 0-1.2 0.2-0.9 0.2-1.7 0.4-0.8 0.2-1.6 0.4-0.1 0-0.3 0-0.1 0-0.3 0.1-0.1-0.7-0.2-1.3 0-0.4 0.3-0.7 0.3-0.3 0.6-0.6 0.2-0.3 0.5-0.7 0.4-0.4 0.4-0.7 0.4-1.4 0.7-2.7 0.4-1.3 0.5-2.7 0.1-0.5 0.1-1.1-0.2-1.3-0.3-2.6-0.2-1.4-0.4-2.7-0.1-0.4-0.1-0.8-0.1-0.4-0.1-0.8 0-0.1 0-0.1 2.1 0.2 4.4 0.5-0.1 0-0.1 0.1-0.2 0.1-0.3 0.2-0.1 0.2-0.2 0.5-0.1 0.2-0.1 0.5 0 0.7-0.1 1.3v1.3q0 0.2 0.1 0.3 0 0.2 0.1 0.2 0.1 0.2 0.3 0.3 0.2 0.1 0.5 0 0.4 0 0.9-0.2 0.5-0.1 0.8-0.5 0.3-0.6 0.7-1.2 0.1-0.3 0.2-0.3 0.1-0.1 0.4 0.1 0.4 0.2 0.5 0.3 0.1 0 0 0.6-0.2 0.6-0.4 1.3-0.1 0.7-0.3 1.3 0 0.4 0.1 0.7 0.1 0.5 0.2 1.1 0.2 0.5 0.3 1-0.3 0.1-0.6 0.1-0.2 0-0.5-0.1-0.2-0.1-0.3-0.3 0-0.2-0.1-0.3-0.1-0.1-0.1-0.2-0.3-0.8-1-0.7-0.3 0-0.7 0.1-0.3 0.1-0.7 0.1-0.2 0.1-0.2 0.3-0.1 0.6-0.2 1.1-0.1 0.6 0 1.1 0 0.6 0.1 1.2 0.1 0.5 0.1 1.1 0 0.1 0.1 0.2 0 0.1 0 0.2 0.3 0.1 0.5 0.1 0.3 0 0.5 0.1 0.4 0.1 0.8 0.1 0.4 0 0.8 0.1 0.5 0.1 0.8-0.1 0.4-0.3 0.8-0.5 0.4-0.2 0.8-0.4 0.2-0.1 0.2-0.2 0.1-0.2 0.2-0.3l0.4-1q0-0.2 0.3-0.1 0.3 0 0.6 0.1 0.3 0 0.7 0.1 0.3 0.1 0.1 0.3z"/>
			<path class="s8" d="m114 138.3q-0.2 0.3-0.3 0.7-0.1 0.4-0.2 0.8-0.1 0.4-0.2 0.8-0.1 0.3-0.2 0.3 0 0-0.2 0h-0.9q-0.3 0-0.3 0-0.1 0-0.2-0.3-0.2-0.8-0.5-1.5-0.3-0.8-0.5-1.6-0.3-0.8-0.7-1.4-0.4-0.4-0.7-0.8-0.3-0.4-0.6-0.8-0.1-0.1-0.2-0.1 0-0.1-0.2-0.3 0 0.3-0.1 0.5 0 0.2 0 0.4-0.1 1-0.2 2.1-0.2 1-0.2 2-0.1 0.3 0 0.5 0 0.3 0 0.5 0.2 1.8 0.7 3.4 0.1 0.4 0.5 0.7 0.3 0.2 0.7 0.5 0.3 0.3 0.7 0.6-0.1 0.3-0.2 0.5 0 0.3-0.1 0.6-0.1 0.2-0.2 0.3-0.1 0-0.3-0.1-0.6-0.1-1.1-0.2-0.5-0.1-1-0.2-0.1-0.1-0.2-0.1-0.2 0-0.3-0.1-0.3-0.1-0.6-0.1-0.3 0-0.6 0-0.6 0-1.3 0.1l-2.4 0.3q-0.3 0-0.3-0.2 0-0.3 0-0.6v-0.5q0-0.4 0.3-0.5 0.3 0 0.6-0.1 0.2-0.1 0.5-0.1 0.5-0.1 0.6-0.6 0.3-1.6 0.6-3.1 0.3-1.6 0.6-3.1 0-0.1 0-0.2v-0.2l0.1-4.1q3.5 0.8 7.2 1.6 0.4 0.1 0.9 0.2 1.4 0.4 2.9 0.7-0.3 0.3-0.5 0.7-0.5 0.7-0.9 1.4-0.3 0.3-0.5 0.7z"/>
			<path class="s8" d="m123 145.1q0.1 0.1 0.1 0.3-0.1 0.4-0.2 0.8-0.1 0.5-0.2 0.9-0.3 0-0.5 0-0.5-0.1-1-0.1-0.6-0.1-1.1-0.2-0.4-0.1-0.8-0.1-0.4-0.1-0.8-0.2-0.3 0-0.6 0.1-0.8 0.2-1.6 0.5-0.8 0.3-1.6 0.6-0.1 0-0.2 0.1-0.1 0-0.2 0-0.2 0-0.3 0 0-0.1-0.1-0.2l-0.1-1.2q0-0.3 0.3-0.5 0.3-0.1 0.5-0.3 0.3-0.2 0.6-0.4 0.5-0.3 0.6-1 0.1-0.7 0.2-1.4 0.2-0.8 0.4-1.5 0.1-0.7 0.2-1.3 0.1-0.7 0.1-1.4-0.1-0.9-0.1-1.9v-1q1.5 0.3 2.9 0.6 0 0.3 0 0.6-0.1 0.7-0.1 1.4 0 0.6-0.1 1.3v0.3q0 0.1 0 0.2 0.2 0.8 0.5 1.7 0.2 0.8 0.4 1.7 0.1 0.5 0.5 0.6 0.5 0.2 0.9 0.4 0.5 0.2 1 0.4 0 0.1 0.1 0.1 0.2 0 0.3 0.1z"/>
			<path class="s8" d="m138.9 141.1q-0.3 0.6-0.5 1.3-0.3 0.7-0.5 1.3-0.3 0.5-0.4 0.8-0.1 0.2-0.2 0.4-0.1 0.1-0.3 0.2-0.2 0.2-0.7 0.4-0.1 0.1-0.3 0.3-0.2 0.1-0.4 0.2-0.3 0.2-0.7 0.3-0.4 0.1-0.8 0.1-1.1 0.1-2.4 0.1-1.2 0.1-2.5 0.2-1.2 0.1-2.4 0.4-1.2 0.3-2.3 0.7 0 0-0.1 0-0.1 0-0.1 0.1-0.1-0.1-0.1-0.2-0.1-0.1-0.1-0.2-0.1-0.4-0.2-0.7 0-0.4-0.1-0.8-0.1-0.7 0.4-1 0.2-0.1 0.4-0.3 0.2-0.1 0.4-0.3 0.2-0.2 0.4-0.3 0.2-0.2 0.4-0.3 0.2-0.2 0.3-0.4 0.2-0.1 0.2-0.4 0.2-1 0.4-1.9 0.1-1 0.3-2 0-0.4 0.1-0.8 0-0.2 0-0.4 1.4 0.2 2.8 0.5 0 0.5 0 1.1 0.1 0.7 0.2 1.4 0 0.6 0.2 1.2 0.1 0.7 0.2 1.3 0.1 0.3 0.3 0.4 0.4 0.1 0.8 0.3 0.4 0.1 0.8 0.2 0.4 0.2 0.7-0.2 0.3-0.5 0.7-1 0.3-0.5 0.6-1 0.3-0.3 0.1-0.7-0.1-0.4-0.2-0.8-0.1-0.4-0.2-0.8-0.1-0.2-0.2-0.4 0-0.2 0-0.4 2.5 0.4 5 0.7 0 0.1 0.1 0.3 0.1 0.6-0.1 1.1z"/>
			<path class="s8" d="m148.8 145.1v1.4h-0.4q-0.6 0-1.2-0.1-0.6-0.1-1.3-0.2-0.4 0-0.8-0.1-0.4-0.1-0.8-0.1-0.1 0-0.3 0-0.8 0.2-1.5 0.4-0.8 0.2-1.5 0.5-0.3 0.1-0.4 0.1-0.1-0.3-0.1-0.3v-0.7q0.1-0.3 0.1-0.6-0.1-0.3 0.2-0.5 0.3-0.2 0.5-0.3 0.3-0.2 0.5-0.3 0.5-0.3 0.6-0.9 0.1-1 0.2-1.9 0.1-0.7 0.2-1.3 1.5 0.1 3.1 0.2 0 0.2-0.1 0.4 0 0.5 0 1.1 0 0.2 0.1 0.4 0.3 0.5 0.5 0.9 0.2 0.4 0.5 0.9 0 0.1 0.1 0.2 0.2 0 0.3 0.1 0.4 0.1 0.6 0.2 0.4 0 0.7 0.1 0.3 0.1 0.2 0.4z"/>
			<path class="s8" d="m156.7 145.5q0.2 0.2 0.3 0.5-0.3 0.1-0.4 0.2-0.6 0.2-1.1 0.4-0.6 0.1-1.2 0.4-0.3 0.1-0.5 0.3-0.5 0.5-1.1 1-0.5 0.6-1.1 1.1 0 0.1-0.1 0.1-0.5-0.6-1-1.3 0-0.1 0-0.2 0-0.1 0-0.1 0.1-0.2 0.2-0.4 0.1-0.2 0.3-0.4 0.1-0.3 0.1-0.5 0-0.2 0-0.5-0.1-0.4-0.2-0.9-0.1-0.4-0.2-0.9-0.2-0.5-0.3-0.9-0.2-0.5-0.3-1-0.1-0.3-0.2-0.6-0.4-0.6-0.7-1.2 0 0-0.1 0 1.3 0 2.6 0h0.5q0.1 0.2 0.2 0.5 0.1 0.1 0.1 0.3 0.1 0.1 0.2 0.3 0.5 0.6 1 1.3 0.6 0.6 1.1 1.3 0.3 0.4 0.7 0.3 0.1 0 0.1 0 0.5-0.1 0.6 0 0 0 0.2 0.4 0.2 0.2 0.3 0.5z"/>
			<path class="s8" d="m172.3 143.7q-0.1 0.6-0.3 1.1-0.1 0.2-0.2 0.3-0.3 0.4-0.8 0.9-0.5 0.5-1.1 0.9-0.6 0.5-1.2 0.8-0.6 0.3-1.1 0.3-0.7 0-1.4-0.1-0.7 0-1.4-0.1-0.3-0.1-0.6-0.1-0.3 0-0.5 0-0.5 0-0.7-0.4-0.5-0.5-0.9-1-0.5-0.5-1-1.1-0.2-0.2-0.4-0.4-0.1-0.3-0.4-0.5-0.2-0.4-0.2-0.8 0-0.2 0-0.4l0.1-0.9q0-0.1 0-0.2 0-0.1 0.1-0.2 0-0.7 0.1-1.4v-0.1q1.8-0.1 3.7-0.3 0 0.3 0 0.6-0.1 1.1 0 2.2 0 0.1 0.1 0.2 0.1 0.2 0.2 0.4 0.1 0.1 0.3 0.3 0.1 0.1 0.1 0.2 0 0.1 0.3 0.2 0.4 0.2 0.5 0.2 0.3 0.1 0.6 0 0.2-0.1 0.5 0 0.2 0.1 0.3 0 0.1-0.2 0.2-0.3 0.1-0.2 0.2-0.3 0.1-0.2 0.2-0.3 0.3-0.5 0.4-1 0-0.5 0.2-1.5 0-0.5 0.1-1.2 1.9-0.3 3.9-0.5 0 0.7 0 1.5 0.1 0.7 0.1 1.5v0.3q0.2 0.6 0 1.2z"/>
			<path class="s8" d="m182.4 143q0.1 1-0.4 1.7-0.4 0.4-0.7 0.9-0.4 0.5-0.7 1-0.3 0.4-0.8 0.4-0.6 0.1-1.1 0.3-0.6 0.1-1.1 0.2-0.4 0.1-0.7 0.1-0.4 0-0.7 0.1-0.4 0-0.8-0.2-0.6-0.6-1.2-1.1-0.6-0.5-1.2-1-0.3-0.2-0.3-0.4 0.1-0.6 0.1-1.2 0-0.6 0-1.2 0-0.4 0.2-0.7 0.2-0.4 0.5-0.6 0.2-0.1 0.2-0.2 0.1-0.1 0.2-0.2 0.2-0.1 0.3 0 0.2 0 0.2 0.3 0 0-0.1 0-0.1 0.4 0 0.7 0.1 0.4 0.3 0.7 0 0 0 0v0.1q0.2 0.2 0.4 0.5 0.1 0.3 0.4 0.5 0.2 0.1 0.5 0.2 0.3 0 0.6 0.1 0.2 0.1 0.4 0.1 0.2 0 0.4 0.1 0.3 0.1 0.5-0.1 0.2-0.2 0.4-0.4 0.2-0.3 0.3-0.5 0.2-0.1 0.2-0.4 0.2-1.4 0.3-2.6 0.1-1 0.2-1.9 1.3-0.2 2.5-0.4 0.2 1.2 0.3 2.4 0.2 1.3 0.4 2.7z"/>
			<path class="s8" d="m200.2 146.3q-0.1 0-0.2 0.1h-0.2q-0.5-0.1-1.1-0.1-0.6-0.1-1.2-0.1-0.5-0.1-1.1-0.1-0.5 0-1.1 0.1-0.4 0.1-0.8 0.1-0.4 0-0.8 0-0.3 0.1-0.5 0.1-0.3-0.1-0.6-0.1-0.1-0.3-0.1-0.6 0-0.3 0.3-0.7 0.1-0.1 0.1-0.2 0.1-0.1 0.2-0.2 0.2-0.2 0.2-0.6-0.1-0.6-0.1-1.2 0-0.6 0-1.2-0.1-0.3-0.1-0.4-0.1-0.1-0.4-0.1-0.6-0.1-1-0.1-0.5 0-1 0-0.2 0-0.4 0-0.3 0-0.5 0.1-0.2 0.1-0.4 0.2-0.2 0.1-0.2 0.3-0.1 0.5-0.1 0.9 0 0.4-0.1 0.8-0.2 0.5 0 0.9 0.1 0.4 0.4 0.8 0.1 0.1 0.2 0.2 0 0.1 0.1 0.2 0.5 0.4 0.4 0.9-0.1 0.5-0.3 1-0.4-0.1-0.8-0.2-0.4 0-0.7-0.1-0.4-0.1-0.8-0.2-0.5-0.1-0.9-0.3-0.3 0-0.6 0-0.3 0-0.6 0.1-0.6 0.1-1.2 0.2-0.6 0.1-1.2 0.2-0.2 0-0.3 0 0-0.1-0.1-0.3l-0.1-0.7q0-0.2 0.1-0.2 0-0.1 0.2-0.2 0.1-0.1 0.3-0.1 0.1 0 0.3-0.1 0.5-0.1 0.7-0.6 0.3-0.6 0.6-1.2 0.2-0.6 0.6-1.1 0.9-1.7 1.3-3.5l0.5-1.9q1.7-0.3 3.4-0.6-0.2 0.9-0.4 1.8 0.3 0.1 0.7 0.1h0.7q0.7 0 1.1-0.1-0.2-1-0.5-2 1.4-0.3 2.9-0.5 0 0.2 0 0.3 0.4 1.5 0.8 3 0 0.1 0.1 0.3 0.1 0.2 0.2 0.4 0.2 0.4 0.3 0.8 0.3 0.4 0.5 0.8 0.3 0.7 0.6 1.3 0.4 0.6 0.7 1.2 0.2 0.5 0.8 0.6 0.2 0 0.4 0.1 0.1 0 0.3 0.1 0.3 0 0.3 0.2 0.1 0.4 0.1 0.7 0.1 0.4 0.1 0.7z"/>
			<path class="s8" d="m216 136.8q-0.6 1.6-1.1 3.2-0.5 1.6-1 3.2-0.3 0.7-0.9 1.1-1 0.6-1.9 1.2-1 0.5-2 1.1-0.2 0.1-0.4 0.1-0.2 0-0.4 0-0.8-0.1-1.5-0.2-0.8-0.1-1.5-0.2-0.7-0.1-1.2 0.1-0.6 0.2-1.2 0.5-0.5 0.2-1.1 0.4-0.1 0-0.2 0.1-0.2 0-0.3 0 0-0.4-0.1-0.8 0-0.4 0-0.8-0.1-0.2 0-0.3 0.1 0 0.1-0.1 0.3-0.2 0.4-0.4 0.2-0.2 0.4-0.4 0.3-0.2 0.4-0.6 0.4-1.5 0.8-3 0.3-1.6 0.7-3.1 0.2-0.8 0.2-1.6 0-0.7-0.1-1.5-0.1-0.2-0.1-0.5 1.4-0.2 2.9-0.4 0 0.1-0.1 0.2 0 0.5-0.1 1 0 0.5 0 1 0.1 1.3 0 2.5-0.1 1.2 0 2.7 0 0.5 0 1.1 0 0.6 0.1 1.1 0.1 0 0.5-0.1 0.5 0 0.6-0.1 0.5-0.2 1.1-0.4 0.5-0.2 1-0.4 0.6-0.2 0.8-0.7 0.3-1.4 0.7-2.6 0.3-1.3 0.6-2.6 0.2-0.4 0-0.8-0.3-1.2-0.7-2.4 0-0.1 0-0.1 2-0.3 3.9-0.5 0.3 0.8 0.5 1.6 0 0.2 0 0.5 0.1 0.2 0.2 0.4 0.2 0.7 0 1.5z"/>
			<path fill-rule="evenodd" class="s8" d="m232.7 146.3q-0.1 0-0.2 0.1h-0.2q-0.6-0.1-1.1-0.1-0.6-0.1-1.2-0.1-0.6-0.1-1.1-0.1-0.6 0-1.1 0.1-0.4 0.1-0.8 0.1-0.4 0-0.8 0-0.3 0.1-0.6 0.1-0.3-0.1-0.6-0.1-0.1-0.3-0.1-0.6 0.1-0.3 0.3-0.7 0.1-0.1 0.2-0.2 0.1-0.1 0.2-0.2 0.2-0.2 0.1-0.6 0-0.6-0.1-1.2 0-0.6 0-1.2 0-0.3-0.1-0.4 0-0.1-0.4-0.1-0.5-0.1-1-0.1-0.5 0-1 0-0.1 0-0.4 0-0.2 0-0.4 0.1-0.3 0.1-0.4 0.2-0.2 0.1-0.2 0.3-0.1 0.5-0.1 0.9-0.1 0.4-0.2 0.8-0.1 0.5 0 0.9 0.1 0.4 0.5 0.8 0 0.1 0.1 0.2 0.1 0.1 0.1 0.2 0.5 0.4 0.4 0.9 0 0.5-0.2 1-0.4-0.1-0.8-0.2-0.4 0-0.8-0.1-0.4-0.1-0.8-0.2-0.4-0.1-0.8-0.3-0.3 0-0.6 0-0.3 0-0.6 0.1-0.7 0.1-1.3 0.2-0.5 0.1-1.1 0.2-0.3 0-0.3 0-0.1-0.1-0.1-0.3l-0.1-0.7q0-0.2 0-0.2 0.1-0.1 0.2-0.2 0.2-0.1 0.4-0.1 0.1 0 0.3-0.1 0.4-0.1 0.6-0.6 0.3-0.6 0.6-1.2 0.3-0.6 0.6-1.1 1-1.7 1.4-3.5l1.1-4.4q0.1-0.4 0.2-0.6 0.1-0.4 0.2-0.7l0.2-1q3.2-0.2 5.8-0.1 0 0.1 0 0.3 0 0.3 0.1 0.6 0.4 1.5 0.8 3 0.4 1.5 0.7 3 0.1 0.1 0.2 0.3 0 0.2 0.1 0.4 0.2 0.4 0.4 0.8 0.2 0.4 0.5 0.8 0.3 0.7 0.6 1.3 0.4 0.6 0.7 1.3 0.2 0.4 0.8 0.5 0.1 0 0.3 0.1 0.2 0 0.4 0.1 0.2 0 0.3 0.2 0.1 0.4 0.1 0.7 0 0.4 0.1 0.7zm-7.6-8q-0.3-1.2-0.6-2.4-0.3-1.2-0.5-2.4 0-0.1 0-0.2 0-0.1-0.1-0.2-0.3 1.3-0.7 2.6-0.4 1.3-0.6 2.6 0.3 0.1 0.7 0.1h0.7q0.7 0 1.1-0.1z"/>
			<path class="s9" d="m29.4 163.4q0 0 0 0c-1.2-0.2-2-1.2-1.9-2.3 0-0.1 0.4-3.7 2.4-7.6 2.7-5.2 7.1-8.5 12.6-9.4 1.1-0.2 2.1 0.5 2.3 1.6 0.2 1.2-0.5 2.2-1.6 2.4-10.3 1.8-11.6 13.3-11.6 13.4-0.1 1.1-1.1 2-2.2 1.9z"/>
			<path class="s9" d="m29.8 167.1c-1.2 0.1-2.4 0-3.8-0.1q-0.1 0-0.1-0.1c-0.4-1.8-0.9-4.3-1.7-7-2.2-7.9-6.3-18-13.4-22.2 0 0 2.7-4.7 11.9-2.6 0 0 4.4 13.8 6.3 25.3 0.4 2.4 0.7 4.7 0.8 6.7z"/>
			<g>
				<path class="s10" d="m42.6 232.4q0.7-0.4 1.3-0.7z"/>
				<path class="s10" d="m41.7 230.4l0.6 1.4-0.6-1.4z"/>
				<path class="s10" d="m42.6 231.9l-0.3-0.1 0.1 0.2q0.1-0.1 0.2-0.1z"/>
				<path class="s10" d="m44 229.2l-1.4 1.6c0-0.1 0.2-0.3 1.4-1.6z"/>
				<path class="s10" d="m42.6 232.4l-0.2-0.4 0.2 0.4z"/>
				<path class="s10" d="m71.5 221.3c7.2-13.1 7.8-25.5 5.6-35.4-2.1-9.8-7-17.2-10.8-20.6q-0.2-0.1-0.4-0.3c-6-4.9-12-3.7-15.4-2.3q-0.8 0.3-1.4 0.7c-2.5-2.2-4.9-3.6-7.3-4.2-2.8-0.8-5.4-0.6-7.5 0-2.2 0.6-3.9 1.6-5.1 2.4q-0.2 0.1-0.3 0.2-0.2-0.1-0.4-0.3c-1.1-1-2.7-2.2-4.9-3.1-4-1.8-9.6-2.4-15.8 1.4-1.3-0.9-3.2-2.1-5.9-2.6-1-0.3-2-0.4-3.1-0.4-2.1 0-4.3 0.3-6.8 1.2-2.6 1-5.3 3.2-7.9 6.2-2.5 3-4.9 7-6.8 11.8-3.6 9.5-4.8 22.2 0.1 36.4h0.2q0-0.2-0.2-0.5l0.2 0.5c2.1 5.7 4.7 9.7 7.6 12.2 3 2.7 6.2 3.8 9.1 4.1 2.8 0.3 5.3-0.3 7.1-0.8q0.8-0.3 1.5-0.6 0.1 0.1 0.3 0.2c0.9 0.8 2.3 1.7 4 2.5 3.5 1.7 8.5 2.9 14.3 1.2h0.1v-0.1l0.5-0.1 0.4-0.2q0.4-0.1 0.8-0.3 0.3 0.3 0.7 0.5c7.7 4.5 14.7 2.6 18.4 1l-0.1-0.2 1.6-0.1q0.4 0.2 0.8 0.5c1.3 0.8 3.1 1.7 5.3 2.2 3 0.7 6.6 0.7 10.4-1.2 3.8-1.9 7.6-5.6 11.1-11.9z"/>
			</g>
			<path fill-rule="evenodd" class="s6" d="m310.3 223.1q5.3 0.1 9.8 2.2l-9.5-11.5c-8-2.4-14.2-1.4-18 0-3.6 1.1-5.8 2.8-6.3 3.3l0.2 8.9h-1l-0.3-8.9c-5.7-3.7-11.4-3.8-15.2-3.3-3.7 0.5-6.4 1.8-6.9 2.1l-6.6 10.1h-1.2l6.8-10.6c-1.7-3.5-4.4-5.6-7.9-6.1-2.5-0.4-4.6 0-5 0.1-4.3 2.8-8.4 5.2-12.2 7.3 1.5 0.3 3.9 0.9 6.4 2.3 2.4 1.3 5.2 3.5 7.3 7h-1.2q-2.4-3.8-6.5-6c-3.5-2-6.8-2.4-7.5-2.5-8.1 4.4-14.6 7.2-18 8.5h-3c0.9-0.3 21.1-7.2 44-24.4 21.6-16.1 50.1-44.7 63.2-89.6h0.2v2.9c-2.7 8.8-6.1 17.3-10.2 25.5-0.5 5.4 8.2 7.6 10.2 8.1v3c-3.2 10.5-2 20.6 0 27.9v3.5q-0.1-0.4-0.2-0.8c-1.7-5.1-2.6-10.3-2.8-15.3-0.2-5.6 0.6-11 2.2-16.1l-6.6 5.8c-2.4 11.2-1.3 20.4 0 26.1 1.2 5.5 3 8.9 3.4 9.7l4 1.3v1.1l-4.3-1.5c-4.3 2.6-6.7 6.7-7 12.2q-0.1 0.8-0.1 1.5c0 3.2 0.7 5.7 0.8 6.2l10.3 12.5c-0.2-2.3-0.4-6.4 0-11q0.1-1.8 0.3-3.5v14.9h-2.8c-6.8-3-14.3-1.8-19.9 0h-3q1-0.4 2.2-0.8c4.2-1.4 8.2-2.1 11.9-2.1zm-9.2-35.3q0 0 0 0zm-3.8 3.5c-0.9 2.8 0.9 6 1.1 6.3l11.5 13.9c-0.3-1.5-0.5-3.7-0.3-6.1 0.3-5.5 2.7-9.8 6.7-12.6 0 0-15.2-5-15.2-5q-2.9 1.2-3.8 3.5zm-19.4 8.1q3.7 0.3 6.9 3.7l-0.6-19.6-11 16.9c1.2-0.6 2.8-1.1 4.7-1zm7.9 2.4c0.7-1.6 2-3.6 4.1-4.6 1.9-1 4-1.1 6.5-0.4l-11.2-13.5zm0.4-18.9l10.1 12.2c-0.3-1.3-0.4-2.7 0.1-4.1 0.5-1.6 1.6-2.7 3.3-3.6zm13.1 3.2q0 0 0 0c-0.7-0.8-1.5-1.9-2.2-3.4-1.2-2.4-2.1-6.1-0.5-10.4l-10.7 9.4c0 0 13.4 4.4 13.4 4.4q0 0 0 0 0 0 0 0zm14-28.4l-14.8 12.9c-2.1 3.9-2.3 7.8-0.5 11.7 1.3 2.5 3.1 4.2 3.4 4.5l15.2 5c-0.8-1.5-2-4.6-3-8.9-0.8-3.3-1.5-7.7-1.5-13 0-3.7 0.3-7.8 1.2-12.2zm-5.9-9.2c0.3 6.5 5.4 7.2 6.5 7.2l7.3-6.3c-2.6-0.7-9.2-2.7-10.3-7.2q-1.7 3.2-3.5 6.3zm-9.4 21.3l14.9-13.2c-1.9-0.4-5.6-1.7-6.3-6.6q-5.1 8.7-11.1 16.7c-0.2 2.3 1.8 2.9 2.5 3.1zm-34.1 29.1c1.8-0.1 4.4 0.2 7.5 2.5l12.6-19.5q0.2-0.3 0.5-0.3l12.5-11c-1-0.4-2.1-1.2-2.4-2.7-8.8 11.4-19.1 21.8-30.7 31zm-1 15.6l7.9-12.3c-5-3.7-8.6-1.9-9-1.7q-1.3 1-2.6 2c-2.7 2-5.4 3.9-8 5.6 0.9 0 2 0 3.1 0.2 2.6 0.4 6.1 1.8 8.6 6.2zm22.4 1.4l-0.4-11.2c-2.2-2.6-4.5-4-7-4.3-3.2-0.2-5.7 1.8-6 2.1l-7.7 11.8c1.3-0.5 3.2-1.1 5.7-1.5 3.8-0.5 9.6-0.4 15.4 3.1zm24.1-3.4l-11.7-14.2c-2.9-1.2-5.3-1.2-7.3-0.2-3.3 1.7-4.4 6-4.5 6.5l0.3 11.3c1.1-0.8 3.1-2.1 6-3 3.8-1.3 9.7-2.4 17.2-0.4z"/>
			<path fill-rule="evenodd" class="s11" d="m43.9 228.9c0 0 3.5 3 8.4 3.4 5.1 0.3 11.6-2 17.4-12.8 14-25.6 2.8-49.1-5.1-53.7-2.1-1.2-4-1.8-5.8-2.1-1-0.1-1.8-0.2-2.7-0.2-3.6 0.2-6 1.8-6.6 2.1v0.1c0 0-0.1 0-0.1 0-10.9-10.9-21.4-1.4-21.4-1.4 0 0-8.1-11.3-20.2-2.1 0 0-0.8-0.9-2.3-1.9-2.8-1.7-7.6-3.6-13.4-0.3q-0.2 0.1-0.4 0.2"/>
			<path class="s12" d="m43.3 223.3c0-0.1 17.6-16 9.3-55.5 0 0 6 36.4-10.6 56.2z"/>
			<path class="s12" d="m1.7 219.6c0 0-14.9-18.6-2.4-56.5 0 0-10.3 36.4 3.6 57.5 0 0-1.2-1-1.2-1z"/>
			<path class="s12" d="m22.4 222.8c0 0 3-13.7 5-57.2 0 0-4.6 40.4-5 57.2z"/>
			<path fill-rule="evenodd" class="s4" d="m30.2 209.1c-4.9 0.3-9.6-0.5-13.9-1.9l-4.8 4.2-0.9-6.4c-5.7-2.7-10.4-6.3-13.4-9.3 1.1 6.1 2.9 11 5.3 14.9l4.2-1.2-1.5 4.9c3.8 4.4 8.4 7 13.3 8.1l3.6-5 2.2 5.7c5.7 0.1 11.3-1.4 16-4.1v-5.2l3.9 2.5c5.1-4.1 8.1-9.7 7.1-15.4-5.3 4.2-10.7 6.5-16 7.6l-2.3 5.1z"/>
			<path class="s4" d="m25.6 193.9l2.8 6.4-6.9-0.7z"/>
			<path fill-rule="evenodd" class="s4" d="m52.7 189l-22.9 1.2c-0.4-1.9-0.3-4 0.4-6 2.1-6.1 8.7-9.2 14.7-7.1 5.1 1.7 8.2 6.7 7.8 11.9z"/>
			<path fill-rule="evenodd" class="s4" d="m0.8 183.4l21.9 6.8c0.9-1.8 1.3-3.9 1.1-6-0.6-6.4-6.2-11.1-12.6-10.5-5.4 0.5-9.6 4.6-10.4 9.7z"/>
			<path fill-rule="evenodd" class="s12" d="m70 172.9c1.5 2 2.8 4.6 4.1 7.9 10.3 27.3-3.9 49.1-12.3 52.5-2.2 0.9-4.2 1.3-6 1.3-1 0-1.9-0.1-2.7-0.2-3.6-0.7-5.7-2.5-6.2-3h-0.1c0 0 0-0.1 0-0.1-12.3 9.3-21.4-1.5-21.4-1.5 0 0-9.6 10.1-20.3-0.6 0 0-1 0.8-2.6 1.6-2.9 1.3-8 2.5-13.3-1.6q-0.2-0.1-0.4-0.2c-3.7-3.1-9-10.7-11.1-21 2.5 7.5 6.5 13 9.6 15.4q0.1 0.2 0.3 0.3c5.2 4 10.3 2.8 13.1 1.5 1.7-0.7 2.6-1.5 2.6-1.5 10.6 10.5 20 0.6 20 0.6 0 0 9 10.6 21.1 1.5q0 0 0.1 0v0.1c0.5 0.4 2.6 2.2 6.1 2.9 0.9 0.1 1.7 0.2 2.7 0.2 1.8 0 3.7-0.4 5.9-1.3 8.3-3.4 22.3-24.8 12.1-51.8q-0.6-1.6-1.3-3z"/>
			<path fill-rule="evenodd" class="s13" d="m310 63c0 0 0 0 0-0.1l1.2-2.3c0 0-0.1-0.1-0.4-0.4q-0.3-0.5-0.8-1.2-0.1-0.3-0.3-0.7c-0.2-0.2-0.4-0.5-0.5-0.7-0.3-0.5-0.6-0.9-0.9-1.3-1.2-1.3-2.5-2.5-4.2-3.5-3.2-1.9-6.9-2.6-10.5-2.2-7 0.9-13.5 4.6-18.3 9.6-6.3 6.7-9.8 15.9-7.7 25.1 0.1 0.9 0.6 2 1 3.2v0.1c0.5 1.2 0.9 2.5 1.3 3.9 0.4 1.3 0.6 2.5 0.6 3.5-0.1 0.9-0.3 1.5-0.7 1.8-0.3 0.2-0.9 0.4-2 0.4q-0.3 0.1-0.7 0.1-0.4 0-0.8 0c-0.5 0.1-1.1 0.1-1.7 0.3-3.7 0.9-7.7 2.6-10.5 5.7-2.8 3.1-4.4 7.2-5.1 11.4-0.6 4.3-0.2 8.7 1.4 12.4q0.3 0.8 0.7 1.4c0.8 1.3 1.7 2.1 2.8 2.3 1.1 0.3 2.2 0 3-0.3q0.5-0.2 0.9-0.3 0.2-0.1 0.3-0.2 0.6-0.2 1.2-0.4c0.7-0.2 1.4-0.2 2-0.1 0.5 0.1 0.8 0.3 1.4 0.7q0.1 0.1 0.3 0.2c1.4 0.9 4.8 2.9 7.8 3.7 1.4 0.4 3.1 0.7 4.5 0 0.8-0.3 1.4-0.9 1.7-1.8 0.3-0.7 0.4-1.7 0.3-2.7 0-0.7-0.4-1.7-0.6-2.6q-0.1-0.1-0.1-0.2c-0.3-1-0.6-1.9-0.8-2.9q-0.4-1.5-0.2-2.3c0.1-0.5 0.2-0.7 0.5-0.8 0.3-0.1 0.6-0.1 1.1 0.2 0.8 0.4 1.3 1.4 1.8 2.8 2.4 6.7 2.9 13.9 2.7 21.2q0 1.2 0 2.4c-0.2 6-0.4 12.5 2.4 18.5 4.1 9.3 12.3 13.8 20.8 16.8 3.5 1.2 7.1 2.2 10.6 3.2q2.2 0.6 4.3 1.3l-0.3 1.4 1.1-1.2q0.7 0.2 1.3 0.4c2.3 0.7 3.6 1.9 4.4 3.3 0.8 1.2 1.3 2.6 1.9 4.3q0.3 0.7 0.6 1.6c0.5 1.5 1.1 2.9 1.8 4.3v0.1c0.9 1.6 1.8 3.1 3.1 4.4 5.3 5.6 13.6 6.8 20.3 3.3l2.7-1.4-2.9-1c-2.3-0.9-4.7-1.9-6.6-3.4-1.8-1.4-3.1-3.2-3.2-5.7-0.2-1.8 0.7-3.6 2.2-5.4q0.8-1.1 1.7-2.1 0.3-0.3 0.6-0.6c0.8-1 1.6-1.9 2.2-2.9 2.8-4.4 4.7-9.3 5.3-14.5 0.8-7-2.5-12.1-6.5-16.4q-1.5-1.6-3.1-3.2-0.1-0.2-0.3-0.3-1.4-1.4-2.7-2.8c-2-2.1-3.7-4.3-4.9-6.6-4.3-8.2-6.3-17.8-5.8-26.9 0.3-4.8 0.9-9.9 3.7-13.4q0.5-0.6 0.9-0.9 0.4-0.3 0.6-0.4c0 0.1 0.2 0.4 0.3 0.9v0.1c0.1 0.3 0.1 0.7 0.1 1.1q0 0.5-0.1 1 0 0.3-0.1 0.6c-0.2 1.7-0.3 3.7 0.2 5.6 0.5 1.9 1.6 3.8 3.8 4.7 1.3 0.5 2.6 0.6 3.8 0.2 1.2-0.5 2.1-1.4 2.7-2.6 0.6-1 0.9-2.2 1-3.3 0.2-0.9 0.2-1.9 0.3-2.8q0-0.2 0-0.5c0.1-2.2 0.3-3.8 1.3-4.9 0.9-1.1 1.9-1.4 3.1-1.5q0.4 0 0.8 0c1.1-0.1 2.6-0.2 4-0.9 0.5-0.2 1-0.6 1.3-1 0.3-0.6 0.4-1.1 0.3-1.6-0.2-0.9-0.8-1.6-1.2-2-1.2-1.2-2.5-2.3-3.8-3.3q-0.6-0.5-1.1-0.9-1.4-1.1-2.7-2.2c-2.4-2-4.4-4.1-5.6-6.9-1-2.4-2.4-4.8-4.5-6.3-2.1-1.6-4.7-2.4-7.8-1.4-1.7 0.5-3.3 1.4-4.9 2.5q-0.7 0.4-1.3 0.9c-1.6 1-3 2-4.5 2.7-1.9 0.8-3.6 1.1-5.5 0.4-1.1-0.4-1.9-1.6-2.6-3.2-1.2-2.9-2.4-5.1-4.2-6.8-1.8-1.7-4.1-2.8-7.1-3.8q-0.4-0.1-0.9-0.3h-0.1q-0.5-0.1-1-0.3-0.9-0.2-1.4-0.5 0.1-0.2 0.6-0.5c2.9-2.2 5.2-2.7 6.7-2.8 0.8 0 1.4 0.1 1.7 0.2q0.3 0.1 0.4 0.1 0.1 0 0.1 0zm0 0zm-9.8 2.8q0 0 0 0 0 0 0 0z"/>
			<path fill-rule="evenodd" class="s14" d="m283.1 146c0.1-7.3-0.4-14.7-2.8-21.7-0.4-1.1-0.9-2.2-1.8-3q0.1-0.2 0.1-0.5c0.2-0.7 0.6-1.3 1.4-1.6 0.7-0.2 1.4-0.1 2.1 0.2 0.7 0.4 1.1 0.9 1.5 1.5 0.4 0.7 0.7 1.4 0.9 2.1 2.5 6.8 3 14.1 2.8 21.3q0 1.2-0.1 2.4c-0.1 6-0.3 12 2.3 17.6 3.8 8.6 11.4 12.9 19.7 15.9 3.4 1.1 6.9 2.1 10.3 3.1q1.2 0.3 2.3 0.7 0.4 0.1 0.8 0.2 1.7 0.5 3.3 1c4.6 1.4 5.7 4.4 7.1 8.4q0.3 0.7 0.5 1.4 0.1 0.1 0.1 0.2 0.8 2.1 1.7 4c0.8 1.5 1.6 2.9 2.8 4.1 3.3 3.5 8.1 5.1 12.7 4.6q1.3 0.6 2.5 1c-6.2 3.2-13.8 2.1-18.6-3-1.2-1.2-2.1-2.6-2.9-4.1-0.6-1.4-1.2-2.8-1.8-4.3q-0.2-0.8-0.5-1.5c-1.4-4-2.5-7-7.2-8.5-2.1-0.6-4.3-1.3-6.5-1.9-3.5-1-7-2-10.4-3.2-8.5-3-16.2-7.3-20.1-16-2.6-5.8-2.5-11.9-2.3-18q0.1-1.2 0.1-2.4zm55.8-44.5c1.4-1.6 3.2-2.7 4 0.3 0.2 0.9 0.1 1.8 0 2.7q0 0.3-0.1 0.6c-0.5 3-0.2 7.3 3.1 8.7q0.5 0.2 1 0.3c-1.1 1.3-2.5 1.6-4.3 0.9-3.4-1.4-3.6-5.7-3.1-8.8q0-0.3 0-0.6c0.2-1 0.3-1.9 0-2.8q-0.2-0.9-0.6-1.3zm15.5-2c1.2-0.9 2.5-0.9 3.8-1q0.4-0.1 0.9-0.1-0.2 0.2-0.6 0.3c-1.1 0.6-2.3 0.7-3.4 0.7q-0.4 0.1-0.7 0.1zm-17.3-24.2q-0.1 0-0.1 0 0-0.1 0.1-0.1zm-0.1 0c-1.2 0.5-2.5 1.3-3.6 2.1q-0.7 0.4-1.3 0.8c-1.7 1.2-3.3 2.3-5.1 3-1.2 0.5-2.4 0.8-3.7 0.8 1.8-0.8 3.5-1.9 5.3-3.1q0.6-0.4 1.3-0.8c1.4-1.1 3-2 4.5-2.4q1.4-0.4 2.6-0.4zm-27.1-14.1q0.4 0.5 0.7 0.6c0 0-0.6-0.2-1.6-0.3q0.5-0.2 0.9-0.3zm-13.2-9.3q0 0 0 0 0 0 0.1 0zm-0.1 0c-6.1 1.1-11.8 4.4-16.1 8.9-1.7 1.8-3.2 3.8-4.4 6-3 5.3-4.2 11.4-2.9 17.5 0.2 0.7 0.6 1.8 1 3 1.3 3.7 3.2 8.7 0.8 10.6-0.8 0.7-2.2 0.7-3.5 0.8q-0.4 0-0.8 0c2.2-2 0.4-7-0.9-10.6-0.5-1.2-0.9-2.3-1-3-2-8.7 1.3-17.5 7.4-23.9 4.6-4.9 10.9-8.4 17.4-9.2q1.5-0.2 3-0.1zm-29.7 47.8c-2.8 1-5.4 2.4-7.3 4.5-5 5.6-6.2 15.3-3.4 22q0.3 0.7 0.6 1.2 0.1 0 0.1 0c1.4 2.5 3.1 1.9 4.9 1.1 1.3-0.5 2.7-1 4.3-0.7 0.7 0.2 1.2 0.5 1.7 0.9q0.2 0.1 0.3 0.1c1.4 1 4.8 3 7.7 3.7-1.1 4.4-9.7-0.5-12.2-2.2q-0.2-0.1-0.3-0.2c-0.5-0.3-1.1-0.6-1.7-0.8-1.6-0.4-3.1 0.2-4.4 0.7-1.9 0.7-3.6 1.4-5-1.1q-0.4-0.5-0.7-1.2c-2.9-6.9-1.6-16.8 3.4-22.4 2.6-2.9 6.3-4.4 10-5.4 0.5-0.1 1.2-0.2 2-0.2z"/>
			<path fill-rule="evenodd" class="s4" d="m296.9 90.9c-2.2 1.1-4.6 1.7-6.9 2l-1.3 2.9-1.8-2.8c-3.2 0-6.1-0.7-8.1-1.5 1.8 2.6 3.6 4.5 5.6 5.8l1.7-1.4 0.3 2.5c2.6 1.3 5.3 1.5 7.8 1.1l0.6-3.1 2.2 2.2c2.7-1.1 5-3.1 6.6-5.3l-1.1-2.4 2.3 0.4c1.5-3 1.8-6.2 0.1-8.6-1.6 3-3.6 5.2-5.8 6.8v2.8l-2.2-1.4z"/>
			<path fill-rule="evenodd" class="s4" d="m302.9 75.9l-9.2 7c-0.8-0.7-1.3-1.6-1.6-2.6-0.8-3.1 1-6.4 4.2-7.2 2.6-0.7 5.3 0.5 6.6 2.8z"/>
			<path fill-rule="evenodd" class="s4" d="m278 85.1l11.5-1.6c0-1-0.3-2-0.8-2.9-1.6-2.8-5.2-3.8-8-2.1-2.4 1.3-3.4 4.1-2.7 6.6z"/>
			<path fill-rule="evenodd" class="s6" d="m11.1 0.9q-5.3-0.1-9.8-2.2l9.6 11.5c8 2.4 14.1 1.4 18 0 3.5-1.1 5.7-2.8 6.3-3.3l-0.3-8.9h1l0.3 8.9c5.7 3.7 11.4 3.8 15.2 3.3 3.7-0.5 6.4-1.8 6.9-2.1l6.6-10.1h1.2l-6.8 10.6c1.8 3.5 4.4 5.6 8 6.2 2.5 0.4 4.6-0.1 5-0.2 4.3-2.8 8.3-5.2 12.1-7.3-1.5-0.3-3.9-0.9-6.4-2.3-2.4-1.3-5.1-3.5-7.3-7h1.2q2.5 3.8 6.5 6.1c3.5 1.9 6.8 2.3 7.5 2.4 8.2-4.4 14.7-7.2 18.1-8.5h2.9c-0.9 0.3-21.1 7.3-44 24.4-21.6 16.1-50.1 44.7-63.2 89.6h-0.2v-2.9c2.7-8.8 6.2-17.3 10.2-25.5 0.5-5.4-8.2-7.6-10.2-8.1v-3c3.2-10.5 2-20.5 0-27.9v-3.5q0.2 0.4 0.3 0.8c1.6 5.1 2.5 10.3 2.7 15.3 0.2 5.6-0.5 11-2.2 16.1l6.6-5.8c2.4-11.2 1.4-20.4 0.1-26.1-1.3-5.5-3-8.9-3.5-9.7l-4-1.3v-1.1l4.3 1.5c4.3-2.5 6.7-6.6 7-12.2q0.1-0.8 0.1-1.5c0-3.2-0.6-5.7-0.8-6.2l-10.3-12.5c0.2 2.3 0.4 6.4 0.1 11q-0.2 1.8-0.4 3.5v-14.9h2.8c6.8 3 14.3 1.8 19.9 0h3.1q-1.1 0.4-2.3 0.8c-4.2 1.4-8.2 2.1-11.9 2.1zm9.2 35.3q0 0 0 0zm3.8-3.5c0.9-2.7-0.9-6-1.1-6.3l-11.5-13.8c0.3 1.5 0.5 3.6 0.3 6-0.3 5.5-2.7 9.9-6.7 12.6 0 0 15.2 5 15.2 5q2.9-1.2 3.8-3.5zm19.4-8.1c-2.4-0.2-4.8-1.5-6.9-3.7l0.6 19.7 11-17c-1.2 0.6-2.8 1.1-4.7 1zm-7.9-2.4c-0.7 1.6-2 3.6-4.1 4.6-1.9 1-4 1.1-6.4 0.4l11.1 13.5zm-0.4 18.9l-10.1-12.2c0.3 1.3 0.4 2.7-0.1 4.1-0.5 1.6-1.6 2.7-3.3 3.6zm-13.1-3.2c0.7 0.8 1.5 1.9 2.2 3.4 1.2 2.4 2.1 6.1 0.5 10.4l10.7-9.4zm-14 28.5l14.8-13c2.2-3.9 2.4-7.8 0.5-11.6-1.2-2.6-3-4.3-3.4-4.6l-15.1-5c0.7 1.6 2 4.6 3 9 0.7 3.3 1.4 7.7 1.4 13 0 3.6-0.3 7.7-1.2 12.2zm5.9 9.1c-0.2-6.4-5.4-7.1-6.5-7.2l-7.2 6.4c2.5 0.6 9.2 2.6 10.3 7.1q1.6-3.2 3.4-6.3zm9.5-21.2l-15 13.1c1.9 0.4 5.6 1.8 6.4 6.6q5-8.6 11-16.6c0.2-2.4-1.7-3-2.4-3.1zm34.1-29.2c-1.8 0.2-4.4-0.2-7.5-2.5l-12.7 19.6q-0.2 0.2-0.4 0.3l-12.6 11c1 0.3 2.1 1.2 2.5 2.6 8.7-11.3 19.1-21.7 30.7-31 0 0 0 0 0 0zm1-15.6l-8 12.3c5 3.7 8.6 1.9 9 1.7q1.3-1 2.6-2c2.7-2 5.4-3.9 8-5.6-0.9 0-1.9 0-3.1-0.2-2.6-0.4-6.1-1.8-8.5-6.2zm-22.4-1.4l0.3 11.2c2.2 2.6 4.6 4 7.1 4.3 3.2 0.2 5.6-1.8 6-2.1l7.7-11.8c-1.3 0.5-3.3 1.1-5.8 1.5-3.8 0.5-9.5 0.4-15.3-3.1zm-24.2 3.4q0 0 0 0zm11.7 14.2q4.3 1.8 7.3 0.2c3.3-1.7 4.4-6 4.5-6.5l-0.3-11.3c-1.1 0.8-3.1 2.1-6 3.1-3.7 1.2-9.6 2.3-17.2 0.3z"/>
			<path class="s6" d="m235.5-2v56.2c0 0.2 0.2 0.4 0.4 0.4 0.3 0 0.5-0.2 0.5-0.4v-56.2z"/>
			<path fill-rule="evenodd" class="s4" d="m232.5 53.1c-0.8-0.8-2-2.1-2-2.8-0.1-0.8 0.5-2.4 1-3.3 0-0.1 0.1 0 0.1 0.1-0.2 1-0.3 2.7 0.3 3.6 0.5 0.6 1 1.2 1.4 1.7 1.6-1 3.7-1.1 5.3 0 0.4-0.5 0.9-1.1 1.3-1.7 0.7-0.9 0.5-2.6 0.4-3.6 0-0.1 0.1-0.2 0.2-0.1 0.4 0.9 1 2.5 1 3.3-0.1 0.7-1.3 2-2.1 2.8q0.3 0.3 0.5 0.6 0.1 0.1 0.1 0.2c0.6-0.1 1.2-0.3 1.7-0.5 1-0.4 1.2-2.5 1.2-3.8 0-0.1 0.1-0.1 0.1 0 0.3 1.3 0.6 3.7 0.1 4.3-0.4 0.5-1.6 0.9-2.7 1.1q0.1 0.4 0.1 0.7 0 0.2-0.1 0.4c1.1 0.2 2.3 0.6 2.7 1.1 0.5 0.6 0.2 3-0.1 4.3 0 0.1-0.1 0.1-0.1 0 0-1.3-0.2-3.4-1.2-3.8-0.6-0.2-1.2-0.4-1.7-0.6q-0.2 0.2-0.3 0.4c0.6 0.7 1.7 2.3 1.8 3.2 0 0.8-0.5 2.4-0.8 3.2 0 0.1-0.2 0.1-0.1 0 0.1-1 0.2-2.7-0.3-3.6-0.5-0.9-1.1-1.8-1.4-2.4h-0.1c0.1 0.4 0.1 0.9-0.1 1.6-0.2 0.5-0.4 0.9-0.7 1.2 0.3 0.4 0.6 1 0.4 1.5-0.4 0.9-1.9 0.8-1.9 0.8 0 0 1-0.9 0.6-1.7-0.7 0.2-1.2 0.2-1.2 0.2 0 0-0.4 0-1-0.2-0.4 0.8 0.6 1.7 0.6 1.7 0 0-1.5 0.1-1.9-0.8-0.2-0.5 0-1.1 0.3-1.5-0.3-0.3-0.5-0.7-0.7-1.2q-0.1-0.3-0.1-0.5-0.6 0.6-1.1 1.3c-0.7 0.9-0.5 2.6-0.3 3.6 0 0.1-0.1 0.1-0.2 0-0.4-0.8-1.1-2.4-1-3.2 0.1-0.8 1.3-2.1 2.2-3q-0.4-0.2-0.8-0.6c-0.5 0.2-1.1 0.4-1.7 0.6-1 0.4-1.2 2.5-1.2 3.8 0 0.1-0.1 0.1-0.2 0-0.2-1.3-0.6-3.7-0.1-4.3 0.5-0.5 1.7-0.9 2.8-1.2q0-0.1 0-0.3 0-0.3 0-0.7c-1.1-0.2-2.3-0.6-2.8-1.1-0.5-0.6-0.1-3 0.1-4.3 0.1-0.1 0.2-0.1 0.2 0 0 1.3 0.2 3.4 1.2 3.8 0.6 0.2 1.2 0.4 1.7 0.6q0.1-0.2 0.2-0.3 0.2-0.3 0.4-0.5z"/>
			<g>
				<path fill-rule="evenodd" class="s6" d="m230 48.4c0.2-0.6 0.5-1.2 0.7-1.7q0 0 0 0c0.1-0.2 0.3-0.3 0.5-0.4 0.3-0.1 0.5-0.1 0.7 0 0.3 0.2 0.6 0.6 0.5 1-0.1 0.4-0.2 1-0.2 1.6q0.1 0.9 0.4 1.3l-1 0.7q0 0 0 0l1-0.7c0.3 0.4 0.6 0.8 0.9 1.2 1.5-0.8 3.4-0.8 4.9 0q0.5-0.6 0.9-1.2 0 0 0 0l0.6 0.5c0 0-0.5-0.4-0.6-0.5q0.3-0.4 0.3-1.3c0-0.6 0-1.2-0.1-1.6-0.1-0.6 0.3-0.9 0.5-1 0.2-0.1 0.4-0.1 0.6-0.1 0.3 0.1 0.5 0.3 0.6 0.6q0 0 0 0c0.2 0.4 0.5 1 0.7 1.6q0.1 0.4 0.2 0.9 0.1-0.2 0.2-0.3c0.1-0.2 0.3-0.3 0.5-0.3 0.2 0 0.5 0 0.7 0.2 0.2 0.1 0.3 0.4 0.3 0.6 0.1 0.7 0.3 1.6 0.3 2.5q0.1 0.6 0 1.2c0 0.4-0.1 0.9-0.4 1.2q0 0 0 0-0.3 0.3-0.6 0.5-0.4 0.2-0.8 0.4-0.4 0.1-0.8 0.3 0.4 0.1 0.8 0.2 0.4 0.2 0.8 0.4c0.2 0.1 0.4 0.3 0.6 0.5 0.3 0.4 0.4 0.8 0.4 1.2q0.1 0.6 0 1.2c0 0.9-0.1 1.8-0.3 2.5 0 0.3-0.1 0.5-0.4 0.7-0.2 0.1-0.5 0.1-0.6 0.1-0.2-0.1-0.5-0.2-0.7-0.5q0 0.3-0.1 0.6c-0.2 0.6-0.4 1.2-0.5 1.7-0.1 0.2-0.2 0.4-0.5 0.6-0.3 0.1-0.6 0-0.8-0.1-0.3-0.1-0.5-0.5-0.4-0.9 0-0.5 0.1-1.1 0.1-1.7 0-0.6-0.1-1.1-0.3-1.4l0.9-0.5q0 0 0 0l-0.9 0.5q-0.2-0.3-0.3-0.5-0.2 0.3-0.3 0.5 0.1 0.2 0.1 0.5c0.2 0.4 0.2 0.9 0 1.3v0.1c-0.4 0.8-1.2 1.1-1.7 1.2q-0.4 0-0.7 0-0.1 0-0.2 0 0 0-0.1 0 0 0 0 0 0 0 0 0 0 0 0 0h-0.3-0.5-0.1v-0.1c0 0.2 0 0.2 0 0.2q0 0 0 0-0.1 0-0.3 0-0.2 0-0.7-0.1c-0.5-0.1-1.3-0.4-1.6-1.3-0.2-0.4-0.2-0.9-0.1-1.3q0.1-0.2 0.2-0.4-0.1-0.1-0.2-0.2 0 0.1-0.1 0.2 0 0 0 0 0 0 0 0 0 0 0 0 0 0 0 0 0 0 0 0-0.3 0.4-0.4 1.3c0 0.6 0.1 1.1 0.2 1.6 0.1 0.4-0.2 0.8-0.5 1-0.2 0.1-0.4 0.1-0.7 0-0.2 0-0.4-0.2-0.5-0.4-0.2-0.5-0.5-1.1-0.7-1.7q-0.2-0.5-0.3-1c-0.1 0.4-0.4 0.7-0.7 0.8q-0.3 0-0.6-0.1c-0.2-0.1-0.3-0.3-0.4-0.5l0.8-0.3h-0.1l-0.7 0.3-0.1-0.1c-0.1-0.7-0.2-1.7-0.3-2.6q-0.1-0.6 0-1.2c0-0.4 0.1-0.9 0.4-1.2 0 0 0.4 0.4 0.8 0.6l-0.8-0.6c0.4-0.4 1-0.7 1.5-0.9q0.4-0.2 0.7-0.3-0.3-0.1-0.7-0.2c-0.5-0.2-1.1-0.5-1.5-0.9l0.8-0.7-0.8 0.7c-0.3-0.4-0.4-0.9-0.4-1.2q-0.1-0.6 0-1.3c0.1-0.9 0.2-1.8 0.3-2.5q0 0 0 0v-0.1h0.1l0.6 0.2q0.1 0 0.1 0l-0.7-0.2c0.1-0.4 0.4-0.7 0.9-0.6q0.4 0 0.6 0.3 0.1 0.1 0.1 0.3 0.1-0.5 0.3-0.9zm1.5 6.6l0.1-0.3q0 0 0 0l-0.1 0.3zm0.3-0.7l0.1-0.3q-0.1 0.1-0.1 0.3zm0.8 0l-0.3 0.5v0.4q-0.1 0.2-0.1 0.5h-0.8 0.5q-0.1 0-0.3 0h0.6q0.1 0.1 0.1 0.2l-0.8 0.1 0.8-0.1v0.4l0.3 0.3-0.7 0.5 0.7-0.5q0.2 0.2 0.4 0.4l0.5 0.2 0.5 0.3-0.4 0.4 0.2 0.9-0.8 0.2h0.1l0.7-0.2q0.1 0.2 0.1 0.4l-0.4 0.2 0.4-0.2c0.2 0.5 0.4 0.7 0.6 0.9l0.3 0.3 0.3 0.2q0.4 0.1 0.6 0.1 0.1 0 0.1 0 0 0 0 0 0 0 0.1 0.8 0 0 0 0.1 0-0.1 0-0.1c0.1-0.8 0.1-0.8 0.1-0.8q0 0 0 0 0 0 0.2 0 0.2 0 0.5-0.1l0.3 0.7 0.3-0.2q0 0 0 0h0.1l-0.4 0.2-0.3-0.8 0.5-0.1 0.2-0.3c0.2-0.2 0.4-0.5 0.5-0.9 0.2-0.5 0.2-0.8 0.1-1.1l0.8-0.2q0 0 0 0l-0.8 0.2-0.2-0.7 0.7-0.3v0.1l0.1 0.1v-0.1l0.1 0.4v-0.1l0.1 0.4q0.1 0 0.1 0v-0.1l0.6-0.4-0.4-0.5-0.2 0.1 0.2-0.2q0.1-0.1 0.2-0.2l0.6 0.5h0.1l-0.7-0.5 0.2-0.3 0.1-0.4q0-0.1 0-0.2l0.9 0.1-0.6-0.1h0.5-0.8q0-0.3 0-0.5l0.8-0.2q0 0 0 0l-0.8 0.1-0.1-0.3-0.2-0.5v0.1q-0.1-0.2-0.2-0.3l0.8-0.5-0.8 0.5q-0.1-0.2-0.3-0.4l-0.3-0.4-0.3-0.2h-0.1c-1.3-0.9-3.1-0.9-4.4 0l-0.4-0.7q0 0 0 0c0 0.1 0.4 0.7 0.4 0.7l-0.3 0.2-0.3 0.4-0.6-0.6 0.2-0.1-0.2 0.1 0.5 0.6q-0.1 0.2-0.3 0.4l-0.7-0.5c0.3 0.3 0.7 0.5 0.7 0.5q-0.1 0.1-0.1 0.2zm-2.1-2.1q-0.3-0.4-0.5-0.9-0.1-0.1-0.1-0.2 0 0.3 0.1 0.5 0.1 0.5 0.2 0.8c0.1 0.2 0.2 0.2 0.2 0.2q0.4 0.1 0.7 0.3-0.3-0.4-0.6-0.7zm-0.8 9.3q0 0 0 0h-0.7-0.1zm0.3-1.9q0.3-0.4 0.7-0.9 0.2-0.2 0.4-0.5-0.3 0.1-0.6 0.2h-0.1l-0.4-1.1q0 0 0 0l0.4 1.1c0 0-0.1 0.1-0.2 0.2q-0.1 0.3-0.2 0.8-0.1 0.2-0.1 0.5 0.1-0.2 0.1-0.3zm1.7 0.4l0.6 0.5c-0.2-0.2-0.4-0.3-0.6-0.5q0 0 0 0zm1.3-1l-0.1-0.2 0.1 0.2zm1.2 1.9l-0.3-0.2zm-0.1 1.1l-0.8 0.3 0.8-0.3q0 0 0 0zm1.9 0.4q0 0 0-0.1 0 0 0 0 0 0 0 0 0 0 0 0 0 0 0 0-0.1 0-0.1 0 0 0 0 0 0 0.1 0.1 0.1 0 0 0 0 0 0 0 0zm-1.1-1.1c0 0-0.2-0.1-0.3-0.1q0 0 0 0l0.3 0.1zm4-1.7q-0.1-0.1-0.2-0.1l0.2 0.1q0 0 0 0zm0.6 0.1q-0.1 0-0.1 0zm1.1 4.2h-0.1-0.1zm-1-6.4q0 0 0 0l0.1-0.1q0 0 0 0-0.1 0-0.1 0.1zm1.9 1.1q0.2 0.4 0.4 0.7-0.1-0.4-0.3-0.7c0-0.1-0.1-0.2-0.1-0.2q-0.1 0-0.2 0 0.1 0.1 0.2 0.2zm0-0.2l0.3-0.8q-0.1 0-0.1 0l0.2-0.3q0 0 0 0 0 0 0 0l-0.4 1.1zm0.8 3.1q0 0 0 0 0 0 0 0h0.7q0 0 0 0h0.1l-0.8-0.2v0.1 0.1q0 0 0 0zm0.7 0h-0.7 0.6q0.1 0 0.1 0zm-1.1-7.8l-0.3-0.8c0 0.3 0.2 0.6 0.2 0.8q0.1 0 0.1 0zm-0.5-1.1c0.1 0 0.1 0 0.2-0.2q0.2-0.3 0.3-0.8 0-0.2 0.1-0.4 0 0.1 0 0.1-0.3 0.4-0.6 0.8-0.3 0.4-0.6 0.8 0.3-0.2 0.6-0.3zm-0.9-5.6l-0.3 0.1-0.5 0.2 0.1 0.1 0.5-0.3 0.8-0.1v-0.1-0.1l-0.6 0.2-0.1 0.1 0.1-0.1zm-0.1 0.1l0.1-0.1v0.1h-0.1zm1.7 3.2q0 0 0 0h0.3l-0.8-0.1 0.2 0.1q-0.1 0-0.2 0zm0-0.1h-0.4q0.2 0 0.4 0 0 0 0 0zm-10.6-3.2h0.1-0.1q0 0 0-0.1zm0.1 0.1l0.6 0.3v-0.1l-0.5-0.2-0.2-0.1q0.1 0.1 0.1 0.1zm8.5 0h0.3-0.1-0.1zm1.9 13.5q0 0 0 0l-0.7 0.1zm1.7-4c-0.1 0.1-0.3 0.3-0.6 0.5 0 0-0.1 0.1-0.3 0.3q0 0-0.1 0 0 0 0 0c-0.1 0.1-0.2 0.2-0.2 0.2l0.2-0.2q0 0 0 0zm-1.7 0.2q0 0 0 0 0 0 0 0zm0.2-7.3q0 0 0 0h0.1v0.1l0.5-0.1h0.2 0.1q-0.1 0-0.1 0h0.1-0.8q-0.1 0-0.1 0zm-3.3 8.3zm0-0.9l-0.3 0.3v-0.1zm-0.2 0.5l0.2 0.3zm-1 3.3l0.2-0.2zm-1.8-0.1h0.1l-0.1 0.8c0 0 0-0.8 0-0.8zm-4.2 3.2h-0.1zm-0.8-3.2l-1-0.1 1 0.2q0-0.1 0-0.1zm-0.1-13.8v0.1l0.8 0.1zm0.8 0.3h-0.1v-0.1zm7.6 3.1q0 0 0 0 0 0 0 0zm0.5 3.5l-0.7 0.4c0 0 0.7-0.4 0.7-0.4zm2.4-4.1c0.1 0 0.4 0 0.7 0h-0.1-0.6zm0.3 3.8l0.6 0.5c0 0-0.6-0.5-0.6-0.5zm-0.6 0.8l-0.2-0.8c-0.1 0 0.2 0.8 0.2 0.8zm-2.3 1.5h0.3-0.3zm3.1 1.9q0 0 0 0 0.1-0.1 0.1-0.1 0.1-0.1 0.3-0.2zm-1.3 3.1l0.8-0.1zm-0.9 3.2l0.8 0.2v-0.1zm0.1 0.1l-0.7-0.3v0.1zm-1.1-3.3l0.7-0.4c0 0-0.7 0.4-0.7 0.4zm-6.8 1.9q0 0 0 0zm0.8-0.4l-0.1 0.1q0 0 0.1-0.1zm0.7-0.3c0 0-0.5 0.3-0.7 0.3zm-2.8 2.1l0.8-0.3h-0.1v-0.1l-0.6 0.3-0.7 0.2v0.1l0.7-0.2zm0.1-0.1h-0.1 0.1zm-3.6-2.1q0 0 0 0zm0-5.1q0 0 0 0 0 0 0 0zm3.6-0.9h-0.2q0 0 0.2 0zm0.6-0.1h-0.4c0.2 0 0.4 0 0.4 0zm-0.4-5l-0.6 0.5zm-3.2 3.2l-0.6 0.5zm3.4-0.2l0.6 0.4zm-1.6-3.4h0.8zm7.9 11.8l-0.7-0.3zm-5.2-2.7l0.7-0.3zm-2.7 1.2l0.8 0.1zm1.6-0.4l-0.7-0.5zm-1.8-2.6l0.3 0.8zm-1.5-0.5l-0.6-0.5zm1.5-3.8l0.2-0.8z"/>
			</g>
		</g>
	</g>
</svg>